<?xml version="1.0" standalone="no"?>
<!DOCTYPE svg PUBLIC "-//W3C//DTD SVG 1.1//EN" "http://www.w3.org/Graphics/SVG/1.1/DTD/svg11.dtd" >
<svg xmlns="http://www.w3.org/2000/svg">
<metadata>
This is a custom SVG webfont generated by Font Squirrel.
Copyright   : Comfortaa  Johan Aakerlund 2008 All Rights Reserved
Designer    : Johan Aakerlund  aajohan
Foundry     : Johan Aakerlund
</metadata>
<defs>
<font id="webfontNHFt3y4g" horiz-adv-x="1013" >
<font-face units-per-em="2048" ascent="1638" descent="-410" />
<missing-glyph horiz-adv-x="507" />
<glyph unicode=" "  horiz-adv-x="507" />
<glyph unicode="&#x09;" horiz-adv-x="507" />
<glyph unicode="&#xa0;" horiz-adv-x="507" />
<glyph unicode="!" horiz-adv-x="509" d="M111 102q16 78 69 78h6q80 -12 80 -65v-23q0 -52 -73 -67h-9q-57 -1 -73 77zM141 416v958q10 43 47 43h13q39 0 49 -47v-948q-12 -51 -51 -51q-58 8 -58 45z" />
<glyph unicode="&#x22;" horiz-adv-x="555" d="M80 1479q12 55 51 55q53 -14 53 -41q-20 -289 -30 -289l-27 -8q-23 0 -29 100zM324 1493q0 31 61 41q27 0 43 -53q-25 -268 -29 -269l-20 -16h-4q-33 0 -33 113z" />
<glyph unicode="#" horiz-adv-x="1335" d="M170 557v2q0 31 53 43h172l47 244h-163q-51 8 -52 47q9 49 68 49h10h160q82 438 86 438q29 23 47 23q39 0 45 -49l-80 -412h271q83 430 92 442q23 23 43 23q45 -12 45 -41v-10q0 -31 -82 -414h141l35 4q35 0 43 -51q-8 -49 -47 -49h-193l-45 -244h168q63 -6 64 -47 q-8 -49 -74 -49v2l10 -2h-190q-86 -436 -99 -461q-18 -23 -38 -22h-5q-45 8 -45 43v2l88 438h-245q-33 0 -78 -266q-37 -188 -45 -193q-23 -29 -41 -29q-53 12 -53 50l90 438h-135l-23 -4q-33 0 -45 55zM496 602h270l45 244h-268z" />
<glyph unicode="$" d="M72 223q9 49 49 49q27 0 90 -77q94 -61 201 -70v625q-143 43 -189 110q-94 96 -94 223v27q0 178 180 285q55 27 103 26v162q12 43 41 43h18q29 0 41 -49v-150q109 -10 215 -106q37 -35 37 -47v-25q0 -29 -51 -37q-12 0 -76 68q-33 29 -125 57v-510q184 -68 256 -200 q53 -100 53 -197q0 -262 -268 -379l-41 -8v-143q-12 -53 -45 -54q-55 12 -55 50v104q0 27 -109 43q-160 55 -229 168zM225 1061q0 -141 187 -242v498q-186 -92 -187 -225v-31zM512 133h35q174 100 174 256v39q0 158 -209 287v-582z" />
<glyph unicode="%" horiz-adv-x="1609" d="M100 1075q0 219 234 322q43 14 92 14h20q156 0 265 -141q61 -88 61 -191q0 -215 -225 -319q-63 -18 -105 -19h-8q-195 0 -299 191q-35 73 -35 143zM199 1071q0 -168 186 -229l41 -2h20q164 0 226 188l4 47q0 172 -182 234l-54 8q-170 0 -233 -178l-8 -58v-10zM244 63v17 q0 25 100 143l893 1180q10 8 25 8h8q45 -8 45 -45v-14q0 -14 -135 -187l-856 -1130q-20 -10 -29 -10q-51 9 -51 38zM788 348v23q0 178 179 284q86 43 157 43q195 0 310 -204q25 -74 24 -129v-13q0 -197 -207 -303q-63 -25 -127 -24h-8q-170 0 -280 165q-48 82 -48 158z M883 365q0 -168 176 -234l55 -8h19q160 0 225 182l4 39v27q0 168 -195 227l-43 2q-178 0 -237 -197z" />
<glyph unicode="&#x26;" horiz-adv-x="1456" d="M129 391q0 180 205 348l63 70q-195 182 -194 283q-8 0 -8 43q0 172 184 260q57 14 86 14h18q178 0 262 -197q10 -47 11 -73v-21q0 -135 -148 -252l-55 -59l346 -346h25l159 162q18 12 33 12q49 0 55 -60q0 -31 -124 -141l-60 -63l234 -234q8 -10 8 -22v-11 q-8 -49 -47 -49h-11q-31 0 -122 107l-142 137q-229 -248 -286 -248q-61 -27 -129 -26q-205 0 -326 206q-37 90 -37 160zM240 379q0 -166 186 -236l59 -10q145 0 273 162l76 78l-347 346h-22q-221 -197 -221 -289l-4 -31v-20zM303 1118q0 -84 162 -221h20q164 141 164 221v17 q0 111 -133 163l-43 5q-111 0 -162 -115l-8 -37v-33z" />
<glyph unicode="'" horiz-adv-x="344" d="M92 1464q12 57 51 58q55 -15 56 -43q-20 -287 -31 -287l-29 -8q-20 0 -26 100z" />
<glyph unicode="(" horiz-adv-x="757" d="M328 594q0 494 217 960q20 16 33 17h10q45 -8 45 -43v-6l-74 -199q-133 -362 -133 -733q0 -469 209 -924l2 -8q-8 -51 -47 -51h-8q-45 0 -80 121q-174 403 -174 866z" />
<glyph unicode=")" horiz-adv-x="757" d="M68 -342l77 197q131 369 131 737q0 461 -206 924l-2 8q8 51 47 51h14q37 0 74 -123q174 -412 174 -856q0 -524 -223 -977q-14 -10 -31 -10h-8q-37 0 -47 49z" />
<glyph unicode="*" horiz-adv-x="1024" d="M229 1327v4q0 39 58 51q20 0 121 -75l86 -43v47l-52 168v4q0 39 56 51q51 -12 51 -51v-4l-53 -168v-33h36l162 100l15 4q51 -12 51 -51v-12q0 -25 -39 -43l-121 4h-141l200 -164l9 -22v-15q0 -37 -54 -47q-49 0 -61 92l-39 115h-41l-51 -176q-20 -31 -45 -31 q-55 12 -55 43v17q0 31 81 77l129 111h-71l-191 -4q-41 16 -41 51z" />
<glyph unicode="+" d="M135 743v2q0 35 60 48h245v249q10 49 47 50h13q37 0 47 -54v-245h235q68 -6 68 -54q-12 -53 -76 -53h6h-233v-252q-8 -51 -51 -51h-2q-53 12 -54 43v260h-231l-25 -4q-37 0 -49 61z" />
<glyph unicode="," horiz-adv-x="555" d="M106 145v5q0 66 89 102q8 4 34 4h13q115 -23 114 -121l-6 6l6 6v-16l9 -55v-15q0 -168 -172 -254q-29 -20 -48 -20q-20 0 -26 37q0 27 67 39q51 29 97 92l32 88l-86 -16q-123 22 -123 118z" />
<glyph unicode="-" horiz-adv-x="669" d="M68 573q14 49 51 50h399q39 0 51 -56q-12 -51 -51 -51h-399q-45 0 -51 57z" />
<glyph unicode="." horiz-adv-x="555" d="M129 141q0 68 86 103q10 6 29 6q86 0 110 -105v-20q0 -57 -82 -94q-10 -6 -28 -6h-4q-93 -1 -111 116z" />
<glyph unicode="/" horiz-adv-x="768" d="M4 -43q4 27 551 1509q27 27 45 27q53 -10 53 -47v-16q-500 -1374 -553 -1508q-18 -20 -37 -20h-8q-43 0 -51 55z" />
<glyph unicode="0" horiz-adv-x="987" d="M0 715v10q0 274 94 487q131 199 328 199q231 0 354 -248q70 -211 70 -399v-86q0 -227 -92 -455q-129 -199 -326 -198h-10q-211 0 -336 229q-82 211 -82 461zM86 696q0 -266 98 -452q102 -125 230 -125h12q279 0 324 413q10 57 14 191q0 221 -78 430q-104 166 -260 166 q-193 0 -283 -209q-57 -190 -57 -373v-41z" />
<glyph unicode="1" horiz-adv-x="567" d="M41 1300v17q0 35 131 61l113 33h4q47 -10 47 -39v-1298q-8 -49 -47 -49h-2q-49 8 -49 38v1233q-131 -43 -158 -43t-39 47z" />
<glyph unicode="2" horiz-adv-x="974" d="M0 1006q0 213 203 348q106 57 203 57q193 0 335 -172q74 -111 74 -233q0 -188 -186 -363l-457 -520h619q34 0 43 -49q-6 -49 -48 -49h-731q-47 8 -47 47v4q0 25 64 86l587 669q55 78 56 175q0 209 -217 290q-37 12 -84 13h-13q-199 0 -288 -213q-14 -51 -17 -99 q-18 -35 -43 -34h-4q-49 9 -49 43z" />
<glyph unicode="3" horiz-adv-x="954" d="M0 432q0 31 55 43q33 0 41 -51q0 -174 187 -277q68 -25 129 -24q182 0 278 190q23 61 23 103v28q0 174 -195 273l-121 26q-25 18 -24 41v4q0 45 78 46q86 0 174 110q35 74 34 129q0 137 -133 211q-53 27 -110 27q-156 0 -223 -170q-10 -90 -15 -90q-27 -31 -39 -31 q-53 12 -53 39v18q0 184 184 291q72 37 152 39q156 0 268 -141q63 -84 64 -189v-14q0 -143 -152 -277q211 -154 211 -356q0 -211 -199 -348q-104 -57 -202 -57h-11q-237 0 -368 245q-33 94 -33 162z" />
<glyph unicode="4" horiz-adv-x="1101" d="M0 494v14q0 14 31 39q612 795 637 837q16 16 24 17h25q25 0 39 -43l-4 -33v-778h143l33 4q33 0 45 -53q0 -31 -43 -47l-51 4h-127v-392q0 -31 -50 -38q-49 8 -49 47v383h-532l-84 -4q-37 15 -37 43zM154 547h499v651z" />
<glyph unicode="5" d="M0 438q18 49 53 49q57 0 58 -110q55 -160 168 -215q88 -35 143 -35q212 0 301 215q16 39 16 104q0 231 -245 312l-95 8h-264q-33 0 -45 41v555q0 25 45 43l35 -4h575q39 0 52 -55q0 -37 -58 -50h-546v-428h239q238 0 373 -245q43 -102 43 -177q0 -218 -209 -362 q-109 -59 -211 -59h-10q-246 0 -385 256q-33 96 -33 157z" />
<glyph unicode="6" horiz-adv-x="950" d="M0 430q0 135 102 272l404 697q23 12 39 12q31 0 43 -53q0 -16 -88 -158l-193 -334v-39l84 7h33q190 0 330 -195q59 -104 59 -209q0 -203 -184 -338q-104 -68 -217 -67h-19q-190 0 -334 192q-59 104 -59 213zM100 412q0 -170 195 -269q51 -16 108 -20q209 0 297 217l13 76 v16q0 217 -236 297l-76 8q-203 0 -292 -223l-9 -65v-37z" />
<glyph unicode="7" horiz-adv-x="962" d="M31 72v8q14 43 657 1171l21 56h-615q-53 12 -53 47q12 51 39 51h725q47 -10 47 -37v-18q0 -10 -35 -64l-706 -1249q-18 -12 -31 -12q-49 8 -49 47z" />
<glyph unicode="8" horiz-adv-x="970" d="M0 432q0 211 229 373q-106 80 -133 190q-10 27 -10 70v18q0 174 170 283q84 47 166 47q160 0 270 -141q63 -84 64 -189v-18q0 -141 -152 -277q213 -154 213 -356.5t-186 -339.5q-104 -68 -217 -67h-19q-193 0 -336 192q-59 106 -59 215zM98 436q0 -219 224 -301 q31 -12 92 -12q205 0 293 227l10 62v39q0 176 -203 272q-58 18 -104 18q-219 0 -299 -229zM184 1069q0 -163 191 -227l47 -4q166 0 227 178l10 57q0 176 -188 236l-51 4q-164 0 -227 -174z" />
<glyph unicode="9" horiz-adv-x="970" d="M0 1008q0 223 219 356q92 45 187 45q213 0 346 -201q57 -106 57 -200q0 -150 -127 -299l-500 -672q-18 -12 -28 -12q-53 10 -54 51q0 20 115 164l270 366h-55l-22 -4q-229 0 -363 219q-45 93 -45 187zM100 989q0 -164 179 -262q55 -25 127 -25q178 0 270 166 q33 63 33 136v4q0 209 -215 288q-35 14 -84 15h-23q-175 0 -270 -197q-16 -51 -17 -90v-35z" />
<glyph unicode=":" horiz-adv-x="555" d="M168 162q20 96 88 96h14q76 0 97 -88v-18q0 -68 -97 -91q-102 19 -102 101zM168 825q23 102 98 103q72 0 101 -84v-29q0 -55 -84 -86h-15q-100 14 -100 96z" />
<glyph unicode=";" horiz-adv-x="555" d="M127 -137q6 27 29 26l30 -6q121 66 121 166l-39 -12q-104 16 -104 96q0 74 78 100h24q102 0 103 -167v-5q0 -166 -203 -233h-12q-27 6 -27 22v13zM143 801q20 100 99 100q72 0 100 -84v-26q0 -57 -84 -89h-14q-101 15 -101 99z" />
<glyph unicode="&#x37e;" horiz-adv-x="555" d="M127 -137q6 27 29 26l30 -6q121 66 121 166l-39 -12q-104 16 -104 96q0 74 78 100h24q102 0 103 -167v-5q0 -166 -203 -233h-12q-27 6 -27 22v13zM143 801q20 100 99 100q72 0 100 -84v-26q0 -57 -84 -89h-14q-101 15 -101 99z" />
<glyph unicode="&#x3c;" d="M115 627q0 43 98 86q563 365 584 364h6q53 -14 53 -51v-8q0 -39 -125 -100q-6 -10 -450 -283q35 -37 561 -365q14 -16 14 -37v-4q0 -43 -57 -51q-18 0 -131 78l-535 330q-18 21 -18 41z" />
<glyph unicode="=" d="M135 430q0 33 60 45h598q57 -12 57 -51q-12 -53 -51 -53h-621q-35 0 -43 59zM135 760q16 49 51 49h613q39 0 51 -55q-12 -51 -51 -52h-613q-43 1 -51 58z" />
<glyph unicode="&#x3e;" d="M137 248v4q0 43 115 98l467 297q-545 334 -567 357q-14 20 -15 34q12 57 56 58q23 0 223 -133q434 -268 454 -287q8 -10 9 -29v-8q0 -41 -82 -74q-578 -369 -592 -368h-15q-53 10 -53 51z" />
<glyph unicode="?" horiz-adv-x="978" d="M57 1010q0 190 191 333q115 66 223 66q168 0 307 -152q96 -121 96 -264q0 -178 -157 -315q-186 -100 -187 -299q-10 -53 -47 -53q-51 12 -51 39v30q0 221 242 371q102 102 102 240q0 174 -184 278q-90 27 -131 27q-180 0 -285 -195l-26 -127q-20 -27 -37 -26 q-56 12 -56 47zM399 92q0 63 72 80h12q49 0 70 -61v-21q-16 -72 -78 -72q-76 15 -76 74z" />
<glyph unicode="@" horiz-adv-x="2017" d="M-4 623q0 397 319 694q272 229 596 229h35q406 0 707 -348q205 -262 205 -580q0 -387 -261 -491q-66 -31 -135 -31h-26q-123 0 -142 35l-2 14l4 99v61q-213 -201 -405 -201h-33q-264 0 -440 269q-66 131 -66 258q0 293 287 463q121 57 235 57q299 0 472 -293 q53 -119 53 -244v-405l51 -6q164 0 256 162q43 104 43 223v51q0 334 -281 598q-246 203 -536 203q-430 0 -699 -379q-127 -203 -127 -443v-4q0 -391 322 -651q231 -170 504 -170q231 0 457 137l10 4q55 -12 55 -55q0 -78 -317 -168q-96 -23 -179 -22h-51q-340 0 -622 256 q-289 289 -289 678zM459 623q0 -254 254 -383q78 -29 145 -29h33q211 0 350 213q51 100 51 190v17q0 246 -241 375q-84 39 -177 38h-4q-258 0 -387 -268q-25 -83 -24 -141v-12z" />
<glyph unicode="A" horiz-adv-x="1189" d="M0 72l127 340q340 887 362 964q23 27 41 27q49 0 78 -121q457 -1184 459 -1204v-10q0 -34 -49 -43h-2q-45 0 -70 110l-176 457h-473l-211 -553q-16 -14 -33 -14h-6q-47 8 -47 47zM338 688h383v35l-168 444h-39z" />
<glyph unicode="B" horiz-adv-x="997" d="M55 72v1284q6 49 72 49v-2l-8 2h233l15 2q158 0 272 -152q55 -84 55 -182v-10q0 -123 -114 -252q258 -143 258 -385q0 -244 -252 -373q-82 -29 -146 -28h-336q-49 8 -49 47zM152 123h221q233 0 311 133q53 76 53 170v6q0 221 -241 297l-111 8h-233v-614zM152 834h163 q205 0 263 147q16 39 16 86v10q0 164 -191 226l-81 4h-170v-473z" />
<glyph unicode="C" horiz-adv-x="1361" d="M63 719q0 358 328 586q174 106 361 106q215 0 397 -129q8 -16 8 -27v-8q0 -41 -53 -47h2l-127 66q-145 45 -227 45q-280 0 -486 -258q-102 -174 -102 -334q0 -332 307 -522q137 -70 274 -70h11q180 0 344 104h12q45 -8 45 -43v-10q0 -59 -233 -131q-80 -23 -160 -22h-19 q-344 0 -573 317q-109 187 -109 377z" />
<glyph unicode="D" horiz-adv-x="1193" d="M55 72v1292q6 47 72 47v-2l-8 2h196l41 4q313 0 541 -270q147 -190 147 -432q0 -332 -292 -559q-184 -129 -392 -129h-256q-49 8 -49 47zM154 123h188q375 0 557 364q47 125 47 238q0 273 -239 473q-152 121 -443 121h-110v-1196z" />
<glyph unicode="E" horiz-adv-x="1093" d="M63 72v1292q6 49 72 49v-2l-8 2h750l14 4q39 0 47 -57q-8 -45 -57 -45h-719v-561h479l55 4q29 0 41 -56q0 -29 -39 -47l-71 4h-465v-536h737q29 0 39 -53q-12 -45 -41 -45h-784q-50 8 -50 47z" />
<glyph unicode="F" horiz-adv-x="1030" d="M55 72v1292q6 49 72 49v-2l-8 2h749l15 4q41 0 49 -57q-8 -45 -60 -45h-718v-561h481l53 4q29 0 41 -56q0 -29 -39 -47l-72 4h-464v-567l2 -18q-12 -49 -45 -49h-7q-49 8 -49 47z" />
<glyph unicode="G" horiz-adv-x="1290" d="M43 719q0 348 309 575q190 117 369 117q219 0 393 -121q12 -15 12 -30v-5q0 -37 -53 -47q-3 0 -135 62q-92 37 -180 37h-62q-221 0 -422 -213q-131 -176 -131 -369v-14q0 -305 283 -500q150 -84 299 -84h14q145 0 305 86v383h-296q-47 8 -48 47q8 49 45 49h353 q34 0 43 -49v-416q0 -77 -31 -92q-188 -111 -365 -110h-20q-344 0 -573 317q-109 180 -109 377z" />
<glyph unicode="H" horiz-adv-x="1185" d="M45 78v1272q6 59 41 59h10q47 -10 47 -37v-622h762v610q9 49 43 49h8q45 -8 45 -43v-1303q0 -31 -49 -38q-47 8 -47 47v585h-762v-589q0 -34 -49 -43h-2q-37 0 -47 53z" />
<glyph unicode="I" horiz-adv-x="538" d="M59 72v2q8 51 41 51h47v1196h-41q-41 0 -47 55v4q0 25 50 41l16 -2h145l13 2q51 -8 51 -47q-10 -53 -47 -53h-41v-1196h49q31 0 39 -51q-10 -49 -47 -49h-178q-50 8 -50 47z" />
<glyph unicode="J" horiz-adv-x="1021" d="M45 444q12 51 41 52h14q47 0 47 -95q6 -90 109 -198q98 -80 213 -80q229 0 313 237q12 45 13 89v919q8 45 43 45h12q35 0 43 -47v-922q0 -223 -213 -362q-96 -57 -203 -57h-18q-207 0 -348 202q-66 108 -66 217z" />
<glyph unicode="K" horiz-adv-x="1110" d="M61 78v1280q8 51 48 51h2q49 -9 49 -43v-713l733 733l27 5h2q45 -8 45 -43v-13q0 -25 -70 -82l-483 -485l542 -672l2 -14v-10q0 -35 -47 -43h-2q-31 0 -104 106l-463 563l-182 -186v-444q0 -34 -49 -43h-2q-38 0 -48 53z" />
<glyph unicode="L" horiz-adv-x="995" d="M45 78v1272q6 59 41 59h10q47 -10 47 -37v-1249h641q41 0 47 -53q-12 -45 -47 -45h-692q-37 0 -47 53z" />
<glyph unicode="M" horiz-adv-x="1488" d="M59 78v1270q6 59 39 59h17q35 0 57 -82l498 -1110q47 57 366 784l185 396q12 12 26 12h17q33 0 39 -59v-1270q-10 -53 -48 -53h-2q-49 9 -49 43v966h-45q-432 -979 -440 -991q-23 -18 -37 -18q-49 0 -94 143l-385 862h-45v-962q0 -34 -49 -43h-3q-37 0 -47 53z" />
<glyph unicode="N" horiz-adv-x="1320" d="M39 82v1266q6 59 39 59h14q31 0 62 -66q70 -76 829 -1060q-4 0 -4 6l16 -23h41v1098q8 45 43 45h11q34 0 43 -49v-1282q0 -43 -56 -51q-28 0 -110 122l-832 1061v-1136q0 -34 -49 -43q-37 0 -47 53z" />
<glyph unicode="O" horiz-adv-x="1593" d="M39 721q0 332 291 559q186 129 401 129q350 0 586 -324q106 -182 106 -370q0 -347 -313 -578q-176 -113 -373 -112h-14q-354 0 -584 333q-100 164 -100 363zM135 711q0 -289 252 -482q156 -106 336 -106h18q281 0 473 248q111 160 111 348q0 323 -295 510 q-150 84 -299 84q-295 0 -489 -256q-107 -151 -107 -346z" />
<glyph unicode="P" horiz-adv-x="962" d="M45 78v1276q6 59 41 59h344q188 0 324 -196q51 -106 51 -181v-26q0 -176 -162 -308q-106 -74 -213 -73h-287v-561q0 -34 -49 -43h-2q-37 0 -47 53zM143 725h260q207 0 285 199q18 43 19 100q0 184 -187 270q-43 20 -108 21h-269v-590z" />
<glyph unicode="Q" horiz-adv-x="1597" d="M45 721q0 332 293 559q186 129 401 129q350 0 586 -324q106 -188 107 -370q0 -223 -156 -434v-23q160 -157 160 -178v-8q0 -35 -56 -47q-29 0 -120 114q-31 25 -54 64q-227 -178 -461 -178h-14q-354 0 -584 333q-102 168 -102 363zM143 711q0 -289 252 -482 q156 -106 336 -106h19q199 0 380 145q-172 188 -182 203v18q8 45 43 46h13q27 0 106 -99l80 -80h27q117 181 116 363q0 322 -295 512q-143 82 -299 82q-295 0 -489 -256q-107 -151 -107 -346z" />
<glyph unicode="R" horiz-adv-x="974" d="M43 78v1272q6 59 39 59h313q188 0 307 -199q39 -82 39 -157v-17q0 -186 -182 -303l-57 -31q352 -610 352 -616v-18q0 -35 -47 -43h-2q-39 0 -92 116l-320 543h-254v-616q0 -34 -49 -43h-2q-35 0 -45 53zM139 780h242q197 0 258 213l4 35v33q0 158 -174 237 q-49 18 -150 19h-180v-537z" />
<glyph unicode="S" horiz-adv-x="925" d="M35 219q8 45 47 45q29 0 86 -71q106 -72 188 -72h33q170 0 270 186q16 66 17 94v37q0 166 -189 269l-194 55q-203 117 -203 305v27q0 184 201 288q76 29 137 29q174 0 287 -154l2 -8v-18q0 -28 -49 -37q-14 0 -84 76q-72 47 -144 47h-22q-143 0 -213 -148 q-18 -37 -19 -75v-31q0 -162 197 -236q117 0 258 -112q133 -137 133 -295q0 -197 -170 -324q-106 -72 -229 -71q-203 0 -336 174z" />
<glyph unicode="T" horiz-adv-x="1224" d="M39 1362q12 49 39 49h930q45 -8 45 -43v-14q0 -33 -60 -39h-399v-1247q0 -34 -49 -43q-37 0 -47 53v1237h-408q-51 12 -51 47z" />
<glyph unicode="U" horiz-adv-x="1167" d="M41 537v813q6 59 39 59h10q47 -10 47 -37v-805q0 -273 160 -368q96 -76 221 -76q238 0 356 242q25 78 25 157v838q9 49 43 49h8q45 -8 45 -43v-883q0 -213 -204 -372q-129 -86 -263 -86h-24q-223 0 -389 221q-74 117 -74 291z" />
<glyph unicode="V" horiz-adv-x="1245" d="M35 1362v6q0 39 55 47q45 0 78 -139l379 -1006h37l420 1127q20 18 40 18h5q37 0 45 -49l-476 -1282q-12 -59 -53 -59h-2q-49 0 -80 131q-448 1188 -448 1206z" />
<glyph unicode="W" horiz-adv-x="1775" d="M39 1364q10 47 37 47h16q45 0 60 -94l284 -993h45q293 1038 314 1071q14 16 32 16h11q45 0 63 -117q27 -74 283 -975h41l311 1072q14 20 31 20h12q45 -8 45 -35v-14l-381 -1319q-18 -18 -37 -18h-4q-47 0 -65 120q-264 901 -283 979h-41l-311 -1079q-18 -20 -39 -20h-14 q-41 0 -60 125q-323 1101 -350 1214z" />
<glyph unicode="X" horiz-adv-x="1298" d="M29 72v12q0 14 157 207l334 434q-471 594 -487 627l-4 14q12 45 39 45h16q31 0 51 -43l447 -571l475 610q6 4 20 4h13q35 0 43 -47v-2q0 -23 -97 -135l-397 -510l487 -623l7 -20q-10 -49 -48 -49h-4q-34 0 -61 61l-438 557l-478 -610q-8 -8 -24 -8h-2q-49 8 -49 47z" />
<glyph unicode="Y" horiz-adv-x="1150" d="M43 1360q12 49 39 49h14q33 0 58 -59l354 -531h31q383 578 387 580q16 10 20 10h23q27 0 39 -51q0 -23 -125 -193l-312 -463v-618q-6 -59 -39 -59h-16q-31 0 -43 41v616q0 20 -164 264l-266 402v12z" />
<glyph unicode="Z" horiz-adv-x="1269" d="M35 82q0 18 176 237l770 996h-895q-51 12 -51 47q12 49 39 49h1020q35 0 43 -47v-2q0 -23 -76 -111l-875 -1128h901q49 -6 50 -47v-2q-10 -49 -47 -49h-1008q-39 0 -47 57z" />
<glyph unicode="[" horiz-adv-x="778" d="M248 -342v1831q6 63 71 63h15h293l41 4q49 -18 49 -47v-12q0 -33 -43 -51l-64 4h-258v-1743h316q49 -12 49 -43v-10q0 -45 -60 -51h-354q-55 12 -55 55z" />
<glyph unicode="\" horiz-adv-x="690" d="M0 1470q10 53 49 54h4q57 0 92 -156l508 -1382q-10 -53 -51 -54h-16q-39 0 -80 152q-467 1253 -506 1386z" />
<glyph unicode="]" horiz-adv-x="757" d="M27 -336q0 33 51 47l16 -4h295v1743h-246l-71 -4q-45 14 -45 55q0 37 47 55l53 -4h279l40 4q49 -16 50 -51v-1859q0 -31 -54 -43h-364q-45 0 -51 59v2z" />
<glyph unicode="^" horiz-adv-x="940" d="M43 938q0 16 78 129q203 324 217 332l27 10h10q39 0 90 -104q229 -346 229 -359v-24q0 -34 -61 -43q-35 0 -117 155l-149 221l-238 -364q-23 -12 -39 -12q-35 0 -47 59z" />
<glyph unicode="_" horiz-adv-x="956" d="M0 -100q12 47 49 47h883q51 -8 51 -45v-11q-10 -47 -45 -47h-889q-43 1 -49 56z" />
<glyph unicode="`" horiz-adv-x="751" d="M211 1331v12q0 31 49 43h10q27 0 90 -75q172 -163 172 -178l5 -19q-8 -49 -52 -49h-8q-31 0 -145 129q-121 104 -121 137z" />
<glyph unicode="a" horiz-adv-x="1198" d="M43 514q0 270 266 430q117 53 219 53q279 0 439 -270q49 -108 49 -227v-432q0 -34 -49 -43h-2q-31 0 -45 36v-2l4 93v63q-200 -190 -381 -190h-29q-246 0 -412 249q-59 117 -59 240zM137 508q0 -238 240 -358q80 -29 137 -29h29q201 0 329 198q47 98 48 181v14 q0 231 -228 352q-76 35 -164 35h-4q-244 0 -362 -250q-25 -78 -25 -133v-10z" />
<glyph unicode="b" horiz-adv-x="1228" d="M74 545v821q0 33 45 41h6q45 -8 45 -41v-549q199 193 395 193q193 0 344 -144q150 -156 150 -348q0 -276 -264 -436q-113 -57 -217 -57h-31q-199 0 -371 188q-102 135 -102 332zM170 510q0 -248 258 -367q68 -20 127 -20h23q240 0 362 258q20 76 21 121v22 q0 246 -263 369q-76 20 -125 20h-16q-240 0 -362 -254q-25 -74 -25 -131v-18z" />
<glyph unicode="c" horiz-adv-x="1034" d="M35 512q0 240 211 401q133 88 276 88q190 0 340 -141q6 -8 6 -20v-2q-8 -49 -47 -50h-4q-18 0 -106 68q-88 45 -179 45h-20q-233 0 -354 -244q-29 -86 -29 -147q0 -236 246 -360q76 -29 155 -29q139 0 267 106l20 6h8q34 0 43 -49q0 -59 -223 -145q-72 -14 -113 -14h-28 q-199 0 -367 186q-102 145 -102 301z" />
<glyph unicode="d" horiz-adv-x="1198" d="M35 518q0 240 213 404q133 88 278 88q188 0 396 -187v486l-4 55q16 43 38 43h13q47 -10 47 -37v-747l4 -127q0 -137 -117 -295q-164 -176 -364 -176h-31q-197 0 -369 188q-104 147 -104 305zM131 510q0 -248 258 -367q68 -20 125 -20h25q240 0 362 258q20 76 21 121v22 q0 246 -263 369q-76 20 -124 20h-17q-240 0 -362 -254q-25 -74 -25 -131v-18z" />
<glyph unicode="e" horiz-adv-x="1165" d="M35 512q0 266 252 426q123 61 231 61q281 0 438 -268q53 -106 54 -225v-19q-8 -51 -47 -51h-822q55 -190 213 -276q94 -35 170 -35q94 0 205 55h14q45 -10 45 -43v-10q0 -72 -245 -102h-25q-262 0 -422 245q-61 109 -61 242zM133 532h772q0 109 -94 240 q-135 125 -262 125h-41q-195 0 -318 -188q-45 -79 -57 -177z" />
<glyph unicode="f" horiz-adv-x="864" d="M29 942q0 18 41 41l69 -2h148v92q0 238 205 324l83 14h89q31 0 38 -55q0 -29 -53 -41h-53q-160 0 -209 -174l-2 -82v-78h188l62 2q27 0 39 -49v-8q0 -29 -47 -41h-242v-776l2 -41q0 -31 -51 -43q-33 0 -49 43l4 41v776h-223q-31 0 -39 57z" />
<glyph unicode="g" horiz-adv-x="1206" d="M39 512q0 236 209 395q131 88 274 88q219 0 375 -180q111 -152 111 -280l-4 -127v-449q0 -115 -183 -256q-137 -90 -299 -90q-262 0 -438 237q-31 55 -31 60v10q0 31 45 39h8q33 0 64 -80q143 -180 352 -180q252 0 381 233l8 54v227q-199 -184 -376 -184h-31 q-194 0 -363 184q-102 141 -102 299zM133 506q0 -246 254 -363q63 -20 125 -20h23q240 0 358 254q18 78 18 121v22q0 243 -258 363q-80 18 -123 18h-14q-238 0 -358 -250q-25 -71 -25 -129v-16z" />
<glyph unicode="h" horiz-adv-x="1124" d="M74 72v1284q8 49 39 49h12q45 -8 45 -35v-516q180 156 336 156q237 0 381 -228q53 -94 53 -186v-528q0 -34 -49 -43q-35 0 -47 47v501q0 221 -230 320q-51 14 -108 14q-227 0 -320 -239q-16 -55 -16 -166v-434q0 -34 -49 -43q-35 0 -47 47z" />
<glyph unicode="i" horiz-adv-x="430" d="M102 78v864q6 63 48 64q49 -12 49 -39v-899q0 -34 -49 -43h-3q-35 0 -45 53zM102 1210q10 51 48 52q49 -12 49 -39v-23q0 -29 -56 -39q-29 0 -41 49z" />
<glyph unicode="j" horiz-adv-x="655" d="M0 -326q0 33 57 41q225 0 301 230l9 114v897q0 35 49 45q45 -8 45 -45v-927q0 -260 -248 -381q-86 -31 -139 -31l-4 4h-27l-2 -4h8q-41 0 -49 57zM367 1192v22q0 25 45 37q49 -9 49 -49q0 -41 -51 -47q-43 12 -43 37z" />
<glyph unicode="k" horiz-adv-x="1054" d="M78 72v1288q8 49 39 49h10q47 -10 47 -35v-792q565 375 657 426h13q37 0 47 -56q0 -29 -111 -88q-285 -193 -317 -200v-33l424 -541l4 -12q-10 -49 -47 -49h-8q-29 0 -113 118l-348 435h-23l-178 -113v-401q0 -35 -47 -43h-2q-35 0 -47 47z" />
<glyph unicode="l" horiz-adv-x="471" d="M66 78v1265q6 59 38 60h13q45 -8 45 -37v-1243h104q29 0 39 -51v2q-10 -49 -47 -49h-145q-37 0 -47 53z" />
<glyph unicode="m" horiz-adv-x="1673" d="M63 76v846q6 59 46 59q49 -12 49 -37v-90q158 127 288 127q178 0 338 -197q72 135 244 187l82 10q213 0 340 -207q41 -88 41 -164v-549q0 -27 -47 -36q-47 10 -47 45v532q0 201 -209 275l-55 8h-39q-166 0 -256 -193q-12 -45 -13 -76v-540q-10 -51 -45 -51h-2 q-47 10 -47 41v452q0 203 -55 252q-86 115 -225 115h-13q-193 0 -268 -205q-12 -49 -12 -125v-489q0 -31 -47 -41h-2q-36 0 -46 51z" />
<glyph unicode="n" horiz-adv-x="1196" d="M78 78v858q6 61 47 61q49 -12 49 -39v-137q195 176 379 176q201 0 354 -166q115 -143 115 -292v-476q0 -31 -49 -38q-47 8 -47 47v417q0 299 -260 394q-70 16 -113 16h-10q-219 0 -336 -223q-33 -76 -33 -217v-391q0 -35 -47 -43h-2q-37 0 -47 53z" />
<glyph unicode="o" horiz-adv-x="1169" d="M39 510q0 236 209 395q131 88 274 88q187 0 338 -141q145 -152 146 -342q0 -272 -258 -428q-115 -57 -216 -57h-28q-194 0 -363 184q-102 141 -102 301zM137 502q0 -218 209 -338q76 -39 166 -39h20q225 0 347 233q29 76 28 144v18q0 182 -166 305q-100 70 -223 70 q-248 0 -360 -258q-20 -61 -21 -117v-18z" />
<glyph unicode="p" horiz-adv-x="1171" d="M59 -340v819q0 371 347 496q39 10 137 20q186 0 336 -141q145 -152 145 -342q0 -272 -258 -426q-111 -55 -213 -55h-31q-168 0 -368 182v-565q0 -27 -54 -39q-29 0 -41 51zM158 506q0 -215 209 -336q78 -41 163 -41h23q225 0 344 233q29 76 29 144v18q0 182 -166 305 q-98 68 -223 68q-246 0 -359 -258q-20 -61 -20 -115v-18z" />
<glyph unicode="q" horiz-adv-x="1177" d="M45 506q0 231 207 391q135 88 272 88q190 0 338 -139q143 -141 144 -375v-813q-12 -53 -43 -53q-51 12 -52 39v565q-200 -184 -374 -184h-29q-195 0 -361 184q-102 145 -102 297zM141 498q0 -217 209 -334q78 -41 164 -41h23q225 0 344 231q27 72 26 144v18 q0 182 -164 303q-100 70 -223 70q-242 0 -356 -256q-23 -68 -23 -117v-18z" />
<glyph unicode="r" horiz-adv-x="923" d="M98 78v864q6 63 47 64q51 -12 52 -39v-140q201 178 376 179q98 0 201 -45q20 -25 21 -39v-2q-8 -47 -47 -48q-100 33 -158 33h-23q-238 0 -348 -246q-23 -59 -22 -147v-444q0 -34 -50 -43h-2q-37 0 -47 53z" />
<glyph unicode="s" horiz-adv-x="966" d="M20 688q0 125 191 248q104 55 209 55q243 0 381 -215l2 -22v-2q0 -37 -51 -45q-33 0 -78 75q-115 109 -254 109q-186 0 -293 -178l-4 -27q0 -74 131 -86q406 -96 459 -115q94 -63 94 -155v-4q0 -139 -213 -260q-94 -41 -197 -41q-209 0 -360 200q-10 16 -10 27v22 q0 31 59 37q23 0 80 -84q106 -100 248 -100q168 0 280 162l11 28v9q0 70 -89 80q-487 106 -514 131q-82 63 -82 151z" />
<glyph unicode="t" horiz-adv-x="702" d="M12 930q10 47 68 47h10h117v332q6 57 39 57h10q43 -10 43 -35v-354h178l35 4q29 0 41 -53q0 -29 -41 -45l-49 4h-164v-563q0 -158 113 -199l88 -6h43q27 0 37 -47q-10 -47 -45 -47h-78q-160 0 -238 176q-12 43 -12 100v586h-98l-56 -4q-41 16 -41 47z" />
<glyph unicode="u" horiz-adv-x="1187" d="M70 532v408q6 61 47 61q49 -12 49 -38v-402q0 -268 158 -364q100 -76 221 -76q236 0 352 241q25 77 25 154v434q8 51 47 51q49 -12 49 -45v-893q0 -31 -49 -38q-47 8 -47 47v96h-39q-160 -143 -328 -143h-27q-219 0 -383 219q-75 120 -75 288z" />
<glyph unicode="v" horiz-adv-x="1130" d="M29 946v12q8 45 43 46h8q41 0 78 -109l346 -709q373 788 389 805q18 12 29 13q53 -10 53 -46v-4q0 -10 -164 -350l-274 -565q-16 -14 -33 -14h-4q-47 0 -90 129q-367 751 -381 792z" />
<glyph unicode="w" horiz-adv-x="1415" d="M35 936q8 47 47 47q47 0 72 -129l186 -573h41q213 680 219 686q16 12 39 16q45 0 63 -102l195 -600h39q201 641 219 682q20 20 37 20q49 -8 49 -45l-287 -895q-18 -18 -36 -18h-5q-47 0 -71 125q-176 539 -176 571h-50l-219 -676q-14 -20 -37 -20h-2q-35 0 -51 49z" />
<glyph unicode="x" horiz-adv-x="966" d="M39 80q0 20 133 168l201 256l-330 409l-4 21q8 47 47 47q29 0 94 -96q195 -233 236 -293h26q45 45 310 379q8 8 26 10q47 -12 47 -37v-22q0 -10 -127 -160l-206 -262q334 -401 333 -412v-22q0 -31 -47 -41h-2q-31 0 -76 73l-268 330q-301 -379 -323 -395q-16 -8 -23 -8 h-2q-35 0 -45 55z" />
<glyph unicode="y" horiz-adv-x="911" d="M4 936q10 47 45 47q41 0 78 -123q223 -528 238 -581h38q281 684 291 694q16 14 31 14q45 -8 45 -41v-4q-2 -20 -344 -831q-160 -395 -174 -416q-16 -12 -29 -14q-45 10 -45 34v17q0 6 158 387v12l-332 809v-4z" />
<glyph unicode="z" horiz-adv-x="1017" d="M39 80q0 20 143 184l500 629h-549l-53 -4q-41 16 -41 47q10 47 65 47h11h641l30 4q43 -16 43 -39v-20q0 -16 -77 -101l-566 -708h600q43 -8 43 -41v-12q0 -31 -47 -41h-698q-35 0 -45 55z" />
<glyph unicode="{" d="M264 666q12 51 39 51h62q109 0 108 78v573q0 147 148 193l38 4h140q45 0 57 -39v-21q0 -27 -45 -39h-141q-98 0 -99 -100v-580q0 -41 -51 -122q55 -61 55 -127v-586q0 -86 99 -86h137q45 -8 45 -43v-17q0 -31 -49 -38h-145q-131 0 -181 147l-4 45v573q0 70 -76 86h-84 q-53 13 -53 48z" />
<glyph unicode="|" d="M430 -340v1880q8 53 49 53h6q45 -8 45 -43v-1908q0 -27 -55 -39q-33 0 -45 57z" />
<glyph unicode="}" d="M106 -170q8 49 41 49h140q96 0 96 84v563q0 78 55 146q-51 72 -51 121v579q0 84 -96 84h-144q-31 0 -41 47q8 49 46 49h153q123 0 174 -137l4 -29v-579q0 -88 111 -88h55q39 -12 39 -43v-14q0 -31 -47 -39h-78q-84 0 -84 -119v-555q0 -111 -137 -162l-41 -4h-147 q-48 6 -48 47z" />
<glyph unicode="~" d="M186 727v14q0 51 88 72q34 12 74 12h25q86 0 200 -77l45 -13h31l94 29q70 -14 70 -72q0 -74 -160 -94h-30q-84 0 -201 80l-47 10h-31l-90 -22h-4q-64 12 -64 61z" />
<glyph unicode="&#xa1;" horiz-adv-x="671" d="M215 1235q14 68 59 68h15q45 0 63 -48l6 -22q0 -59 -77 -70q-54 0 -66 72zM244 68v933q0 33 43 39q43 -6 43 -41v-927q-6 -43 -41 -43h-4q-41 10 -41 39z" />
<glyph unicode="&#xa2;" horiz-adv-x="1103" d="M47 502q0 256 248 418q125 59 231 59l60 -4q119 362 131 371q20 16 31 16h8q43 -10 43 -41v-6l-123 -361q184 -86 184 -135q-10 -47 -43 -47h-4q-18 0 -104 68l-66 22l-250 -721q74 -23 137 -22q137 0 263 104l18 6h8q31 0 41 -47v-2q0 -57 -215 -139q-70 -14 -110 -14 h-29q-49 0 -148 26q-98 -301 -108 -309l-39 -12q-45 12 -45 47q0 8 110 315q-229 170 -229 408zM141 500q0 -168 144 -297h30l238 680h-41q-227 0 -344 -240q-27 -77 -27 -143z" />
<glyph unicode="&#xa3;" horiz-adv-x="944" d="M80 694q12 55 51 56h115v34q-113 207 -113 310q0 217 227 333q68 20 103 21h39q166 0 284 -156l5 -14q-12 -53 -54 -53q-25 0 -84 65q-72 57 -151 58h-23q-170 0 -241 -201l-5 -55q0 -82 152 -342h244q53 -12 53 -50q-12 -53 -41 -53h-233l8 -53v-47q0 -125 -107 -332 l-33 -80h426q23 0 64 92q20 20 39 21q55 -12 55 -53q0 -18 -69 -148q-12 -12 -33 -12h-570q-39 0 -47 53q0 10 148 334q27 80 26 137l-6 88h-180q-49 8 -49 47z" />
<glyph unicode="&#xa4;" d="M190 451v12q0 29 86 100q-43 83 -43 135v21q0 65 43 147q-86 72 -86 97v16q12 43 39 43h21q25 0 102 -86q77 43 129 43h25q66 0 139 -43q74 86 96 86h25q43 -12 43 -47v-8q0 -27 -86 -107q41 -76 41 -145q0 -55 -41 -156q86 -68 86 -96v-12q-16 -47 -43 -48h-21 q-16 0 -94 80h-20q-61 -35 -137 -34q-45 0 -150 40q-68 -86 -98 -86h-6q-50 11 -50 48zM332 715q0 -119 137 -164h33q129 0 160 145v33q-35 147 -146 148l-12 4q-172 -28 -172 -166z" />
<glyph unicode="&#xa5;" horiz-adv-x="1261" d="M70 545q0 40 55 49h334q-139 213 -156 213h-188q-45 12 -45 45q0 41 61 47h125q-135 215 -152 215q-35 16 -34 49q0 29 53 41h166q41 0 49 -53q0 -25 -84 -49q260 -403 319 -484h33q315 457 316 500h-23q-23 16 -22 31v14q12 41 49 41h143q39 0 47 -53q0 -16 -49 -49 l-137 -203h119q61 -6 61 -45v-6q0 -31 -47 -41h-199l-139 -213h332q53 -12 53 -45v-4q0 -37 -74 -47v2h-10h-381v-434q0 -29 -51 -41q-43 0 -59 38l4 58v358l-25 21h-360l-31 -4q-53 12 -53 49z" />
<glyph unicode="&#xa6;" horiz-adv-x="768" d="M287 307q6 63 49 64q49 -12 49 -39v-694q0 -27 -53 -39q-33 0 -45 57v651zM287 874v662q8 53 47 53h6q45 -8 45 -43v-682q0 -34 -49 -43h-2q-39 0 -47 53z" />
<glyph unicode="&#xa7;" d="M162 1067v16q0 186 184 295q72 37 139 37h35q156 0 268 -137l3 -12q-6 -37 -29 -37h-19q-14 0 -79 63q-74 49 -158 49q-203 0 -266 -223v-51q0 -172 192 -252q186 -29 227 -76q117 -104 117 -215v-51q0 -104 -151 -233q178 -135 178 -301q0 -190 -180 -301 q-78 -39 -156 -39h-12q-172 0 -283 141l-2 14q0 29 47 35q12 0 68 -55q84 -61 170 -62q182 0 258 189l12 71q0 201 -221 275q-115 14 -162 43q-158 104 -158 248v18q0 143 158 252q-180 143 -180 299zM262 506q0 -152 168 -209l43 -4h25q143 0 200 168l4 43q0 164 -184 217 l-43 4q-145 0 -207 -164l-6 -41v-14z" />
<glyph unicode="&#xa8;" horiz-adv-x="1024" d="M213 1227q14 57 51 57q57 -14 58 -53q-12 -57 -54 -57q-55 12 -55 53zM664 1227q14 57 53 57q57 -14 57 -53q-12 -57 -53 -57q-57 12 -57 53z" />
<glyph unicode="&#xa9;" horiz-adv-x="1673" d="M111 719q0 338 299 569q193 127 399 127q348 0 577 -311q115 -172 115 -385q0 -373 -346 -600q-164 -94 -354 -94q-315 0 -543 270q-147 193 -147 424zM170 711q0 -338 319 -549q162 -82 320 -82q330 0 537 293q102 168 102 350q0 330 -307 543q-163 92 -314 92h-39 q-293 0 -501 -266q-117 -170 -117 -363v-18zM322 719q0 254 235 416q115 70 262 69q181 0 332 -135q8 -10 8 -22v-9q0 -41 -55 -47h-2q-6 0 -113 76q-104 41 -178 41q-242 0 -365 -248q-25 -71 -24 -135v-27q0 -195 196 -325q102 -53 193 -54q141 0 279 113l20 4 q49 -6 49 -45v-8q0 -53 -201 -137q-96 -23 -147 -23q-283 0 -440 277q-49 110 -49 219z" />
<glyph unicode="&#xaa;" horiz-adv-x="647" d="M53 1145q0 178 197 248l39 4h33q152 0 227 -168l16 -76l-4 -63v-142l4 -22q-6 -27 -28 -37h-13q-20 0 -35 24v48q-88 -72 -172 -72h-8q-182 0 -248 196q-8 19 -8 60zM129 1137q0 -129 156 -172h32q117 0 168 141l4 39q0 117 -133 172l-47 8q-121 0 -176 -135z" />
<glyph unicode="&#xab;" horiz-adv-x="942" d="M242 498q0 8 114 141q113 143 131 143l5 4h-11l23 -6v-20q0 -10 -178 -219l-37 -49q219 -250 219 -267q-2 -20 -14 -20h-13q-27 20 -237 282zM489 487v13q197 250 238 280l10 2q14 -8 15 -18v-4q0 -12 -201 -248l-10 -31q199 -233 211 -252v-12q-2 -16 -15 -16h-4 q-18 0 -84 96q-160 178 -160 190z" />
<glyph unicode="&#xac;" d="M80 674q12 53 43 53h708q49 -10 50 -47v-348q0 -31 -54 -43q-53 10 -53 51v281h-639q-55 12 -55 53z" />
<glyph unicode="&#xad;" horiz-adv-x="669" d="M68 573q14 49 51 50h399q39 0 51 -56q-12 -51 -51 -51h-399q-45 0 -51 57z" />
<glyph unicode="&#xae;" horiz-adv-x="1673" d="M74 754q0 338 301 571q193 127 401 127q350 0 584 -313q117 -178 117 -385q0 -371 -349 -602q-164 -94 -360 -95q-313 0 -545 271q-149 199 -149 426zM90 758q0 -338 326 -551q162 -82 317 -82q332 0 543 293q102 162 102 350q0 330 -309 547q-162 90 -315 90h-39 q-295 0 -504 -266q-121 -174 -121 -365v-16zM567 287v874q6 31 25 31h184q186 0 246 -193q6 -18 6 -55q0 -133 -166 -223q237 -409 246 -430q-10 -25 -21 -25h-14q-16 0 -57 86l-209 361h-189v-420q-4 -27 -16 -27h-18q-17 11 -17 21zM618 760h121q176 0 219 114 q18 39 19 80q0 121 -137 174q-25 10 -60 11h-162v-379z" />
<glyph unicode="&#xaf;" horiz-adv-x="804" d="M-82 1704q12 47 45 47h842q47 -8 47 -45v-10q-10 -47 -41 -47h-848q-39 0 -45 55z" />
<glyph unicode="&#xb0;" horiz-adv-x="673" d="M59 1163q0 106 74 180t180 74q104 0 178 -73.5t74 -180.5q0 -104 -73.5 -178t-180.5 -74q-104 0 -178 74t-74 178zM111 1161q0 -86 59 -143q63 -59 145 -60q84 0 143.5 59.5t59.5 143.5q0 82 -59 146q-57 59 -143.5 59t-145.5 -59.5t-59 -145.5z" />
<glyph unicode="&#xb1;" d="M145 285v8q0 31 48 49l43 -2h536l35 2q47 -14 47 -49v-8q0 -33 -43 -52l-61 5h-498l-62 -5q-45 15 -45 52zM145 805v6q0 39 58 51h246v219l-5 33q15 49 43 49h25q25 0 43 -47l-4 -35v-219h248q55 -8 55 -51v-6q0 -37 -47 -51l-25 4h-231v-215l4 -43q0 -35 -57 -47 q-35 0 -54 47l5 43v215h-232l-20 -4q-52 12 -52 51z" />
<glyph unicode="&#xb2;" d="M303 1335q0 104 103 172q57 29 100 29q95 0 166 -86q37 -55 37 -115q0 -94 -91 -178l-196 -223h264q27 0 33 -35v-2q-6 -33 -35 -33h-342q-35 6 -35 33v2q0 16 35 47l272 314q25 39 25 75q0 90 -94 125q-10 4 -35 4h-6q-86 0 -123 -90q-4 -14 -8 -47q-12 -25 -31 -24h-4 q-35 5 -35 32z" />
<glyph unicode="&#xb3;" d="M291 1067q0 23 39 33q25 0 30 -35q0 -76 82 -123q25 -10 58 -10q80 0 121 84q10 27 10 43v14q0 76 -84 119l-60 12q-18 15 -18 31v2q0 33 47 33q35 0 76 47q12 25 12 55q0 61 -55 90q-18 10 -47 11q-68 0 -96 -72q-6 -51 -13 -51q-12 -14 -24 -15q-37 9 -37 31v8 q0 94 94 150q29 14 78 18q78 0 137 -72q33 -45 33 -96v-8q0 -70 -66 -129q94 -70 94 -170q0 -106 -100 -176q-57 -31 -102 -31h-6q-117 0 -187 125q-16 49 -16 82z" />
<glyph unicode="&#xb4;" horiz-adv-x="888" d="M219 1110v16q0 20 133 142q109 121 140 121q45 0 55 -66q0 -28 -178 -184q-61 -76 -90 -76h-11q-49 10 -49 47z" />
<glyph unicode="&#xb5;" horiz-adv-x="1179" d="M119 -348v1282q6 59 47 59q47 -12 47 -37v-399q0 -272 158 -364q98 -74 219 -74q233 0 350 239q27 84 27 154v430q8 51 45 51q49 -12 49 -45v-887q0 -29 -49 -38h2q-47 8 -47 45v96h-39q-158 -141 -328 -141h-25q-168 0 -362 176v-564q0 -27 -51 -38q-31 0 -43 55z" />
<glyph unicode="&#xb6;" horiz-adv-x="1024" d="M70 1094q0 187 190 288q55 27 119 27h459q45 -8 45 -35v-18q0 -34 -49 -43h-33v-1235q-10 -53 -47 -53h-2q-49 9 -50 43v1245h-190v-1239q-8 -49 -47 -49h-2q-49 8 -49 47v698h-35q-174 0 -279 182q-30 68 -30 142z" />
<glyph unicode="&#xb7;" horiz-adv-x="507" d="M156 633q0 55 71 84q12 4 23 4q72 0 92 -84v-19q0 -47 -70 -77q-8 -4 -22 -4h-2q-76 0 -92 96z" />
<glyph unicode="&#x2219;" horiz-adv-x="507" d="M156 633q0 55 71 84q12 4 23 4q72 0 92 -84v-19q0 -47 -70 -77q-8 -4 -22 -4h-2q-76 0 -92 96z" />
<glyph unicode="&#xb8;" horiz-adv-x="1024" d="M332 -365q8 39 39 39h121q90 0 90 78v2q0 61 -78 76q-27 14 -27 31v110q0 33 45 41q41 -10 41 -35v-67q104 -68 105 -158q0 -127 -148 -164l-45 4h-53l-53 -4q-37 12 -37 35v12z" />
<glyph unicode="&#xb9;" d="M410 1497v10q0 25 71 41l54 17h6q31 -6 30 -31v-612q-6 -33 -32 -33h-2q-33 6 -33 29v565q-53 -16 -64 -17q-21 0 -30 31z" />
<glyph unicode="&#xba;" horiz-adv-x="716" d="M176 1231v4q0 117 43 215q61 92 152 92q104 0 164 -115q31 -96 30 -176v-39q0 -96 -41 -200q-57 -92 -149 -92h-6q-98 0 -156 104q-37 92 -37 207zM236 1223q0 -115 40 -193q39 -49 91 -49h6q111 0 129 172q2 8 6 80q0 98 -33 182q-41 66 -102 66q-78 0 -113 -84 q-25 -82 -24 -158v-16z" />
<glyph unicode="&#xbb;" horiz-adv-x="942" d="M207 211q0 12 102 131l117 145q-209 243 -215 258v15q0 12 20 14q16 0 105 -119q137 -152 137 -172q0 -14 -199 -245q-31 -45 -45 -45h-2q-20 2 -20 18zM455 205v14q0 16 202 244l9 35q-211 242 -211 254q6 27 18 26q18 0 88 -98q156 -178 156 -188v-13 q-187 -240 -240 -282h-12q-8 4 -10 8z" />
<glyph unicode="&#xbc;" horiz-adv-x="1468" d="M121 66v22q0 14 139 184q838 1094 875 1137q10 8 24 8h12q34 0 43 -49v-2q0 -27 -118 -164q-51 -72 -899 -1167q-16 -10 -31 -10q-45 12 -45 41zM162 1354q0 27 110 45q0 4 25 10q8 0 16 -14l-4 -52v-655l4 -31q-6 -18 -20 -18q-10 0 -17 10v711l-94 -23h-10 q-10 7 -10 17zM733 285v10q336 434 379 498q6 12 18.5 12t20.5 -19l-4 -32v-445h113q14 0 16 -20q-6 -16 -21 -17h-108v-235q-6 -12 -14 -12q-23 6 -23 20v227h-360q-17 5 -17 13zM795 309h315v363h-43z" />
<glyph unicode="&#xbd;" horiz-adv-x="1490" d="M111 63v23q0 12 139 186q846 1102 872 1133q8 6 25 6h10q35 0 43 -47v-2q0 -27 -119 -164q-70 -98 -895 -1163q-16 -10 -30 -10q-45 11 -45 38zM152 1350q0 25 110 43q0 6 23 12q6 0 16 -16l-2 -50v-655l4 -29q-6 -20 -20 -20q-12 0 -19 12v709l-92 -23h-8q-12 7 -12 17z M834 573q0 139 157 207l64 11q150 0 215 -168l4 -33v-39q0 -86 -150 -232l-223 -258h354l13 5l16 -5v-16q-4 -16 -12 -16h-418q-12 0 -16 22q0 2 176 195q219 244 219 278l4 29v39q-37 162 -180 162q-127 0 -183 -142q0 -51 -12 -57h-10q-12 0 -18 18z" />
<glyph unicode="&#xbe;" horiz-adv-x="1540" d="M111 868q0 6 12 13h10q18 0 21 -64q51 -135 172 -135h12q129 0 176 152l4 32q0 131 -149 183q-47 0 -47 20q6 18 34 18q96 0 127 130v28q0 88 -118 131h-27q-102 0 -141 -119v-32q-4 -10 -15 -11h-8q-14 2 -14 13v8q0 125 141 174l41 4q106 0 166 -115q12 -31 12 -53v-22 q0 -72 -90 -158q125 -88 125 -201q0 -158 -176 -217l-49 -4h-6q-147 0 -209 176zM213 63v23q0 16 137 186q813 1061 869 1125q10 8 24 8h12q34 0 43 -49q0 -25 -120 -164q-84 -117 -891 -1157q-16 -10 -29 -10q-45 11 -45 38zM819 283v10q307 391 377 493q8 12 16 13 q12 0 21 -19l-2 -32v-441h110q14 0 17 -20q-6 -16 -21 -17h-106v-233q-6 -12 -17 -12q-20 2 -20 20v225h-358q-17 5 -17 13zM881 307h313v359h-43z" />
<glyph unicode="&#xbf;" horiz-adv-x="976" d="M27 82q0 229 233 371q113 102 113 272q18 25 41 25q53 -10 53 -48v-6q0 -242 -236 -381q-109 -102 -108 -241q0 -180 188 -279q71 -25 123 -24q180 0 275 174q27 47 36 145q20 27 41 27q53 -12 54 -47q0 -193 -197 -336q-108 -61 -209 -62q-201 0 -334 176 q-73 105 -73 234zM342 977q14 78 74 78h10q61 0 74 -80q-16 -74 -76 -74h-4q-66 0 -78 76z" />
<glyph unicode="&#xc0;" horiz-adv-x="1218" d="M0 72l127 344q342 891 367 970q23 27 41 27q51 0 77 -123q459 -1190 461 -1212v-10q0 -34 -49 -43q-47 0 -72 110l-178 461h-475l-213 -557q-16 -14 -33 -14h-4q-49 8 -49 47zM340 694h387v33l-172 449h-37zM406 1714q12 47 47 47h6q35 0 114 -116q53 -55 54 -76 q-10 -53 -45 -53h-17q-20 0 -121 137q-38 32 -38 61z" />
<glyph unicode="&#xc1;" horiz-adv-x="1210" d="M0 72l127 342q332 860 365 968q20 25 40 25q49 0 78 -123q457 -1188 459 -1206v-10q0 -34 -49 -43q-47 0 -72 110l-176 459h-475l-211 -555q-16 -14 -33 -14h-4q-49 8 -49 47zM338 690h385v35l-170 444h-37zM430 1559v2q0 27 111 149q29 43 57 43q49 -8 49 -39v-14 q0 -23 -74 -103q-57 -88 -90 -88h-12q-33 1 -41 50z" />
<glyph unicode="&#xc2;" horiz-adv-x="1210" d="M0 72l127 342q332 860 365 968q20 25 40 25q49 0 78 -123q457 -1188 459 -1206v-10q0 -34 -49 -43q-47 0 -72 110l-176 459h-475l-211 -555q-16 -14 -33 -14h-4q-49 8 -49 47zM338 690h385v35l-170 444h-37zM358 1554q0 23 111 150q27 43 55 43h31q23 0 107 -113 q53 -55 53 -82v-2q-6 -49 -47 -49h-6q-35 0 -109 115h-31q-80 -115 -106 -115h-10q-38 0 -48 53z" />
<glyph unicode="&#xc3;" horiz-adv-x="1214" d="M0 72l127 342q332 860 365 968q20 25 40 25q49 0 78 -123q457 -1188 459 -1206v-10q0 -34 -49 -43q-47 0 -72 110l-176 459h-475l-211 -555q-16 -14 -33 -14h-4q-49 8 -49 47zM299 1597v9q0 49 117 61l12 2q72 0 178 -70l45 -4l78 23q49 -8 49 -47v-4q0 -51 -100 -66 l-37 -4q-70 0 -172 72l-41 6l-82 -23q-47 8 -47 45zM338 690h385v35l-170 444h-37z" />
<glyph unicode="&#xc4;" horiz-adv-x="1224" d="M0 72l127 342q332 860 365 968q20 25 40 25q49 0 78 -123q457 -1188 459 -1206v-10q0 -34 -49 -43q-47 0 -72 110l-176 459h-475l-211 -555q-16 -14 -33 -14h-4q-49 8 -49 47zM338 690h385v35l-170 444h-37zM342 1610v10q0 29 47 39h4q47 -10 47 -39v-10q0 -39 -51 -47 q-47 10 -47 47zM629 1606v14q12 39 43 39h14q31 0 39 -55q0 -29 -49 -41q-47 10 -47 43z" />
<glyph unicode="&#xc5;" horiz-adv-x="1218" d="M0 72l127 342q334 866 365 970q23 27 43 27q51 0 77 -123q455 -1182 459 -1210v-10q0 -35 -47 -43h-2q-47 0 -72 110l-176 461h-475l-213 -557q-16 -14 -33 -14h-4q-49 8 -49 47zM340 692h385v35l-170 447h-39zM371 1647q0 111 129 155l30 4h15q104 0 149 -127l4 -32v-11 q0 -100 -123 -149l-38 -8q-96 0 -152 100q-14 35 -14 68zM436 1642q18 -96 101 -96q94 14 94 94v13q-16 88 -88 88h-13q-80 -1 -94 -99z" />
<glyph unicode="&#xc6;" horiz-adv-x="1564" d="M0 82q0 14 240 432l489 883q14 12 27 12h594q27 0 39 -47q-8 -49 -52 -49h-524v-619h412q47 -10 47 -35v-20q0 -33 -49 -41h-410v-475h528q37 0 48 -53q0 -33 -54 -45h-571q-37 0 -47 53v520h-316q-27 -33 -176 -309l-141 -250q-14 -14 -33 -14h-4q-39 0 -47 57zM451 694 h266v473z" />
<glyph unicode="&#xc7;" horiz-adv-x="1398" d="M12 727q0 350 324 576q172 104 352 104q211 0 385 -127q12 -14 12 -29q-8 -51 -49 -51q-8 0 -123 62q-129 47 -225 47q-274 0 -475 -252q-102 -170 -102 -330q0 -319 303 -512q133 -70 268 -70h10q168 0 332 103l12 2h2q47 -10 47 -45v-4q0 -74 -272 -142l-88 -10v-108 q113 -76 113 -170q0 -135 -158 -174l-49 4h-58l-57 -4q-41 16 -41 36v15q9 43 43 43h129q96 0 96 80v4q0 63 -84 80q-27 12 -26 30v164q-166 16 -328 117q-293 227 -293 561z" />
<glyph unicode="&#xc8;" horiz-adv-x="1038" d="M0 72v1286q6 49 72 49v-2l-9 2h746l14 4q41 0 49 -57q-8 -43 -59 -43h-717v-561h482l53 4q29 0 41 -54q0 -31 -41 -49l-70 4h-465v-532h738q31 0 36 -53q-12 -45 -41 -45h-780q-49 8 -49 47zM283 1757q16 47 47 47h8q33 0 113 -116q55 -57 55 -76q-10 -53 -47 -53h-15 q-23 0 -122 137q-39 32 -39 61z" />
<glyph unicode="&#xc9;" d="M0 72v1286q6 49 72 49v-2l-9 2h746l14 4q41 0 49 -57q-8 -43 -59 -43h-717v-561h482l53 4q29 0 41 -54q0 -31 -41 -49l-70 4h-465v-532h738q31 0 36 -53q-12 -45 -41 -45h-780q-49 8 -49 47zM283 1616q0 18 112 145q27 43 56 43h2q53 -10 53 -51q0 -22 -86 -117 q-55 -78 -76 -77h-20q-33 0 -41 57z" />
<glyph unicode="&#xca;" d="M0 72v1286q6 49 72 49v-2l-9 2h746l14 4q41 0 49 -57q-8 -43 -59 -43h-717v-561h482l53 4q29 0 41 -54q0 -31 -41 -49l-70 4h-465v-532h738q31 0 36 -53q-12 -45 -41 -45h-780q-49 8 -49 47zM268 1565v12q0 20 148 180l22 4h17q33 0 98 -92q70 -76 70 -92v-12 q-10 -47 -35 -47h-27q-20 0 -119 131q-88 -131 -112 -131h-27q-25 0 -35 47z" />
<glyph unicode="&#xcb;" horiz-adv-x="1026" d="M0 72v1286q6 49 72 49v-2l-9 2h746l14 4q41 0 49 -57q-8 -43 -59 -43h-717v-561h482l53 4q29 0 41 -54q0 -31 -41 -49l-70 4h-465v-532h738q31 0 36 -53q-12 -45 -41 -45h-780q-49 8 -49 47zM238 1628v12q0 29 47 39h4q47 -10 47 -39v-12q0 -37 -51 -47q-47 10 -47 47z M524 1624v16q12 39 43 39h17q29 0 39 -57q0 -29 -52 -41q-47 10 -47 43z" />
<glyph unicode="&#xcc;" horiz-adv-x="655" d="M111 72q10 51 39 51h47v1182h-39q-41 0 -47 55v4q0 27 47 41l14 -2h145l13 2q51 -12 51 -47q-10 -53 -47 -53h-41v-1182h49q29 0 39 -51v2q-8 -49 -47 -49h-174q-49 8 -49 47zM143 1733v20q0 29 54 39q33 0 100 -98q63 -70 63 -97q-8 -51 -49 -51q-31 0 -86 80 q-82 95 -82 107z" />
<glyph unicode="&#xcd;" horiz-adv-x="655" d="M139 72v2q8 49 39 49h49v1186h-41q-41 0 -47 55v2q0 28 49 43l15 -2h145l12 2q51 -10 52 -47q-10 -53 -47 -53h-41v-1186h49q29 0 39 -49q-10 -49 -47 -49h-177q-49 8 -49 47zM182 1616q0 12 113 143q29 43 53 43h2q53 -10 53 -51q0 -18 -86 -115q-55 -78 -73 -77h-23 q-31 0 -39 57z" />
<glyph unicode="&#xce;" horiz-adv-x="655" d="M100 1561v4q0 25 109 145q33 47 51 47h31q35 0 117 -119q51 -51 51 -71q-10 -53 -47 -54h-9q-33 0 -94 95l-41 30q-82 -125 -114 -125h-4q-50 11 -50 48zM145 72v2q10 49 39 49h47v1186h-38q-41 0 -48 57v2q0 27 48 41l16 -2h145l13 2q49 -12 49 -47q-10 -53 -45 -53h-41 v-1186h47q29 0 39 -49q-10 -49 -45 -49h-176q-50 8 -50 47z" />
<glyph unicode="&#xcf;" horiz-adv-x="655" d="M80 1610q12 49 39 49h12q45 -8 45 -37v-18q0 -33 -47 -43q-49 8 -49 49zM139 72q10 51 39 51h49v1182h-41q-41 0 -47 55v4q0 25 49 41l15 -2h145l12 2q49 -8 50 -47q-10 -53 -45 -53h-41v-1182h47q31 0 39 -49q-8 -49 -45 -49h-177q-49 8 -49 47zM367 1608v12q0 31 45 39 h6q45 -8 45 -39v-12q0 -39 -49 -47q-47 10 -47 47z" />
<glyph unicode="&#xd0;" horiz-adv-x="1273" d="M0 723v14q0 29 49 39h103v576q10 51 38 51h224l32 2q317 0 547 -279q139 -193 140 -415q0 -358 -338 -592q-170 -94 -346 -94h-252q-33 0 -45 47v608h-107q-45 8 -45 43zM248 123h178q378 0 553 344q55 117 55 248q0 322 -297 514q-126 80 -393 80h-96v-533h305 q47 -8 47 -43v-8q-8 -45 -43 -45h-309v-557z" />
<glyph unicode="&#xd1;" horiz-adv-x="1286" d="M0 72v1286q8 49 39 49h14q33 0 60 -55l848 -1090h40v1100q8 45 43 45h13q35 0 43 -47v-1286q-10 -49 -47 -49h-4q-37 0 -97 96l-856 1089v-1142q0 -35 -47 -43h-2q-35 0 -47 47zM299 1604v6q0 49 119 61l14 4q70 0 176 -69l47 -7l72 23h6q49 -6 49 -45v-4q0 -51 -102 -66 l-37 -4q-70 0 -172 72l-41 4l-82 -23q-49 9 -49 48z" />
<glyph unicode="&#xd2;" horiz-adv-x="1517" d="M0 717q0 326 291 555q193 131 397 131q350 0 584 -324q104 -184 104 -368q0 -344 -311 -574q-182 -113 -369 -112h-14q-354 0 -582 331q-100 164 -100 361zM96 707q0 -287 250 -480q156 -106 336 -106h18q276 0 469 248q111 160 111 346q0 322 -293 508q-145 84 -299 84 q-295 0 -485 -256q-107 -151 -107 -344zM582 1747q12 49 39 49h22q20 0 82 -86q78 -88 78 -104q-10 -53 -51 -54h-2q-35 0 -103 105q-65 65 -65 90z" />
<glyph unicode="&#xd3;" horiz-adv-x="1531" d="M0 719q0 330 291 557q188 131 399 131q346 0 586 -326q104 -184 104 -368q0 -344 -313 -576q-176 -113 -369 -112h-16q-354 0 -582 331q-100 164 -100 363zM96 709q0 -286 252 -480q156 -106 334 -106h20q276 0 472 246q111 160 110 348q0 323 -295 510q-143 82 -299 82 q-295 0 -485 -254q-109 -156 -109 -346zM584 1610q0 27 104 137q33 53 55 53h13q49 -10 49 -45q0 -29 -121 -160q-18 -37 -53 -36q-39 0 -47 51z" />
<glyph unicode="&#xd4;" horiz-adv-x="1521" d="M0 717q0 326 291 555q193 131 397 131q350 0 584 -324q104 -184 104 -368q0 -344 -311 -574q-182 -113 -369 -112h-14q-354 0 -582 331q-100 164 -100 361zM96 707q0 -287 250 -480q156 -106 336 -106h18q276 0 469 248q111 160 111 346q0 322 -293 508q-145 84 -299 84 q-295 0 -485 -256q-107 -151 -107 -344zM508 1587q0 22 110 148q31 43 56 43h31q20 0 104 -113q53 -55 53 -80v-2q-8 -47 -47 -47h-6q-33 0 -107 111h-30q-80 -111 -107 -111h-12q-37 0 -45 51z" />
<glyph unicode="&#xd5;" horiz-adv-x="1527" d="M0 717q0 326 291 555q193 131 397 131q350 0 584 -324q104 -184 104 -368q0 -344 -311 -574q-182 -113 -369 -112h-14q-354 0 -582 331q-100 164 -100 361zM96 707q0 -287 250 -480q156 -106 336 -106h18q276 0 469 248q111 160 111 346q0 322 -293 508q-145 84 -299 84 q-295 0 -485 -256q-107 -151 -107 -344zM442 1675v11q0 35 66 51q31 10 57 10h19q63 0 155 -61l37 -11h25l73 23q49 -9 50 -49q0 -53 -121 -70h-25q-61 0 -155 63l-37 9h-25l-72 -19q-47 10 -47 43z" />
<glyph unicode="&#xd6;" horiz-adv-x="1538" d="M0 719q0 330 291 557q188 131 399 131q346 0 586 -326q104 -184 104 -368q0 -344 -313 -576q-176 -113 -369 -112h-16q-354 0 -582 331q-100 164 -100 363zM96 709q0 -286 252 -480q156 -106 334 -106h20q276 0 472 246q111 160 110 348q0 323 -295 510q-143 82 -299 82 q-295 0 -485 -254q-109 -156 -109 -346zM428 1620v22q0 29 57 39q27 0 39 -51q-12 -51 -41 -51q-55 12 -55 41zM854 1620v22q0 29 57 39q27 0 39 -51q-12 -51 -43 -51q-53 12 -53 41z" />
<glyph unicode="&#xd7;" d="M221 420v24q0 33 94 111l80 86q-174 170 -174 182v27q12 63 62 63h16q33 0 133 -118l64 -54q168 172 180 172h39q39 0 55 -69q0 -45 -154 -180l-14 -13v-26q164 -147 164 -174l4 -17q-14 -70 -70 -69q-40 0 -141 116l-67 62q-156 -174 -193 -174h-20q-58 18 -58 51z" />
<glyph unicode="&#xd8;" horiz-adv-x="1560" d="M0 82q0 18 121 121q4 10 55 47q-176 225 -176 467q0 326 291 555q190 129 397 129q258 0 494 -207q160 162 178 162h6q47 -12 47 -45v-8q0 -33 -96 -105l-76 -76q135 -205 135 -413q0 -340 -311 -572q-182 -113 -369 -112h-14q-225 0 -428 153h-23q-152 -150 -165 -149 l-19 -4h-2q-35 0 -45 57zM96 707q0 -203 152 -385l848 796v29q-190 158 -408 158q-295 0 -485 -254q-107 -151 -107 -344zM309 252q186 -131 373 -131h16q279 0 471 248q111 157 111 344q0 160 -96 329h-29z" />
<glyph unicode="&#xd9;" horiz-adv-x="1101" d="M0 535v819q8 49 39 49h12q45 -8 45 -37v-801q0 -272 160 -368q98 -74 219 -74q238 0 354 242q25 74 25 155v834q9 49 43 49h10q45 -8 45 -43v-879q0 -211 -204 -370q-129 -86 -261 -86h-26q-221 0 -385 219q-76 121 -76 291zM369 1741v8q0 33 53 45q33 0 119 -123 q47 -47 47 -69v-9q0 -37 -53 -47q-29 0 -111 117q-55 55 -55 78z" />
<glyph unicode="&#xda;" horiz-adv-x="1105" d="M0 535v819q8 49 39 49h12q45 -8 45 -37v-801q0 -272 160 -368q98 -74 219 -74q238 0 354 242q25 74 25 155v834q9 49 43 49h10q45 -8 45 -43v-879q0 -211 -204 -370q-129 -86 -261 -86h-26q-221 0 -385 219q-76 121 -76 291zM369 1593v9q0 25 90 120q47 72 78 72 q51 -10 51 -45v-8q0 -25 -90 -121q-47 -74 -76 -74q-53 12 -53 47z" />
<glyph unicode="&#xdb;" horiz-adv-x="1122" d="M0 537v823q8 49 39 49h12q45 -8 45 -37v-805q0 -273 160 -368q96 -76 221 -76q238 0 357 242q25 78 24 157v838q9 49 43 49h10q45 -8 45 -43v-883q0 -213 -206 -372q-129 -86 -261 -86h-26q-221 0 -387 221q-76 121 -76 291zM309 1575v2q0 27 133 172q0 16 47 23h9 q37 0 116 -115q55 -58 56 -80q-12 -51 -41 -51h-19q-29 0 -90 92q0 2 -2 4l-14 14h-27l-86 -102l-22 -8h-17q-34 0 -43 49z" />
<glyph unicode="&#xdc;" horiz-adv-x="1126" d="M0 537v823q8 49 39 49h12q45 -8 45 -37v-805q0 -273 160 -368q96 -76 221 -76q238 0 357 242q25 78 24 157v838q9 49 43 49h10q45 -8 45 -43v-883q0 -213 -206 -372q-129 -86 -261 -86h-26q-221 0 -387 221q-76 121 -76 291zM285 1616v10q0 31 45 39h6q45 -8 45 -39v-10 q0 -39 -49 -47q-47 10 -47 47zM571 1612v14q12 39 43 39h15q33 0 41 -55q0 -29 -54 -41q-45 8 -45 43z" />
<glyph unicode="&#xdd;" horiz-adv-x="1105" d="M0 1360q12 49 39 49h16q31 0 56 -59l354 -531h31q381 573 389 580q16 10 18 10h25q27 0 39 -51q0 -23 -125 -193l-312 -463v-618q-6 -59 -38 -59h-17q-31 0 -43 41v616q0 20 -164 264l-266 402zM406 1583q0 16 110 146q31 43 57 43q53 -10 54 -50q0 -22 -86 -116 q-55 -78 -74 -78h-23q-30 0 -38 55z" />
<glyph unicode="&#xde;" horiz-adv-x="1099" d="M20 78v1274q6 59 39 59h13q47 -10 47 -37v-305h413q279 0 371 -240q18 -55 19 -102v-18q0 -184 -181 -297q-90 -45 -157 -45l-27 4h-438v-303q0 -34 -49 -43h-2q-38 0 -48 53zM119 469h459q180 0 241 205l4 45q0 174 -184 242q-49 12 -117 12h-403v-504z" />
<glyph unicode="&#xdf;" horiz-adv-x="1060" d="M20 84v938q0 264 250 360q49 18 84 19h41q166 0 283 -158q63 -94 63 -203q0 -88 -59 -206v-46q0 -46 129 -190q84 -106 84 -219v-17q0 -201 -211 -309q-68 -29 -131 -28h-4q-172 0 -277 141l-2 16q12 47 47 47h7q23 0 73 -57q78 -51 156 -51q174 0 238 186l8 58v10 q0 102 -117 225q-100 102 -100 205q0 55 51 166q8 18 8 57v35q0 133 -147 217q-49 25 -117 25q-184 0 -254 -203l-6 -113v-913q0 -34 -49 -43h-2q-38 0 -46 51z" />
<glyph unicode="&#xe0;" horiz-adv-x="1146" d="M29 504q0 264 260 418q113 53 215 53q270 0 426 -264q49 -108 49 -222v-423q0 -31 -47 -41h-2q-27 0 -43 34v-2l2 93v61q-193 -186 -371 -186h-29q-242 0 -401 243q-59 119 -59 236zM121 496q0 -229 233 -351q76 -29 135 -28h29q195 0 322 194q47 94 47 178v15 q0 223 -223 342q-77 37 -160 37h-4q-233 0 -355 -246q-25 -77 -24 -129v-12zM436 1305v16q0 27 39 39h21q20 0 127 -139q23 -27 22 -43v-9q0 -34 -49 -43q-27 0 -80 78q-80 91 -80 101z" />
<glyph unicode="&#xe1;" horiz-adv-x="1112" d="M0 504q0 264 260 418q113 53 215 53q270 0 426 -264q47 -102 47 -222v-423q0 -33 -45 -41h-2q-29 0 -45 34v-2l4 93v61q-193 -186 -371 -186h-28q-242 0 -402 243q-59 119 -59 236zM92 496q0 -229 234 -351q76 -29 135 -28h28q195 0 322 194q45 90 45 178v15 q0 225 -221 342q-77 37 -160 37h-4q-233 0 -354 -246q-25 -77 -25 -129v-12zM408 1174v4q0 27 106 145q29 41 51 41q51 -12 51 -43v-8q0 -20 -73 -107q-51 -80 -94 -80h-5q-24 1 -36 48z" />
<glyph unicode="&#xe2;" horiz-adv-x="1138" d="M0 506q0 268 262 422q109 51 215 51q272 0 428 -264q49 -109 49 -223v-426q0 -31 -47 -41h-2q-29 0 -45 34v-2l4 93v63q-199 -188 -372 -188h-29q-244 0 -404 243q-59 119 -59 238zM92 498q0 -231 236 -353q72 -27 135 -26h29q197 0 321 194q47 94 47 179v14 q0 225 -221 344q-78 37 -162 37h-4q-236 0 -356 -248q-25 -78 -25 -129v-12zM303 1176q0 29 98 133q37 57 60 57l2 -2h22l4 2q33 0 97 -96q63 -66 63 -92q-10 -49 -47 -50q-35 0 -98 95l-10 14h-35q-70 -109 -105 -109q-51 11 -51 48z" />
<glyph unicode="&#xe3;" horiz-adv-x="1120" d="M0 508q0 268 262 424q109 51 217 51q274 0 430 -266q49 -106 49 -223v-428q0 -31 -47 -41h-2q-29 0 -45 34l4 93v61q-195 -188 -374 -188h-29q-246 0 -406 245q-59 113 -59 238zM92 500q0 -233 238 -355q74 -27 135 -26h29q199 0 323 194q47 92 47 181v14q0 227 -223 346 q-76 37 -162 37h-4q-236 0 -356 -250q-27 -84 -27 -129v-12zM264 1257v13q0 35 64 49q31 10 55 10h18q66 0 154 -61l35 -8h24l72 20q47 -8 47 -47q0 -52 -117 -68h-22q-61 0 -154 62l-34 8h-25l-72 -18h-2q-43 7 -43 40z" />
<glyph unicode="&#xe4;" horiz-adv-x="1134" d="M0 506q0 268 262 422q109 51 215 51q272 0 428 -264q49 -109 49 -223v-426q0 -31 -47 -41h-2q-29 0 -45 34v-2l4 93v63q-199 -188 -372 -188h-29q-244 0 -404 243q-59 119 -59 238zM92 498q0 -231 236 -353q72 -27 135 -26h29q197 0 321 194q47 94 47 179v14 q0 225 -221 344q-78 37 -162 37h-4q-236 0 -356 -248q-25 -78 -25 -129v-12zM289 1174v10q0 27 45 37h4q45 -10 45 -37v-10q0 -35 -49 -46q-45 9 -45 46zM567 1169v15q12 37 41 37h17q29 0 37 -54q0 -27 -50 -39q-45 10 -45 41z" />
<glyph unicode="&#xe5;" horiz-adv-x="1130" d="M0 506q0 268 262 422q109 51 215 51q272 0 428 -264q49 -109 49 -223v-426q0 -31 -47 -41h-2q-29 0 -45 34v-2l4 93v63q-199 -188 -372 -188h-29q-244 0 -404 243q-59 119 -59 238zM92 498q0 -231 236 -353q72 -27 135 -26h29q197 0 321 194q47 94 47 179v14 q0 225 -221 344q-78 37 -162 37h-4q-236 0 -356 -248q-25 -78 -25 -129v-12zM334 1262v10q0 104 131 147l29 2q88 0 141 -96q14 -31 14 -65q0 -104 -123 -150l-32 -4h-13q-100 0 -143 125zM397 1249q20 -80 84 -80h15q78 0 90 95q-16 96 -97 96q-92 -16 -92 -92v-19z" />
<glyph unicode="&#xe6;" horiz-adv-x="1959" d="M0 508q0 266 260 420q109 51 215 51q249 0 418 -246h31q92 160 270 221q76 20 143 21q268 0 420 -256q51 -104 51 -201v-45q-10 -47 -45 -47h-790v-33q39 -131 149 -207q102 -66 211 -65q94 0 205 55l10 2q49 -12 49 -47q0 -72 -219 -102l-51 -4q-178 0 -377 182v-137 q0 -39 -53 -45h-2q-22 0 -37 36l4 84v70q-195 -186 -373 -186h-28q-242 0 -402 243q-59 119 -59 236zM92 500q0 -229 234 -350q80 -29 135 -29h28q195 0 322 194q47 94 47 179v14q0 224 -221 344q-72 35 -162 35h-4q-233 0 -354 -246q-25 -77 -25 -129v-12zM961 518h747v31 q0 106 -125 237q-121 92 -250 93q-201 0 -323 -187q-49 -90 -49 -174z" />
<glyph unicode="&#xe7;" horiz-adv-x="985" d="M8 498q0 231 205 387q129 86 268 86q182 0 330 -135q6 -8 6 -23q-8 -45 -45 -45h-4q-18 0 -102 63q-94 45 -172 46h-23q-227 0 -344 -238q-27 -78 -27 -143q0 -231 238 -353q68 -27 151 -26q133 0 261 104l18 4h8q33 0 41 -45v-2q0 -55 -215 -139l-94 -12v-84 q109 -72 108 -164q0 -135 -153 -172l-49 4h-58l-53 -4q-41 16 -41 37v12q8 43 41 43h127q94 0 94 80v4q0 59 -82 78q-27 12 -26 30v138q-106 14 -232 100q-176 158 -176 369z" />
<glyph unicode="&#xe8;" horiz-adv-x="1126" d="M0 502q0 260 248 418q123 59 225 59q274 0 428 -262q53 -102 53 -221v-19q-8 -49 -45 -49h-807q59 -188 209 -270q92 -35 170 -35q94 0 201 53h12q43 -8 43 -41v-10q0 -70 -239 -100h-25q-254 0 -410 241q-63 113 -63 236zM96 520h758q0 111 -94 238q-127 121 -256 121 h-41q-193 0 -311 -185q-44 -74 -56 -174zM408 1300v15q0 29 36 41h23q20 0 127 -142q23 -27 22 -40v-9q0 -35 -49 -45q-29 0 -82 78q-77 86 -77 102z" />
<glyph unicode="&#xe9;" horiz-adv-x="1116" d="M0 502q0 260 248 418q123 59 225 59q274 0 428 -262q53 -102 53 -221v-19q-8 -49 -45 -49h-807q59 -188 209 -270q92 -35 170 -35q94 0 201 53h12q43 -8 43 -41v-10q0 -70 -239 -100h-25q-254 0 -410 241q-63 113 -63 236zM96 520h758q0 111 -94 238q-127 121 -256 121 h-41q-193 0 -311 -185q-44 -74 -56 -174zM408 1167v7q0 27 106 145q29 41 51 41q51 -12 51 -45v-6q0 -23 -75 -107q-53 -82 -92 -82h-5q-26 0 -36 47z" />
<glyph unicode="&#xea;" horiz-adv-x="1142" d="M0 502q0 260 248 418q123 59 225 59q274 0 428 -262q53 -102 53 -221v-19q-8 -49 -45 -49h-807q59 -188 209 -270q92 -35 170 -35q94 0 201 53h12q43 -8 43 -41v-10q0 -70 -239 -100h-25q-254 0 -410 241q-63 113 -63 236zM96 520h758q0 111 -94 238q-127 121 -256 121 h-41q-193 0 -311 -185q-44 -74 -56 -174zM303 1176q0 29 98 133q37 57 60 57l2 -2h22l4 2q33 0 97 -96q63 -66 63 -92q-10 -49 -47 -50q-35 0 -98 95l-10 14h-35q-70 -109 -105 -109q-51 11 -51 48z" />
<glyph unicode="&#xeb;" horiz-adv-x="1120" d="M0 502q0 258 248 416q123 59 223 59q274 0 428 -260q53 -102 53 -223v-17q-10 -51 -45 -51h-805q58 -187 209 -270q92 -35 168 -35q94 0 201 55h12q43 -8 43 -41v-10q0 -70 -239 -100h-25q-256 0 -410 239q-61 113 -61 238zM96 520h756q0 111 -94 236q-127 121 -256 121 h-41q-186 0 -309 -185q-44 -74 -56 -172zM289 1169v13q0 27 45 37h4q43 -9 43 -37v-13q0 -37 -47 -45q-45 10 -45 45zM567 1165v17q12 37 39 37h17q28 0 36 -56q0 -25 -49 -37q-43 6 -43 39z" />
<glyph unicode="&#xec;" horiz-adv-x="512" d="M80 1264v14q0 29 39 41h20q20 0 127 -141q25 -29 25 -43v-7q0 -35 -51 -45q-27 0 -80 78q-80 89 -80 103zM164 76v842q6 61 45 61q47 -12 47 -39v-874q0 -33 -45 -41h-2q-35 0 -45 51z" />
<glyph unicode="&#xed;" horiz-adv-x="512" d="M121 1135v6q0 23 106 143q31 43 52 43q53 -12 53 -45v-6q0 -23 -76 -107q-55 -82 -94 -82h-4q-29 1 -37 48zM164 76v846q6 59 47 59q45 -12 45 -37v-878q0 -33 -45 -41h-2q-37 0 -45 51z" />
<glyph unicode="&#xee;" horiz-adv-x="512" d="M31 1130q0 29 96 134q39 59 61 59l5 -2h22l2 2q29 0 96 -98q66 -72 66 -92q-8 -51 -49 -52q-33 0 -99 101l-16 10h-29q-71 -111 -104 -111q-51 8 -51 49zM160 76v850q6 61 45 61q49 -12 49 -39v-880q0 -33 -47 -43h-2q-37 0 -45 51z" />
<glyph unicode="&#xef;" horiz-adv-x="512" d="M20 1198v12q0 28 43 37h7q43 -9 43 -37v-12q0 -37 -47 -45q-46 8 -46 45zM164 76v846q6 61 45 61q47 -12 47 -39v-878q0 -33 -45 -41h-2q-37 0 -45 51zM299 1194v16q12 37 43 37h12q31 0 39 -53q0 -29 -51 -41q-43 10 -43 41z" />
<glyph unicode="&#xf0;" horiz-adv-x="1116" d="M0 502q0 233 207 391q133 86 268 86l129 -14v39l-94 145q-152 -94 -166 -94h-14q-27 0 -37 47v2q0 35 96 80l72 43q-51 76 -51 88v14q12 37 41 37h16q20 0 76 -88q162 100 180 100h4q43 -10 43 -41v-14q0 -31 -168 -117v-26l283 -435q70 -121 69 -243q0 -266 -254 -420 q-115 -57 -213 -57h-28q-193 0 -359 182q-100 139 -100 295zM96 496q0 -213 207 -334q76 -39 164 -39h20q223 0 342 229q27 72 27 144v16q0 156 -135 285q-106 86 -248 86q-246 0 -356 -254q-20 -61 -21 -117v-16z" />
<glyph unicode="&#xf1;" horiz-adv-x="1107" d="M0 76v842q6 59 45 59q47 -12 47 -37v-135q195 172 373 172q195 0 346 -164q113 -141 113 -287v-465q0 -27 -47 -36q-47 10 -48 45v409q0 291 -254 385q-66 16 -110 17h-10q-215 0 -330 -219q-33 -72 -33 -211v-385q0 -31 -47 -41q-35 0 -45 51zM256 1266v12q0 33 63 47 q31 10 56 10h16q66 0 152 -59l37 -10h24l72 20q47 -10 47 -47q0 -51 -117 -65h-24q-61 0 -152 61l-35 8h-24l-70 -18h-2q-43 8 -43 41z" />
<glyph unicode="&#xf2;" horiz-adv-x="1116" d="M0 502q0 233 207 391q132 86 270 86q186 0 334 -139q143 -150 143 -338q0 -266 -254 -420q-115 -57 -213 -57h-28q-193 0 -359 182q-100 139 -100 295zM96 496q0 -213 207 -334q76 -39 164 -39h20q223 0 342 229q27 72 27 144v16q0 180 -162 303q-98 68 -221 68 q-246 0 -356 -254q-20 -61 -21 -117v-16zM410 1313v12q0 29 39 41h20q23 0 129 -139q23 -23 23 -43v-8q0 -35 -52 -43q-27 0 -80 77q-79 89 -79 103z" />
<glyph unicode="&#xf3;" horiz-adv-x="1116" d="M0 500q0 233 205 389q132 86 270 86q180 0 332 -139q141 -152 141 -336q0 -266 -252 -420q-106 -55 -211 -55h-28q-190 0 -357 182q-100 139 -100 293zM96 492q0 -213 205 -332q76 -39 164 -39h20q223 0 340 229q29 76 29 142v18q0 180 -164 301q-98 68 -219 68 q-244 0 -354 -254q-20 -61 -21 -115v-18zM408 1174v4q0 27 106 145q29 41 51 41q51 -12 51 -43v-8q0 -20 -73 -107q-51 -80 -94 -80h-5q-24 1 -36 48z" />
<glyph unicode="&#xf4;" horiz-adv-x="1116" d="M0 500q0 233 205 389q132 86 270 86q180 0 332 -139q141 -152 141 -336q0 -266 -252 -420q-106 -55 -211 -55h-28q-190 0 -357 182q-100 139 -100 293zM96 492q0 -213 205 -332q76 -39 164 -39h20q223 0 340 229q29 76 29 142v18q0 180 -164 301q-98 68 -219 68 q-244 0 -354 -254q-20 -61 -21 -115v-18zM303 1169q0 29 96 131q37 59 60 60l4 -2h22l2 2q29 0 95 -96q63 -66 63 -93q-10 -49 -47 -49q-33 0 -96 97l-15 14h-30q-72 -111 -103 -111q-51 8 -51 47z" />
<glyph unicode="&#xf5;" horiz-adv-x="1116" d="M0 502q0 233 207 391q132 86 270 86q186 0 334 -139q143 -150 143 -338q0 -266 -254 -420q-115 -57 -213 -57h-28q-193 0 -359 182q-100 139 -100 295zM96 496q0 -213 207 -334q76 -39 164 -39h20q223 0 342 229q27 72 27 144v16q0 180 -162 303q-98 68 -221 68 q-246 0 -356 -254q-20 -61 -21 -117v-16zM264 1253v11q0 34 62 49q31 10 57 10h16q66 0 152 -59l37 -11h24l70 23q47 -10 47 -47q0 -53 -115 -68h-22q-66 0 -152 60l-37 10h-24l-70 -19h-2q-43 8 -43 41z" />
<glyph unicode="&#xf6;" horiz-adv-x="1112" d="M0 500q0 233 205 389q132 86 270 86q180 0 332 -139q141 -152 141 -336q0 -266 -252 -420q-106 -55 -211 -55h-28q-190 0 -357 182q-100 139 -100 293zM96 492q0 -213 205 -332q76 -39 164 -39h20q223 0 340 229q29 76 29 142v18q0 180 -164 301q-98 68 -219 68 q-244 0 -354 -254q-20 -61 -21 -115v-18zM289 1167v11q0 28 43 36h6q43 -9 43 -36v-11q0 -37 -49 -45q-43 8 -43 45zM565 1163v15q12 37 41 36h15q29 0 36 -53q0 -27 -49 -39q-43 6 -43 41z" />
<glyph unicode="&#xf7;" d="M150 717v14q0 31 53 43h604q53 -10 53 -49v-12q0 -31 -49 -43h-612q-49 10 -49 47zM422 408v20q0 57 82 76h6q66 0 78 -90v-2q0 -59 -82 -78q-84 19 -84 74zM422 1024v4q18 80 76 80h4q70 0 86 -78v-10q-18 -80 -76 -80h-6q-84 10 -84 84z" />
<glyph unicode="&#xf8;" horiz-adv-x="1167" d="M49 82q0 18 107 119q-106 145 -107 299q0 229 207 387q129 86 268 86q133 0 287 -101q92 115 127 115h4q35 0 43 -53q0 -15 -111 -123q123 -152 123 -311q0 -268 -254 -420q-108 -55 -208 -55h-29q-131 0 -291 110q-88 -106 -115 -106h-14q-27 0 -37 53zM145 492 q0 -96 62 -207h29l503 520q-102 72 -219 72q-244 0 -354 -252q-20 -61 -21 -115v-18zM283 199q127 -78 229 -78h23q223 0 339 229q27 72 27 142v18q0 117 -92 233z" />
<glyph unicode="&#xf9;" horiz-adv-x="1107" d="M0 518v397q6 61 45 62q47 -12 47 -39v-389q0 -266 154 -359q92 -72 215 -71q231 0 346 233q23 70 22 152v422q8 51 45 51q47 -12 48 -45v-871q0 -27 -48 -36h3q-47 10 -48 45v94h-38q-156 -139 -320 -139h-25q-213 0 -372 213q-74 114 -74 280zM410 1309v14q0 29 36 41 h23q18 0 127 -141q23 -27 22 -41v-8q0 -35 -49 -46q-29 0 -82 78q-77 87 -77 103z" />
<glyph unicode="&#xfa;" horiz-adv-x="1103" d="M0 522v400q6 59 45 59q47 -12 47 -37v-393q0 -264 156 -358q96 -74 217 -74q229 0 346 235q23 70 23 154v424q10 49 45 49q49 -12 49 -43v-877q0 -27 -47 -36q-47 10 -47 45v96h-39q-154 -141 -320 -141h-26q-215 0 -375 213q-74 114 -74 284zM412 1182v4q0 25 106 145 q31 43 53 43q51 -12 52 -45v-6q0 -23 -76 -106q-55 -82 -94 -82h-4q-25 0 -37 47z" />
<glyph unicode="&#xfb;" horiz-adv-x="1112" d="M0 524v402q6 61 45 61q49 -12 49 -39v-393q0 -268 156 -362q94 -74 217 -74q229 0 346 237q25 77 25 154v426q8 51 47 51q47 -12 47 -47v-877q0 -29 -47 -38q-47 10 -47 45v96h-39q-154 -141 -322 -141h-26q-217 0 -377 215q-74 112 -74 284zM305 1186q0 23 101 133 q35 59 57 59l4 -4h27l4 4q25 0 92 -98q66 -72 65 -92q-8 -51 -49 -51q-34 0 -98 98l-14 12h-31q-71 -111 -105 -110q-53 10 -53 49z" />
<glyph unicode="&#xfc;" horiz-adv-x="1107" d="M0 518v400q6 59 45 59q47 -12 47 -37v-391q0 -266 154 -359q92 -72 217 -71q230 0 344 233q23 70 22 154v420q8 51 48 51q47 -12 47 -43v-873q0 -27 -47 -36q-47 10 -48 45v94h-36q-156 -139 -322 -139h-25q-213 0 -372 213q-74 114 -74 280zM289 1171v11q0 27 45 37h4 q45 -10 45 -37v-11q0 -37 -49 -45q-45 8 -45 45zM567 1167v15q12 37 41 37h15q29 0 36 -54q0 -27 -49 -39q-43 8 -43 41z" />
<glyph unicode="&#xfd;" horiz-adv-x="989" d="M18 938q8 49 50 49q43 0 82 -129q240 -573 249 -610h41q289 709 305 729q16 14 31 14q51 -8 51 -45q-4 -31 -360 -876q-170 -422 -186 -441q-12 -10 -29 -12q-49 10 -49 37v18q0 14 164 406v12l-349 850v-2zM430 1190v4q0 23 109 143q31 43 51 43q49 -12 49 -45v-6 q0 -23 -76 -106q-55 -82 -92 -82h-4q-28 0 -37 49z" />
<glyph unicode="&#xfe;" horiz-adv-x="1130" d="M10 -342v1655q6 55 37 55h12q43 -8 43 -33v-540q195 186 387 186q186 0 334 -139q145 -152 146 -338q0 -270 -256 -424q-106 -55 -213 -55h-29q-164 0 -369 182v-563q0 -27 -51 -39q-29 0 -41 53zM106 496q0 -213 209 -334q76 -39 162 -39h23q225 0 344 231q27 72 26 142 v18q0 182 -163 303q-98 68 -222 68q-248 0 -358 -254q-20 -61 -21 -117v-18z" />
<glyph unicode="&#xff;" horiz-adv-x="989" d="M10 922q10 49 47 49q45 0 82 -129q233 -555 248 -609h41q291 709 305 728q14 14 31 14q49 -8 49 -45q-4 -25 -358 -873q-174 -426 -185 -438q-12 -9 -30 -12q-47 8 -47 35v18q0 12 163 403v15l-346 846v-2zM236 1167v13q0 27 45 37h4q45 -10 45 -37v-13q0 -37 -49 -45 q-45 8 -45 45zM514 1163v15q12 39 41 39h14q28 0 37 -56q0 -25 -49 -37q-43 6 -43 39z" />
<glyph unicode="&#x100;" horiz-adv-x="1183" d="M0 72l127 340q340 887 362 964q23 27 41 27q49 0 78 -121q457 -1184 459 -1204v-10q0 -34 -49 -43h-2q-45 0 -70 110l-176 457h-473l-211 -553q-16 -14 -33 -14h-6q-47 8 -47 47zM72 1624q12 47 45 47h841q47 -10 48 -45v-8q-10 -47 -41 -47h-848q-39 0 -45 53zM338 688 h383v35l-168 444h-39z" />
<glyph unicode="&#x101;" horiz-adv-x="1198" d="M43 514q0 270 266 430q117 53 219 53q279 0 439 -270q49 -108 49 -227v-432q0 -34 -49 -43h-2q-31 0 -45 36v-2l4 93v63q-200 -190 -381 -190h-29q-246 0 -412 249q-59 117 -59 240zM74 1225q12 47 45 47h842q47 -10 47 -45v-10q-10 -47 -41 -48h-848q-39 1 -45 56z M137 508q0 -238 240 -358q80 -29 137 -29h29q201 0 329 198q47 98 48 181v14q0 231 -228 352q-76 35 -164 35h-4q-244 0 -362 -250q-25 -78 -25 -133v-10z" />
<glyph unicode="&#x102;" horiz-adv-x="1200" d="M0 72l127 340q340 887 362 964q23 27 41 27q49 0 78 -121q457 -1184 459 -1204v-10q0 -34 -49 -43h-2q-45 0 -70 110l-176 457h-473l-211 -553q-16 -14 -33 -14h-6q-47 8 -47 47zM279 1714v17q10 51 47 51h12q33 0 61 -74q66 -72 142 -72q121 0 170 123q23 23 39 23h6 q53 -10 53 -51v-5q0 -70 -143 -170q-68 -25 -121 -24h-8q-176 0 -258 182zM338 688h383v35l-168 444h-39z" />
<glyph unicode="&#x103;" horiz-adv-x="1116" d="M0 514q0 270 266 430q117 53 221 53q276 0 437 -270q49 -108 49 -227v-432q0 -35 -47 -43h-2q-31 0 -47 36v-2l4 93v63q-201 -190 -379 -190h-31q-246 0 -412 249q-59 117 -59 240zM96 508q0 -238 240 -358q80 -29 135 -29h31q199 0 327 198q47 98 48 181v14 q0 233 -226 352q-76 35 -164 35h-4q-244 0 -362 -250q-25 -78 -25 -133v-10zM233 1323v16q8 49 48 50h12q33 0 61 -72q66 -72 144 -72q119 0 168 123q20 20 39 21h6q53 -10 53 -52v-4q0 -70 -143 -170q-68 -25 -119 -24h-8q-179 0 -261 184z" />
<glyph unicode="&#x104;" horiz-adv-x="1337" d="M4 53l129 348q336 872 371 985q25 25 43 25q47 0 76 -111q479 -1243 479 -1263l4 -29v-92q0 -43 -68 -53q-49 -28 -49 -74v-8q0 -63 82 -74h146q49 -9 49 -49q-8 -51 -39 -51h-162q-126 0 -172 141l-6 43q0 96 119 172v37q-20 78 -215 586h-484l-215 -566 q-16 -14 -31 -14h-6q-51 10 -51 47zM350 684h391v35l-174 452h-37z" />
<glyph unicode="&#x105;" horiz-adv-x="1239" d="M4 498q0 272 268 432q111 51 220 51q281 0 440 -270q49 -111 49 -228v-567q0 -39 -76 -55q-37 -29 -37 -60v-22q15 -68 80 -68h144q39 0 47 -49q-12 -47 -39 -47h-158q-123 0 -170 141l-4 41q0 90 119 166l2 156v78q-200 -190 -381 -191h-31q-248 0 -411 250 q-62 121 -62 242zM100 489q0 -238 240 -360q74 -27 137 -27h31q201 0 330 199q47 92 47 182v15q0 231 -228 352q-80 37 -165 37h-3q-244 0 -364 -252q-25 -78 -25 -133v-13z" />
<glyph unicode="&#x106;" horiz-adv-x="1249" d="M0 719q0 358 330 586q174 106 358 106q217 0 397 -129q10 -20 11 -27v-8q0 -41 -56 -47h2l-127 66q-145 45 -227 45q-280 0 -485 -258q-102 -174 -103 -334q0 -330 310 -522q137 -70 272 -70h10q180 0 344 104h13q47 -10 47 -43v-10q0 -59 -236 -131q-80 -23 -160 -22 h-18q-344 0 -573 317q-109 187 -109 377zM537 1559v16q0 20 133 141q109 121 139 121q45 0 53 -63q0 -31 -176 -187q-61 -76 -90 -76h-10q-49 9 -49 48z" />
<glyph unicode="&#x107;" horiz-adv-x="972" d="M0 512q0 240 211 401q133 88 276 88q188 0 340 -141q6 -8 7 -20v-2q-10 -49 -46 -50h-4q-18 0 -106 68q-88 45 -178 45h-23q-231 0 -352 -244q-29 -86 -29 -147q0 -238 244 -360q76 -29 156 -29q139 0 266 106l20 6h11q31 0 41 -49q0 -59 -222 -145q-72 -14 -112 -14h-31 q-197 0 -365 186q-104 147 -104 301zM326 1163v17q0 20 133 141q109 121 139 121q43 0 53 -66q0 -29 -176 -184q-61 -76 -90 -76h-10q-49 10 -49 47z" />
<glyph unicode="&#x108;" horiz-adv-x="1253" d="M0 719q0 358 330 586q174 106 358 106q217 0 397 -129q10 -20 11 -27v-8q0 -41 -56 -47h2l-127 66q-145 45 -227 45q-280 0 -485 -258q-102 -174 -103 -334q0 -330 310 -522q137 -70 272 -70h10q180 0 344 104h13q47 -10 47 -43v-10q0 -59 -236 -131q-80 -23 -160 -22 h-18q-344 0 -573 317q-109 187 -109 377zM471 1575v10q0 25 117 154q33 51 59 51h29q33 0 117 -121q57 -57 57 -84v-8q-10 -49 -47 -49h-12q-33 0 -115 119h-31q-82 -119 -115 -119h-8q-51 10 -51 47z" />
<glyph unicode="&#x109;" horiz-adv-x="980" d="M0 512q0 240 211 401q133 88 276 88q188 0 340 -141q6 -8 7 -20v-2q-10 -49 -46 -50h-4q-18 0 -106 68q-88 45 -178 45h-23q-231 0 -352 -244q-29 -86 -29 -147q0 -238 244 -360q76 -29 156 -29q139 0 266 106l20 6h11q31 0 41 -49q0 -59 -222 -145q-72 -14 -112 -14h-31 q-197 0 -365 186q-104 147 -104 301zM309 1208v13q0 27 115 153q31 49 59 49h29q35 0 117 -118q57 -57 57 -84v-9q-10 -51 -47 -51h-10q-33 0 -117 121h-29q-84 -121 -114 -121h-11q-49 10 -49 47z" />
<glyph unicode="&#x10a;" horiz-adv-x="1257" d="M0 719q0 358 330 586q174 106 358 106q217 0 397 -129q10 -20 11 -27v-8q0 -41 -56 -47h2l-127 66q-145 45 -227 45q-280 0 -485 -258q-102 -174 -103 -334q0 -330 310 -522q137 -70 272 -70h10q180 0 344 104h13q47 -10 47 -43v-10q0 -59 -236 -131q-80 -23 -160 -22 h-18q-344 0 -573 317q-109 187 -109 377zM600 1665q0 57 72 86q12 4 22 4q68 0 90 -86v-16q0 -47 -67 -78q-8 -4 -23 -4h-4q-76 0 -90 94z" />
<glyph unicode="&#x10b;" horiz-adv-x="972" d="M0 512q0 240 211 401q133 88 276 88q188 0 340 -141q6 -8 7 -20v-2q-10 -49 -46 -50h-4q-18 0 -106 68q-88 45 -178 45h-23q-231 0 -352 -244q-29 -86 -29 -147q0 -238 244 -360q76 -29 156 -29q139 0 266 106l20 6h11q31 0 41 -49q0 -59 -222 -145q-72 -14 -112 -14h-31 q-197 0 -365 186q-104 147 -104 301zM416 1266q0 57 69 84q12 4 25 4q70 0 90 -84v-19q0 -47 -68 -77q-8 -4 -22 -5h-4q-74 1 -90 97z" />
<glyph unicode="&#x10c;" horiz-adv-x="1239" d="M0 719q0 358 330 586q174 106 358 106q217 0 397 -129q10 -20 11 -27v-8q0 -41 -56 -47h2l-127 66q-145 45 -227 45q-280 0 -485 -258q-102 -174 -103 -334q0 -330 310 -522q137 -70 272 -70h10q180 0 344 104h13q47 -10 47 -43v-10q0 -59 -236 -131q-80 -23 -160 -22 h-18q-344 0 -573 317q-109 187 -109 377zM483 1729v10q8 49 47 49h13q31 0 114 -121h31q84 121 115 121h8q51 -10 51 -47v-12q0 -25 -92 -123q-53 -80 -84 -80h-27q-33 0 -112 114q-64 64 -64 89z" />
<glyph unicode="&#x10d;" horiz-adv-x="989" d="M0 512q0 240 211 401q133 88 276 88q188 0 340 -141q6 -8 7 -20v-2q-10 -49 -46 -50h-4q-18 0 -106 68q-88 45 -178 45h-23q-231 0 -352 -244q-29 -86 -29 -147q0 -238 244 -360q76 -29 156 -29q139 0 266 106l20 6h11q31 0 41 -49q0 -59 -222 -145q-72 -14 -112 -14h-31 q-197 0 -365 186q-104 147 -104 301zM291 1356v8q8 49 47 49h12q33 0 115 -119h31q82 119 114 119h8q51 -10 52 -47v-10q0 -27 -92 -125q-53 -80 -84 -80h-27q-33 0 -115 117q-61 61 -61 88z" />
<glyph unicode="&#x10e;" horiz-adv-x="1161" d="M0 72v1292q6 47 72 47v-2l-9 2h197l41 4q315 0 543 -270q145 -188 145 -432q0 -332 -293 -559q-184 -129 -391 -129h-256q-49 8 -49 47zM98 123h189q375 0 557 364q47 125 47 238q0 273 -240 473q-152 121 -440 121h-113v-1196zM250 1735v8q8 49 47 49h12q33 0 115 -119 h31q82 119 114 119h9q51 -10 51 -45v-12q0 -27 -92 -125q-51 -78 -84 -78h-27q-35 0 -115 115q-61 61 -61 88z" />
<glyph unicode="&#x10f;" horiz-adv-x="1341" d="M0 518q0 240 213 404q133 88 281 88q188 0 395 -187v486l-4 55q16 43 39 43h12q45 -8 45 -37v-747l4 -127q0 -139 -115 -295q-164 -176 -366 -176h-31q-197 0 -369 188q-104 147 -104 305zM96 510q0 -248 258 -367q68 -20 127 -20h23q242 0 364 258q20 76 21 121v22 q0 246 -264 369q-76 20 -125 20h-15q-240 0 -362 -254q-27 -80 -27 -131v-18zM1077 1024q61 143 62 242v12q0 70 -49 152v10q8 49 38 49h29q61 0 86 -213v-19q0 -117 -133 -227q-18 -10 -25 -10z" />
<glyph unicode="&#x110;" horiz-adv-x="1302" d="M4 768q10 53 47 53h133v543q6 47 72 47v-2l-8 2h196l43 4q313 0 541 -270q145 -188 146 -432q0 -332 -293 -559q-184 -129 -392 -129h-256q-49 8 -49 47v649h-73l-60 -4q-47 18 -47 51zM283 123h188q375 0 557 364q47 125 47 238q0 273 -239 473q-152 121 -441 121h-112 v-498h209l36 4q35 0 50 -57q0 -33 -48 -51l-55 4h-192v-598z" />
<glyph unicode="&#x111;" horiz-adv-x="1341" d="M31 518q0 240 213 404q133 88 280 88q188 0 396 -187v359h-138l-57 -4q-47 18 -47 53q10 53 72 53h14h158l-7 80q14 43 39 43h13q45 -8 45 -37v-86h153l35 4q37 0 51 -57q0 -35 -47 -53l-55 4h-137v-559l4 -127q0 -139 -115 -295q-164 -176 -366 -176h-29 q-199 0 -371 188q-104 147 -104 305zM127 510q0 -248 258 -367q68 -20 127 -20h23q242 0 364 258q20 76 21 121v22q0 246 -265 369q-76 20 -125 20h-14q-240 0 -362 -254q-27 -80 -27 -131v-18z" />
<glyph unicode="&#x112;" horiz-adv-x="1099" d="M14 1655q12 47 45 47h842q47 -8 47 -45v-10q-10 -47 -41 -48h-848q-39 1 -45 56zM57 72v1286q6 49 72 49v-2l-8 2h745l15 4q41 0 47 -57q-10 -43 -58 -43h-716v-561h479l53 4q31 0 43 -54q0 -31 -41 -49l-70 4h-464v-532h737q27 0 37 -53q-12 -45 -41 -45h-781 q-49 8 -49 47z" />
<glyph unicode="&#x113;" horiz-adv-x="1103" d="M0 502q0 260 248 418q123 59 225 59q274 0 428 -262q53 -102 53 -221v-19q-8 -49 -45 -49h-807q59 -188 209 -270q92 -35 170 -35q94 0 201 53h12q43 -8 43 -41v-10q0 -70 -239 -100h-25q-254 0 -410 241q-63 113 -63 236zM14 1245q12 47 45 47h842q47 -10 47 -45v-10 q-8 -45 -41 -45h-848q-39 0 -45 53zM96 520h758q0 111 -94 238q-127 121 -256 121h-41q-193 0 -311 -185q-44 -74 -56 -174z" />
<glyph unicode="&#x114;" horiz-adv-x="1050" d="M35 72v1286q6 49 71 49v-2l-8 2h746l14 4q41 0 49 -57q-10 -43 -57 -43h-719v-561h481l54 4q29 0 41 -54q0 -31 -41 -49l-68 4h-467v-532h737q31 0 37 -53q-12 -45 -41 -45h-780q-49 8 -49 47zM219 1733v16q10 49 47 49h13q35 0 63 -72q66 -72 141 -71q119 0 168 123 q20 20 39 20h6q53 -10 54 -49v-4q0 -70 -144 -170q-74 -27 -119 -27h-8q-176 1 -260 185z" />
<glyph unicode="&#x115;" horiz-adv-x="1099" d="M8 502q0 260 248 418q123 59 225 59q276 0 430 -262q51 -100 52 -221v-19q-8 -49 -45 -49h-807q59 -188 211 -270q92 -35 167 -35q94 0 201 53h15q43 -8 43 -41v-10q0 -70 -242 -100h-25q-254 0 -409 241q-64 113 -64 236zM106 520h756q0 111 -94 238q-127 121 -256 121 h-41q-188 0 -309 -185q-44 -74 -56 -174zM229 1346v16q8 49 47 49h13q33 0 61 -72q66 -72 142 -71q121 0 170 123q20 20 38 20h7q53 -10 53 -51v-4q0 -70 -144 -170q-68 -25 -120 -25h-9q-175 1 -258 185z" />
<glyph unicode="&#x116;" horiz-adv-x="1069" d="M31 72v1286q6 49 71 49v-2l-8 2h746l14 4q41 0 49 -57q-10 -43 -57 -43h-719v-561h481l54 4q29 0 40 -54q0 -31 -40 -49l-68 4h-467v-532h737q31 0 37 -53q-12 -45 -41 -45h-780q-49 8 -49 47zM385 1671q0 55 72 84q12 4 22 4q70 0 90 -84v-18q0 -47 -67 -78 q-8 -4 -23 -4h-4q-74 0 -90 96z" />
<glyph unicode="&#x117;" horiz-adv-x="1103" d="M23 502q0 261 245 418q123 59 228 59q274 0 428 -262q53 -102 53 -221v-19q-10 -49 -45 -49h-807q59 -188 209 -270q92 -35 170 -35q92 0 198 53h15q43 -8 43 -41v-10q0 -70 -242 -100h-22q-254 0 -410 241q-63 113 -63 236zM119 520h758q0 111 -95 238 q-127 121 -258 121h-41q-188 0 -309 -185q-43 -74 -55 -174zM424 1235q0 57 72 86q6 2 22 2q70 0 90 -84v-18q0 -47 -67 -78q-8 -4 -23 -4h-4q-74 0 -90 96z" />
<glyph unicode="&#x118;" horiz-adv-x="1050" d="M31 72v1286q6 49 71 49v-2l-8 2h746l14 4q41 0 49 -57q-10 -43 -57 -43h-719v-561h481l54 4q29 0 40 -54q0 -31 -40 -49l-68 4h-467v-532h737q31 0 37 -53q-12 -45 -41 -45h-184q6 -34 6 -37v-101q0 -37 -66 -47q-41 -29 -41 -69q0 -78 93 -78h104l12 4q45 -8 45 -41v-8 q0 -29 -34 -41l-70 4h-37l-55 -4q-58 0 -123 80q-20 39 -21 69v29q0 82 107 139v21l-6 80h-510q-49 8 -49 47z" />
<glyph unicode="&#x119;" horiz-adv-x="1120" d="M23 502q0 261 245 418q123 59 228 59q274 0 428 -262q53 -102 53 -221v-19q-10 -49 -45 -49h-807q59 -188 209 -270q92 -35 170 -35q92 0 198 53h15q43 -8 43 -41v-10q0 -49 -158 -86q2 -8 5 -16.5t4 -12.5l1 -4v-100q0 -37 -65 -47q-41 -29 -41 -70q0 -78 92 -78h104 l13 2q45 -8 45 -41v-6q0 -31 -35 -43l-70 4h-37l-57 -4q-55 0 -121 82q-20 39 -20 70v28q0 82 104 140v20l-4 62h-24q-254 0 -410 241q-63 113 -63 236zM119 520h758q0 111 -95 238q-127 121 -258 121h-41q-188 0 -309 -185q-43 -74 -55 -174z" />
<glyph unicode="&#x11a;" horiz-adv-x="1064" d="M35 72v1286q6 49 71 49v-2l-8 2h746l14 4q41 0 49 -57q-10 -43 -57 -43h-719v-561h481l54 4q29 0 41 -54q0 -31 -41 -49l-68 4h-467v-532h737q31 0 37 -53q-12 -45 -41 -45h-780q-49 8 -49 47zM285 1735v8q10 49 47 49h12q33 0 115 -119h30q82 119 115 119h8 q51 -10 52 -45v-12q0 -27 -93 -125q-51 -78 -84 -78h-26q-35 0 -115 115q-61 61 -61 88z" />
<glyph unicode="&#x11b;" horiz-adv-x="1134" d="M43 502q0 260 248 418q123 59 225 59q276 0 430 -262q51 -100 51 -221v-19q-10 -49 -45 -49h-807q59 -188 211 -270q92 -35 168 -35q94 0 201 53h14q43 -8 43 -41v-10q0 -70 -241 -100h-25q-254 0 -410 241q-63 113 -63 236zM141 520h756q0 113 -92 238 q-127 121 -258 121h-41q-190 0 -309 -185q-44 -74 -56 -174zM342 1337v11q10 49 47 49h12q33 0 115 -119h31q82 119 115 119h10q49 -8 49 -47v-13q0 -27 -90 -123q-53 -80 -84 -79h-29q-33 0 -112 114q-64 63 -64 88z" />
<glyph unicode="&#x11c;" horiz-adv-x="1284" d="M35 719q0 348 309 575q190 117 369 117q221 0 395 -121q10 -12 10 -30v-5q0 -39 -51 -47q-3 0 -135 62q-92 37 -180 37h-62q-223 0 -424 -213q-131 -176 -131 -369v-14q0 -305 285 -500q150 -84 297 -84h14q145 0 305 86v383h-295q-49 10 -49 47q8 49 47 49h353 q34 0 43 -49v-416q0 -76 -33 -92q-187 -111 -363 -110h-22q-344 0 -574 317q-108 180 -108 377zM508 1595v13q0 27 115 153q31 49 59 49h29q35 0 116 -118q57 -57 58 -84v-9q-10 -51 -47 -51h-13q-31 0 -114 121h-29q-84 -121 -117 -121h-8q-49 8 -49 47z" />
<glyph unicode="&#x11d;" horiz-adv-x="1165" d="M23 512q0 236 208 395q131 88 277 88q217 0 373 -180q111 -152 110 -280l-4 -127v-449q0 -115 -182 -256q-137 -90 -297 -90q-264 0 -440 237q-29 51 -29 60v10q0 31 45 39h6q33 0 64 -80q143 -180 354 -180q252 0 381 233l8 54v227q-201 -184 -379 -184h-31 q-193 0 -360 184q-104 143 -104 299zM119 506q0 -246 254 -363q63 -20 123 -20h22q240 0 359 254q20 86 20 121v22q0 243 -258 363q-80 18 -125 18h-14q-238 0 -359 -250q-23 -66 -22 -129v-16zM328 1214v13q0 25 114 151q33 51 60 52h28q35 0 117 -119q57 -57 58 -84v-10 q-8 -49 -48 -50h-12q-33 0 -115 119h-28q-82 -119 -117 -119h-8q-49 8 -49 47z" />
<glyph unicode="&#x11e;" horiz-adv-x="1245" d="M23 719q0 348 309 575q190 117 368 117q219 0 394 -121q12 -15 12 -30v-5q0 -37 -53 -47q-3 0 -135 62q-92 37 -181 37h-59q-223 0 -424 -213q-131 -176 -131 -369v-14q0 -305 285 -500q150 -84 297 -84h14q145 0 305 86v383h-297q-47 8 -47 47q8 49 45 49h352 q34 0 43 -49v-416q0 -77 -30 -92q-188 -111 -365 -110h-20q-344 0 -574 317q-108 180 -108 377zM418 1716v17q8 49 47 49h12q33 0 62 -72q66 -72 143 -72q119 0 168 123q20 20 39 21h6q53 -10 53 -51v-5q0 -70 -143 -170q-68 -25 -121 -24h-6q-178 0 -260 184z" />
<glyph unicode="&#x11f;" horiz-adv-x="1138" d="M37 512q0 236 209 395q131 88 274 88q219 0 375 -180q109 -147 109 -280l-5 -127v-449q0 -115 -182 -256q-137 -90 -297 -90q-264 0 -440 237q-29 51 -29 60v10q0 31 45 39h8q33 0 64 -80q143 -180 352 -180q252 0 381 233l8 54v227q-201 -184 -379 -184h-28 q-194 0 -363 184q-102 141 -102 299zM131 506q0 -246 254 -363q63 -20 125 -20h20q242 0 361 254q18 78 18 121v22q0 243 -258 363q-80 18 -125 18h-14q-236 0 -356 -250q-25 -71 -25 -129v-16zM264 1346v16q10 49 47 49h13q33 0 61 -72q66 -72 141 -71q121 0 170 123 q20 20 39 20h6q53 -10 54 -51v-4q0 -70 -144 -170q-68 -25 -121 -25h-8q-175 1 -258 185z" />
<glyph unicode="&#x120;" horiz-adv-x="1271" d="M27 719q0 348 309 575q190 117 369 117q219 0 393 -121q12 -15 12 -30v-5q0 -37 -53 -47q-3 0 -135 62q-92 37 -181 37h-59q-223 0 -424 -213q-131 -176 -131 -369v-14q0 -305 285 -500q150 -84 297 -84h14q145 0 305 86v383h-297q-47 8 -47 47q8 49 45 49h352 q34 0 43 -49v-416q0 -77 -30 -92q-188 -111 -365 -110h-20q-344 0 -574 317q-108 180 -108 377zM631 1679q0 55 71 84q12 4 23 4q70 0 90 -84v-18q0 -47 -67 -78q-8 -4 -23 -4h-2q-76 0 -92 96z" />
<glyph unicode="&#x121;" horiz-adv-x="1148" d="M45 512q0 236 209 395q131 88 274 88q219 0 375 -180q111 -152 111 -280l-4 -127v-449q0 -115 -183 -256q-137 -90 -299 -90q-264 0 -440 237q-29 51 -29 60v10q0 31 45 39h9q33 0 63 -80q143 -180 352 -180q252 0 381 233l9 54v227q-201 -184 -377 -184h-31 q-194 0 -363 184q-102 141 -102 299zM139 506q0 -246 254 -363q63 -20 125 -20h23q240 0 358 254q18 78 19 121v22q0 243 -259 363q-80 18 -122 18h-15q-238 0 -358 -250q-25 -71 -25 -129v-16zM461 1292q0 59 69 86q12 4 25 4q68 0 90 -86v-16q0 -49 -67 -80q-8 -4 -23 -4 h-4q-74 0 -90 96z" />
<glyph unicode="&#x122;" horiz-adv-x="1275" d="M35 719q0 348 309 575q190 117 369 117q221 0 395 -121q10 -12 10 -30v-5q0 -39 -51 -47q-3 0 -135 62q-92 37 -180 37h-62q-223 0 -424 -213q-131 -176 -131 -369v-14q0 -305 285 -500q150 -84 297 -84h14q145 0 305 86v383h-295q-49 10 -49 47q8 49 47 49h353 q34 0 43 -49v-416q0 -76 -33 -92q-166 -98 -344 -110v-68q102 -66 102 -156q0 -127 -145 -163l-47 4h-54l-53 -4q-37 12 -37 34v13q8 39 39 39h121q90 0 90 77v2q0 61 -78 76q-25 12 -24 31v117q-319 31 -529 315q-108 180 -108 377z" />
<glyph unicode="&#x123;" horiz-adv-x="1183" d="M57 512q0 236 209 395q131 88 277 88q217 0 372 -180q111 -152 111 -280l-4 -127v-449q0 -115 -182 -256q-137 -90 -297 -90q-264 0 -441 237q-29 51 -28 60v10q0 31 45 39h8q31 0 61 -80q143 -180 355 -180q252 0 381 233l8 54v227q-199 -184 -379 -184h-31 q-190 0 -360 184q-105 143 -105 299zM154 506q0 -246 254 -363q63 -20 122 -20h23q240 0 358 254q20 86 21 121v22q0 243 -258 363q-80 18 -125 18h-14q-238 0 -359 -250q-23 -66 -22 -129v-16zM449 1399q0 121 131 231l32 12q2 0 2 -6v-2q-59 -143 -59 -250q0 -68 47 -147 l4 -14q0 -41 -61 -54q-71 1 -96 230z" />
<glyph unicode="&#x124;" horiz-adv-x="1175" d="M41 78v1272q6 59 39 59h10q47 -10 47 -37v-622h762v610q9 49 43 49h8q45 -8 45 -43v-1303q0 -31 -49 -38q-47 8 -47 47v585h-762v-589q0 -34 -49 -43h-2q-35 0 -45 53zM358 1595v13q0 27 115 153q31 49 59 49h29q35 0 117 -118q57 -57 57 -84v-9q-10 -51 -47 -51h-10 q-33 0 -117 121h-29q-84 -121 -114 -121h-10q-50 8 -50 47z" />
<glyph unicode="&#x125;" horiz-adv-x="1073" d="M35 72v1284q10 49 39 49h12q45 -8 45 -35v-516q180 156 336 156q237 0 381 -228q53 -94 53 -186v-528q0 -35 -47 -43h-2q-35 0 -47 47v501q0 221 -227 320q-51 14 -111 14q-227 0 -320 -239q-16 -55 -16 -166v-434q0 -35 -47 -43h-2q-35 0 -47 47zM317 1511v13 q0 27 115 153q31 49 62 49h26q37 0 119 -118q57 -57 57 -84v-8q-10 -51 -47 -52h-12q-31 0 -115 121h-30q-84 -121 -115 -121h-8q-52 10 -52 47z" />
<glyph unicode="&#x126;" horiz-adv-x="1302" d="M18 1110q12 55 95 55v2l24 -2v185q6 59 39 59h12q45 -8 45 -37v-207h762v195q9 49 43 49h11q45 -8 45 -43v-201l49 4q57 0 76 -59q0 -31 -64 -51l-61 4v-1000q0 -29 -52 -38h2q-49 8 -49 47v585h-762v-589q0 -35 -47 -43h-2q-37 0 -47 53v983l-51 -2q-68 18 -68 51z M233 750h762v313h-762v-313z" />
<glyph unicode="&#x127;" horiz-adv-x="1329" d="M31 1208q10 53 71 54v2l15 -2h174v94q8 49 39 49h12q45 -8 45 -35v-108h453l34 4q39 0 52 -58q0 -35 -45 -53l-62 4h-432v-305q180 156 336 156q237 0 381 -228q53 -94 53 -186v-528q0 -35 -47 -43h-2q-35 0 -47 47v501q0 221 -227 320q-51 14 -111 14q-227 0 -320 -239 q-16 -55 -16 -166v-434q0 -35 -47 -43h-2q-35 0 -47 47v1087h-154l-59 -4q-47 18 -47 53z" />
<glyph unicode="&#x128;" horiz-adv-x="620" d="M39 1640v9q0 49 119 61l12 4q72 0 178 -69l43 -7l78 25h2q49 -8 49 -47v-4q0 -49 -102 -66l-35 -4q-70 0 -172 72l-41 4l-82 -23q-49 10 -49 45zM123 72v2q8 51 39 51h49v1196h-41q-41 0 -47 55v4q0 27 47 41l16 -2h146l12 2q51 -8 51 -47q-10 -53 -47 -53h-41v-1196h49 q31 0 39 -51q-10 -49 -47 -49h-178q-47 8 -47 47z" />
<glyph unicode="&#x129;" horiz-adv-x="614" d="M39 1231v8q0 49 119 61l12 5q72 0 178 -70l43 -6l78 22h2q49 -10 49 -47v-4q0 -47 -102 -63l-35 -4q-72 0 -172 69l-41 6l-82 -22q-49 10 -49 45zM221 78v864q6 63 47 64q49 -12 49 -39v-899q0 -34 -49 -43h-2q-35 0 -45 53z" />
<glyph unicode="&#x12a;" horiz-adv-x="681" d="M23 1636q10 53 71 54h15h401l37 4q33 0 49 -60q0 -33 -47 -51l-55 4h-367l-57 -4q-47 18 -47 53zM166 72v2q8 51 41 51h47v1196h-41q-41 0 -47 55v4q0 25 49 41l14 -2h148l12 2q51 -8 51 -47q-10 -53 -47 -53h-41v-1196h47q33 0 41 -51q-10 -49 -47 -49h-178 q-49 8 -49 47z" />
<glyph unicode="&#x12b;" horiz-adv-x="743" d="M43 1231q10 53 74 53h12h403l35 4q37 0 51 -57q0 -35 -47 -53l-55 4h-366l-60 -4q-47 18 -47 53zM274 78v864q6 63 48 64q49 -12 49 -39v-899q0 -34 -49 -43h-3q-35 0 -45 53z" />
<glyph unicode="&#x12c;" horiz-adv-x="645" d="M31 1741v16q10 49 47 49h10q35 0 64 -71q66 -72 141 -72q121 0 170 123q20 20 39 20h6q51 -8 51 -51v-4q0 -72 -141 -170q-68 -25 -121 -25h-8q-175 1 -258 185zM152 72v2q8 51 41 51h47v1196h-41q-41 0 -47 55v4q0 25 49 41l14 -2h147l13 2q51 -8 51 -47 q-10 -53 -47 -53h-41v-1196h47q33 0 41 -51q-8 -49 -47 -49h-178q-49 8 -49 47z" />
<glyph unicode="&#x12d;" horiz-adv-x="645" d="M23 1331v17q10 49 47 49h12q33 0 61 -72q66 -72 142 -72q121 0 170 123q20 20 39 21h6q53 -10 53 -51v-5q0 -70 -143 -170q-68 -25 -121 -24h-8q-175 0 -258 184zM221 78v864q6 63 47 64q49 -12 49 -39v-899q0 -34 -49 -43h-2q-35 0 -45 53z" />
<glyph unicode="&#x12e;" horiz-adv-x="509" d="M59 72v2q8 51 41 51h47v1196h-41q-41 0 -47 55v4q0 25 50 41l16 -2h145l13 2q51 -8 51 -47q-10 -53 -47 -53h-41v-1196h49q31 0 39 -51q-10 -49 -47 -49h-27v-91q0 -35 -65 -45q-41 -29 -41 -69q0 -78 92 -78h104l12 2q45 -8 46 -41v-6q0 -31 -35 -43l-70 4h-37l-55 -4 q-57 0 -123 82q-20 39 -20 69v27q0 84 104 141v21l-2 31h-61q-50 8 -50 47z" />
<glyph unicode="&#x12f;" horiz-adv-x="464" d="M33 -158q0 84 104 142v18l-2 53q-2 4 -8 23v864q6 63 47 64q51 -12 51 -39v-899q0 -2 -1 -6.5t-1 -6.5q0 -4 1 -8l1 -4v-98q0 -35 -65 -45q-41 -29 -41 -70q0 -80 92 -80h104l13 4q45 -8 45 -41v-8q0 -29 -35 -41l-70 4h-37l-57 -4q-55 0 -121 80q-20 39 -20 72v26z M129 1210q10 51 45 52q51 -12 51 -39v-23q0 -29 -55 -39q-29 0 -41 49z" />
<glyph unicode="&#x130;" horiz-adv-x="460" d="M59 72v2q8 51 41 51h47v1196h-41q-41 0 -47 55v4q0 25 50 41l16 -2h145l13 2q51 -8 51 -47q-10 -53 -47 -53h-41v-1196h49q31 0 39 -51q-10 -49 -47 -49h-178q-50 8 -50 47zM117 1679q0 57 69 84q12 4 25 4q70 0 90 -84v-18q0 -47 -68 -78q-8 -4 -22 -4h-4q-74 0 -90 96z " />
<glyph unicode="&#x131;" horiz-adv-x="512" d="M129 879v10q0 16 84 35l76 20q25 -6 24 -16v-877q-6 -27 -24 -26h2q-29 6 -29 18v844q-96 -33 -115 -33q-12 0 -18 25z" />
<glyph unicode="&#x132;" horiz-adv-x="1433" d="M59 72v2q8 51 41 51h47v1196h-41q-41 0 -47 55v4q0 25 50 41l16 -2h145l13 2q51 -8 51 -47q-10 -53 -47 -53h-41v-1196h49q31 0 39 -51q-10 -49 -47 -49h-178q-50 8 -50 47zM444 449q12 51 39 51h17q47 0 47 -94q6 -92 106 -199q98 -80 213 -80q229 0 314 238 q12 45 12 88v919q8 45 43 45h12q34 0 43 -49v-919q0 -223 -213 -363q-96 -57 -203 -57h-18q-207 0 -348 202q-64 107 -64 218z" />
<glyph unicode="&#x133;" horiz-adv-x="759" d="M80 78v864q6 63 47 64q49 -12 49 -39v-899q0 -34 -49 -43q-37 0 -47 53zM82 1210q10 51 45 52q49 -12 49 -39v-23q0 -29 -55 -39q-27 0 -39 49zM115 -326q0 33 57 41q223 0 299 230l8 114v897q0 35 49 45q45 -8 45 -45v-927q0 -261 -245 -381q-86 -31 -140 -31l-4 4h-26 l-2 -4h8q-41 0 -49 57zM479 1192v22q0 25 47 37q47 -8 47 -49t-51 -47q-43 12 -43 37z" />
<glyph unicode="&#x134;" horiz-adv-x="1165" d="M61 449q12 51 39 51h17q47 0 47 -94q6 -92 106 -199q98 -80 213 -80q229 0 314 238q12 45 12 88v919q8 45 43 45h12q34 0 43 -49v-919q0 -223 -213 -363q-96 -57 -202 -57h-19q-207 0 -348 202q-64 107 -64 218zM662 1571v10q0 27 114 154q33 51 60 51h28q33 0 117 -121 q57 -57 57 -84v-8q-10 -49 -47 -49h-10q-35 0 -117 118h-28q-82 -119 -115 -118h-10q-49 8 -49 47z" />
<glyph unicode="&#x135;" horiz-adv-x="808" d="M61 -326q0 33 58 41q225 0 301 230l6 114v897q0 35 49 45q45 -8 45 -45v-927q0 -261 -246 -381q-86 -31 -139 -31l-4 4h-27l-2 -4h9q-42 0 -50 57zM279 1165v13q0 25 114 151q33 51 60 51h28q35 0 117 -118q57 -57 57 -84v-11q-8 -49 -47 -49h-10q-35 0 -117 119h-28 q-82 -119 -115 -119h-10q-49 8 -49 47z" />
<glyph unicode="&#x136;" horiz-adv-x="1103" d="M45 78v1280q8 51 47 51h2q49 -9 49 -43v-713l734 733l26 5h2q45 -8 45 -43v-13q0 -25 -69 -82l-484 -485l543 -672l2 -14v-10q0 -35 -47 -43h-2q-31 0 -105 106l-462 563l-183 -186v-444q0 -34 -49 -43h-2q-37 0 -47 53zM301 -248q10 41 39 41h121q92 0 92 78v2 q0 61 -80 76q-25 12 -24 28q0 43 26 52q31 10 72 -11q92 -61 92 -147q0 -127 -147 -164l-48 2h-53l-51 -2q-39 12 -39 35v10z" />
<glyph unicode="&#x137;" horiz-adv-x="1024" d="M59 72v1288q10 49 39 49h13q47 -10 47 -35v-792q575 381 655 426h12q39 0 47 -56q0 -29 -108 -88q-283 -193 -320 -200v-33l426 -541l2 -12q-8 -49 -47 -49h-6q-29 0 -112 118l-351 435h-20l-178 -113v-401q0 -34 -49 -43h-3q-35 0 -47 47zM266 -238q8 39 39 39h121 q90 0 90 78v2q0 61 -78 76q-25 12 -24 31q0 43 26 51q29 10 72 -12q90 -59 90 -148q0 -127 -145 -164l-47 4h-54l-53 -4q-37 12 -37 35v12z" />
<glyph unicode="&#x138;" horiz-adv-x="1042" d="M74 72v921q10 47 45 56h14q35 -10 37 -58v-409q565 375 657 426h13q37 0 47 -56q0 -29 -111 -88q-285 -193 -317 -200v-33l424 -541l4 -12q-10 -49 -47 -49h-9q-29 0 -112 118l-348 435h-23l-178 -113v-401q0 -35 -47 -43h-2q-35 0 -47 47z" />
<glyph unicode="&#x139;" horiz-adv-x="946" d="M31 78v1272q6 59 39 59h12q45 -8 45 -37v-1249h643q39 0 45 -53q-12 -45 -45 -45h-692q-37 0 -47 53zM203 1520v16q0 20 133 141q109 121 137 121q47 0 55 -63q0 -31 -178 -187q-61 -76 -90 -75h-8q-49 10 -49 47z" />
<glyph unicode="&#x13a;" horiz-adv-x="464" d="M16 1534v14q0 23 134 144q109 121 137 120q45 0 55 -65q0 -29 -176 -184q-61 -76 -90 -76h-10q-50 8 -50 47zM78 78v1265q6 59 39 60h12q45 -8 45 -37v-1243h105q29 0 38 -51v2q-10 -49 -47 -49h-145q-37 0 -47 53z" />
<glyph unicode="&#x13b;" horiz-adv-x="927" d="M23 78v1272q6 59 38 59h13q45 -8 45 -37v-1249h643q39 0 45 -53q-12 -45 -45 -45h-692q-37 0 -47 53zM262 -342q8 39 37 39h123q90 0 90 78v2q0 59 -80 76q-25 12 -24 28q0 43 28 53q27 8 70 -12q92 -61 92 -147q0 -127 -147 -164l-45 4h-56l-51 -4q-37 12 -37 35v12z " />
<glyph unicode="&#x13c;" horiz-adv-x="514" d="M47 -346q8 39 39 39h121q90 0 90 78v2q0 59 -80 75q-25 12 -24 29q0 43 28 53q27 8 70 -12q92 -61 92 -147q0 -127 -147 -164l-46 4h-55l-51 -4q-37 12 -37 35v12zM127 78v1265q6 59 39 60h12q45 -8 45 -37v-1243h105q29 0 39 -51v2q-10 -49 -48 -49h-145q-37 0 -47 53z " />
<glyph unicode="&#x13d;" horiz-adv-x="972" d="M66 78v1272q6 59 38 59h13q47 -10 47 -37v-1249h641q41 0 47 -53q-12 -45 -47 -45h-692q-37 0 -47 53zM643 1087q59 139 59 240v12q0 72 -47 152v10q8 49 39 49h29q61 0 86 -213v-16q0 -117 -133 -227q-22 -12 -25 -13q-4 2 -8 6z" />
<glyph unicode="&#x13e;" horiz-adv-x="557" d="M74 78v1265q6 59 39 60h12q45 -8 45 -37v-1243h104q29 0 39 -51v2q-10 -49 -47 -49h-145q-37 0 -47 53zM297 1077q59 139 59 242v12q0 70 -49 152v10q8 49 39 49h29q63 0 88 -213v-18q0 -117 -133 -228q-23 -12 -27 -12z" />
<glyph unicode="&#x13f;" horiz-adv-x="1003" d="M66 78v1272q6 59 38 59h13q47 -10 47 -37v-1249h641q41 0 47 -53q-12 -45 -47 -45h-692q-37 0 -47 53zM516 756q0 55 72 84q12 4 22 4q70 0 90 -84v-19q0 -47 -67 -77q-8 -4 -23 -5h-4q-74 1 -90 97z" />
<glyph unicode="&#x140;" horiz-adv-x="663" d="M66 78v1265q6 59 38 60h13q45 -8 45 -37v-1243h104q29 0 39 -51v2q-10 -49 -47 -49h-145q-37 0 -47 53zM348 721q0 55 72 84q12 4 22 4q72 0 93 -84v-18q0 -47 -68 -78q-8 -4 -25 -4h-2q-76 0 -92 96z" />
<glyph unicode="&#x141;" horiz-adv-x="1077" d="M37 551q0 43 147 131v668q6 59 39 59h13q47 -10 47 -37v-616q272 199 284 198h21q31 0 43 -51v-8q0 -33 -111 -98l-237 -174v-500h641q41 0 47 -53q-12 -45 -47 -45h-693q-37 0 -47 53v477q-12 -8 -27.5 -19.5l-22.5 -16.5l-14 -10t-9 -7l-2 -2l-19 -4q-53 12 -53 55z " />
<glyph unicode="&#x142;" horiz-adv-x="694" d="M16 475q0 45 142 127l65 49v692q6 59 39 60h12q45 -8 45 -37v-643q217 156 230 156h18q31 0 43 -50v-10q0 -33 -108 -98l-183 -131v-467h105q29 0 39 -51v2q-8 -49 -47 -49h-146q-37 0 -47 53v440l-133 -92l-18 -4q-56 12 -56 53z" />
<glyph unicode="&#x143;" horiz-adv-x="1284" d="M35 82v1266q6 59 39 59h14q33 0 64 -66q70 -76 829 -1060q-4 0 -4 6l14 -23h41v1098q8 45 43 45h12q34 0 43 -49v-1282q0 -41 -57 -51q-25 0 -108 122l-834 1061v-1136q0 -35 -47 -43h-2q-37 0 -47 53zM528 1454v16q0 20 134 142q109 121 137 121q45 0 55 -66 q0 -29 -176 -184q-61 -76 -90 -76h-10q-50 10 -50 47z" />
<glyph unicode="&#x144;" horiz-adv-x="1095" d="M31 76v842q6 59 45 59q49 -12 49 -37v-135q195 172 371 172q197 0 348 -164q111 -137 110 -287v-465q0 -27 -47 -36q-47 10 -47 45v409q0 291 -254 385q-66 16 -110 17h-11q-215 0 -329 -219q-31 -68 -31 -211v-385q0 -31 -47 -41h-2q-35 0 -45 51zM352 1221v16 q0 20 133 141q109 121 138 121q47 0 55 -63q0 -31 -176 -187q-61 -76 -90 -75h-11q-49 10 -49 47z" />
<glyph unicode="&#x145;" horiz-adv-x="1306" d="M66 82v1266q6 59 38 59h17q31 0 61 -66q70 -76 830 -1060q-4 0 -4 6l16 -23h41v1098q8 45 43 45h10q34 0 43 -49v-1282q0 -43 -55 -51q-28 0 -111 122l-831 1061v-1136q0 -34 -49 -43h-2q-37 0 -47 53zM451 -238q8 39 38 39h121q90 0 90 78v2q0 61 -77 76q-25 12 -25 31 q0 43 26.5 51t69.5 -12q92 -61 92 -148q0 -127 -147 -164l-45 4h-53l-54 -4q-37 12 -36 35v12z" />
<glyph unicode="&#x146;" horiz-adv-x="1138" d="M35 76v842q6 59 45 59q47 -12 47 -37v-135q193 172 373 172q197 0 348 -164q111 -137 110 -287v-465q0 -27 -47 -36q-47 10 -47 45v409q0 291 -254 385q-66 16 -110 17h-11q-215 0 -329 -219q-33 -72 -33 -211v-385q0 -33 -45 -41h-2q-35 0 -45 51zM309 -242q8 39 39 39 h121q90 0 90 78v2q0 63 -78 78q-25 12 -24 29q0 43 26 51q29 10 72 -12q90 -59 90 -148q0 -127 -145 -164l-47 4h-54l-53 -4q-37 12 -37 35v12z" />
<glyph unicode="&#x147;" horiz-adv-x="1320" d="M53 82v1266q6 59 39 59h14q33 0 64 -66q70 -76 829 -1060q-6 0 -6 6l17 -23h41v1098q8 45 43 45h12q34 0 43 -49v-1282q0 -41 -57 -51q-28 0 -111 122l-831 1061v-1136q0 -34 -50 -43q-37 0 -47 53zM426 1606v10q8 49 47 49h12q31 0 115 -121h31q84 121 114 121h9 q51 -10 51 -47v-12q0 -25 -92 -123q-53 -80 -84 -80h-29q-33 0 -113 115q-61 61 -61 88z" />
<glyph unicode="&#x148;" horiz-adv-x="1112" d="M41 76v842q6 59 45 59q47 -12 47 -37v-135q195 172 373 172q195 0 346 -164q111 -137 111 -287v-465q0 -27 -48 -36h3q-47 10 -48 45v409q0 289 -256 385q-66 16 -108 17h-12q-213 0 -328 -219q-33 -72 -33 -211v-385q0 -31 -47 -41q-35 0 -45 51zM334 1356v8 q10 49 47 49h12q33 0 115 -119h31q82 119 114 119h9q51 -10 51 -47v-10q0 -27 -92 -125q-51 -80 -84 -80h-27q-33 0 -115 117q-61 61 -61 88z" />
<glyph unicode="&#x149;" horiz-adv-x="1425" d="M53 786q59 139 60 242v12q0 72 -47 152v8q10 51 38 51h27q63 0 88 -213v-18q0 -117 -133 -227q-22 -12 -25 -13q-4 2 -8 6zM291 76v842q6 59 45 59q49 -12 49 -37v-135q193 172 371 172q197 0 348 -164q111 -137 110 -287v-465q0 -27 -47 -36q-47 10 -47 45v409 q0 291 -254 385q-66 16 -110 17h-11q-215 0 -329 -219q-31 -68 -31 -211v-385q0 -31 -47 -41h-2q-35 0 -45 51z" />
<glyph unicode="&#x14a;" horiz-adv-x="1267" d="M41 78v1268q6 59 39 59h10q47 -10 47 -37v-188q225 229 451 229q217 0 397 -174q127 -150 143 -289l9 -47l-4 -115v-206l4 -99q-12 -117 -86 -223q-143 -174 -351 -174q-143 0 -243 84l-6 22v7q8 45 43 45h2l125 -50l79 -8h9q184 0 288 178q41 63 41 228v229 q0 344 -290 463q-80 27 -146 27h-20q-254 0 -398 -246q-47 -86 -47 -264v-729q0 -34 -49 -43h-2q-35 0 -45 53z" />
<glyph unicode="&#x14b;" horiz-adv-x="1138" d="M41 76v842q6 59 45 59q47 -12 47 -37v-135q195 172 373 172q195 0 346 -164q111 -137 111 -287v-465v-10q-2 -197 -211 -276l-78 -15q-49 12 -49 37v23q0 31 57 37q127 0 184 157q0 20 4 45v420q0 289 -256 385q-66 16 -108 17h-12q-213 0 -328 -219q-33 -72 -33 -211 v-385q0 -31 -47 -41q-35 0 -45 51z" />
<glyph unicode="&#x14c;" horiz-adv-x="1579" d="M31 721q0 332 293 559q186 129 401 129q350 0 586 -324q104 -178 104 -370q0 -347 -313 -578q-176 -113 -371 -112h-14q-354 0 -584 333q-102 168 -102 363zM127 711q0 -287 254 -482q156 -106 336 -106h18q281 0 473 248q111 160 111 348q0 323 -295 510 q-150 84 -299 84q-295 0 -489 -256q-109 -156 -109 -346zM270 1632q12 47 45 47h842q47 -10 47 -45v-10q-10 -47 -43 -47h-846q-39 0 -45 55z" />
<glyph unicode="&#x14d;" horiz-adv-x="1187" d="M43 510q0 233 211 395q131 88 274 88q187 0 338 -141q145 -152 146 -342q0 -272 -258 -428q-115 -57 -215 -57h-29q-194 0 -363 184q-104 143 -104 301zM63 1253q12 47 46 47h841q47 -10 47 -45v-10q-10 -47 -43 -47h-845q-40 0 -46 55zM143 502q0 -218 209 -338 q76 -39 164 -39h23q227 0 346 233q29 76 28 144v18q0 182 -165 305q-100 70 -224 70q-246 0 -360 -258q-20 -61 -21 -117v-18z" />
<glyph unicode="&#x14e;" horiz-adv-x="1562" d="M41 721q0 332 291 559q186 129 401 129q350 0 586 -324q106 -182 106 -370q0 -346 -315 -578q-176 -113 -371 -112h-14q-354 0 -584 333q-100 164 -100 363zM137 711q0 -289 252 -482q156 -106 336 -106h18q281 0 474 248q111 160 110 348q0 323 -295 510 q-150 84 -299 84q-295 0 -489 -256q-107 -151 -107 -346zM485 1745v16q10 49 47 49h13q33 0 61 -71q66 -72 142 -72q121 0 170 123q20 20 38 20h7q53 -10 53 -51v-4q0 -70 -144 -170q-68 -25 -120 -24h-9q-175 0 -258 184z" />
<glyph unicode="&#x14f;" horiz-adv-x="1126" d="M41 510q0 236 209 395q131 88 274 88q187 0 338 -141q145 -152 146 -342q0 -272 -258 -428q-115 -57 -215 -57h-29q-194 0 -363 184q-102 141 -102 301zM139 502q0 -218 209 -338q76 -39 164 -39h23q227 0 346 233q29 76 28 144v18q0 182 -166 305q-100 70 -223 70 q-246 0 -360 -258q-20 -61 -21 -117v-18zM268 1346v16q10 49 47 49h13q33 0 61 -72q66 -72 143 -71q119 0 168 123q20 20 39 20h6q53 -10 54 -51v-4q0 -70 -144 -170q-68 -25 -118 -25h-9q-176 1 -260 185z" />
<glyph unicode="&#x150;" horiz-adv-x="1579" d="M31 721q0 332 293 559q186 129 401 129q350 0 586 -324q104 -178 104 -370q0 -347 -313 -578q-176 -113 -371 -112h-14q-354 0 -584 333q-102 168 -102 363zM127 711q0 -287 254 -482q156 -106 336 -106h18q281 0 473 248q111 160 111 348q0 323 -295 510 q-150 84 -299 84q-295 0 -489 -256q-109 -156 -109 -346zM391 1538q102 254 119 268q18 12 33 13h2q53 -10 53 -47v-21q0 -10 -164 -223q-8 -12 -16 -12h-8q-13 -1 -19 22zM635 1526q0 8 108 256q25 25 45 24q57 -12 58 -55q0 -25 -105 -154q-61 -94 -75 -94h-13 q-12 0 -18 23z" />
<glyph unicode="&#x151;" horiz-adv-x="1134" d="M35 510q0 236 209 395q131 88 274 88q190 0 340 -141q145 -152 146 -342q0 -272 -259 -428q-115 -57 -215 -57h-30q-194 0 -363 184q-102 141 -102 301zM133 502q0 -217 211 -338q76 -39 164 -39h22q227 0 347 233q27 72 26 144v18q0 182 -166 305q-100 70 -223 70 q-248 0 -360 -258q-20 -61 -21 -117v-18zM254 1163q104 258 119 271q16 10 33 10h2q53 -10 53 -47v-21q0 -12 -162 -223q-8 -10 -18 -10h-9q-12 0 -18 20zM498 1151q0 8 108 256q25 25 45 25q57 -12 58 -56q0 -23 -105 -151q-61 -94 -76 -95h-12q-12 1 -18 21z" />
<glyph unicode="&#x152;" horiz-adv-x="2156" d="M84 721q0 332 240 559q154 129 323 129q264 0 494 -348v303q6 49 71 49v-2l-8 2h750l14 4q41 0 49 -57q-8 -45 -57 -45h-721v-561h481l54 4q31 0 43 -56q0 -29 -41 -47l-70 4h-467v-536h737q29 0 39 -53q-12 -45 -41 -45h-784q-49 8 -49 47v303q-106 -168 -189 -240 q-145 -111 -299 -110h-14q-287 0 -471 331q-84 172 -84 365zM154 711q0 -287 206 -482q131 -106 279 -106h16q233 0 394 250q90 156 90 346q0 319 -242 510q-121 84 -250 84q-246 0 -405 -258q-88 -151 -88 -344z" />
<glyph unicode="&#x153;" horiz-adv-x="2023" d="M43 514q0 233 211 395q131 88 274 88q187 0 338 -141q57 -59 101 -135q82 131 198 205q117 57 228 57q274 0 428 -260q53 -102 53 -223v-17q-10 -51 -45 -51h-807q59 -188 209 -270q92 -35 170 -35q88 0 198 55h15q43 -10 43 -41v-12q0 -68 -242 -98h-22q-254 0 -428 266 q-88 -139 -211 -211q-111 -55 -215 -55h-29q-195 0 -363 182q-104 143 -104 301zM143 508q0 -218 209 -338q78 -41 164 -41h23q227 0 346 233q29 76 28 146v16q0 184 -165 307q-98 68 -224 68q-246 0 -360 -258q-20 -61 -21 -117v-16zM1016 526h758q0 109 -95 236 q-129 123 -258 123h-41q-188 0 -309 -185q-43 -74 -55 -174z" />
<glyph unicode="&#x154;" horiz-adv-x="985" d="M35 78v1272q6 59 39 59h315q188 0 307 -199q37 -76 37 -157v-17q0 -186 -180 -303l-59 -31q354 -612 354 -616v-18q0 -34 -49 -43h-2q-39 0 -90 116l-320 543h-254v-616q0 -34 -49 -43h-2q-37 0 -47 53zM133 780h240q199 0 260 213l4 35v33q0 158 -174 237 q-49 18 -150 19h-180v-537zM256 1554v17q0 23 131 141q111 123 139 123q45 0 56 -66q0 -29 -179 -186q-61 -76 -90 -76h-10q-47 8 -47 47z" />
<glyph unicode="&#x155;" horiz-adv-x="927" d="M68 78v864q6 63 47 64q51 -12 51 -39v-140q199 178 377 179q98 0 200 -45q20 -25 21 -39v-2q-8 -47 -47 -48q-100 33 -160 33h-20q-238 0 -349 -246q-23 -59 -22 -147v-444q0 -34 -49 -43h-2q-37 0 -47 53zM276 1202v17q0 23 134 143q109 121 139 121q43 0 53 -66 q0 -29 -176 -184q-61 -78 -90 -78h-10q-50 8 -50 47z" />
<glyph unicode="&#x156;" horiz-adv-x="993" d="M41 78v1272q6 59 39 59h313q188 0 307 -199q39 -82 39 -157v-17q0 -186 -182 -303l-57 -31q354 -612 354 -616v-18q0 -34 -49 -43h-2q-41 0 -92 116l-320 543h-254v-616q0 -34 -49 -43h-2q-35 0 -45 53zM137 780h242q199 0 260 213l2 35v33q0 158 -174 237 q-49 18 -150 19h-180v-537zM262 -207q10 41 37 41h123q90 0 90 78v2q0 61 -80 76q-25 12 -24 28q0 41 28.5 51.5t69.5 -10.5q92 -61 92 -147q0 -127 -147 -164l-45 2h-56l-51 -2q-37 12 -37 35v10z" />
<glyph unicode="&#x157;" horiz-adv-x="851" d="M20 78v864q6 63 48 64q49 -12 49 -39v-140q199 178 379 179q98 0 200 -45q18 -23 19 -39v-2q-8 -47 -45 -48q-100 33 -160 33h-23q-236 0 -346 -246q-25 -65 -24 -147v-444q0 -34 -49 -43h-2q-36 0 -46 53zM98 -211q10 41 39 41h121q90 0 90 76v4q0 61 -78 76 q-25 12 -24 28q0 43 26.5 51.5t69.5 -12.5q92 -61 92 -147q0 -125 -145 -162l-47 2h-54l-53 -2q-37 12 -37 33v12z" />
<glyph unicode="&#x158;" horiz-adv-x="1001" d="M35 78v1272q6 59 39 59h315q188 0 307 -199q37 -76 37 -157v-17q0 -186 -180 -303l-59 -31q354 -612 354 -616v-18q0 -34 -49 -43h-2q-39 0 -90 116l-320 543h-254v-616q0 -34 -49 -43h-2q-37 0 -47 53zM133 780h240q199 0 260 213l4 35v33q0 158 -174 237 q-49 18 -150 19h-180v-537zM143 1747v8q10 51 47 51h13q31 0 114 -120h31q84 121 115 120h8q51 -10 51 -47v-12q0 -27 -92 -125q-51 -78 -84 -78h-27q-33 0 -112 115q-64 63 -64 88z" />
<glyph unicode="&#x159;" horiz-adv-x="884" d="M39 78v864q6 63 47 64q49 -12 49 -39v-140q201 178 377 179q100 0 203 -45q18 -23 18 -39v-2q-8 -47 -47 -48q-100 33 -158 33h-22q-236 0 -346 -246q-25 -65 -25 -147v-444q0 -34 -49 -43h-2q-35 0 -45 53zM188 1348v8q10 51 48 51h12q31 0 114 -121h31q84 121 115 121 h8q51 -10 51 -47v-12q0 -27 -92 -125q-51 -78 -84 -78h-26q-33 0 -113 115q-64 63 -64 88z" />
<glyph unicode="&#x15a;" horiz-adv-x="927" d="M61 219q8 45 48 45q29 0 86 -71q106 -72 190 -72h33q168 0 268 186q16 66 16 94v37q0 168 -186 269l-194 55q-203 117 -203 305v27q0 184 198 288q76 29 140 29q174 0 286 -154l2 -8v-18q0 -27 -51 -37q-14 0 -84 76q-70 47 -141 47h-25q-141 0 -213 -148 q-18 -37 -18 -75v-31q0 -162 197 -236q119 0 260 -112q133 -137 133 -295q0 -197 -170 -324q-106 -72 -230 -71q-203 0 -335 174zM291 1559v16q0 20 133 141q109 121 137 121q47 0 55 -63q0 -29 -178 -187q-61 -76 -90 -76h-8q-49 9 -49 48z" />
<glyph unicode="&#x15b;" horiz-adv-x="978" d="M59 688q0 123 193 248q104 55 209 55q240 0 379 -215l2 -22v-2q0 -37 -51 -45q-33 0 -78 75q-115 109 -252 109q-186 0 -295 -178l-4 -27q0 -74 133 -86q406 -96 459 -115q92 -61 92 -155v-4q0 -141 -211 -260q-94 -41 -197 -41q-209 0 -360 200q-10 16 -10 27v22 q0 31 57 37q23 0 80 -84q106 -100 248 -100q170 0 282 162l8 28v9q0 71 -86 80q-487 106 -514 131q-84 65 -84 151zM287 1141v14q0 23 133 143q109 121 137 121q45 0 55 -65q0 -28 -178 -185q-61 -76 -90 -75h-8q-49 8 -49 47z" />
<glyph unicode="&#x15c;" horiz-adv-x="884" d="M41 219q8 45 45 45q29 0 86 -71q106 -72 190 -72h33q170 0 271 186q16 66 16 94v37q0 166 -188 269l-195 55q-203 117 -203 305v27q0 184 201 288q76 29 137 29q172 0 287 -154l2 -8v-18q0 -28 -49 -37q-14 0 -84 76q-70 47 -144 47h-22q-141 0 -213 -148 q-18 -37 -18 -75v-31q0 -162 194 -236q119 0 260 -112q133 -137 133 -295q0 -197 -170 -324q-106 -72 -229 -71q-203 0 -336 174zM233 1565v12q0 27 115 154q31 49 62 49h26q37 0 119 -119q57 -57 57 -84v-8q-10 -51 -47 -51h-12q-31 0 -115 120h-30q-84 -121 -115 -120h-8 q-52 10 -52 47z" />
<glyph unicode="&#x15d;" horiz-adv-x="968" d="M59 688q0 123 193 248q104 55 209 55q240 0 379 -215l2 -22v-2q0 -37 -51 -45q-33 0 -78 75q-115 109 -252 109q-186 0 -295 -178l-4 -27q0 -74 133 -86q406 -96 459 -115q92 -61 92 -155v-4q0 -141 -211 -260q-94 -41 -197 -41q-209 0 -360 200q-10 16 -10 27v22 q0 31 57 37q23 0 80 -84q106 -100 248 -100q170 0 282 162l8 28v9q0 71 -86 80q-487 106 -514 131q-84 65 -84 151zM274 1151v12q0 27 115 154q31 49 60 49h28q35 0 117 -119q57 -57 57 -84v-10q-8 -49 -47 -49h-10q-33 0 -117 121h-28q-84 -121 -115 -121h-10 q-50 10 -50 47z" />
<glyph unicode="&#x15e;" horiz-adv-x="901" d="M41 219q8 45 45 45q29 0 86 -71q106 -72 190 -72h33q170 0 271 186q16 66 16 94v37q0 166 -188 269l-195 55q-203 117 -203 305v27q0 184 201 288q76 29 137 29q172 0 287 -154l2 -8v-18q0 -28 -49 -37q-14 0 -84 76q-70 47 -144 47h-22q-141 0 -213 -148 q-18 -37 -18 -75v-31q0 -162 194 -236q119 0 260 -112q133 -137 133 -295q0 -197 -170 -324q-68 -46 -166 -67v-72q104 -68 105 -156q0 -127 -148 -163l-47 4h-53l-51 -4q-37 12 -37 34v13q8 39 37 39h121q92 0 92 77v2q0 61 -80 76q-25 12 -25 31v115q-197 23 -313 174z " />
<glyph unicode="&#x15f;" horiz-adv-x="976" d="M63 688q0 123 193 248q104 55 209 55q240 0 379 -215l2 -22v-2q0 -37 -51 -45q-33 0 -78 75q-115 109 -252 109q-186 0 -295 -178l-4 -27q0 -74 133 -86q406 -96 459 -115q92 -61 92 -155v-4q0 -141 -211 -260q-43 -18 -135 -37v-80q102 -66 102 -158q0 -125 -145 -162 l-47 2h-54l-53 -2q-37 12 -37 33v12q10 41 39 41h121q90 0 90 76v4q0 61 -78 76q-25 12 -24 29v125q-203 23 -336 200q-10 16 -10 27v22q0 31 57 37q23 0 80 -84q106 -100 248 -100q170 0 282 162l9 28v9q0 71 -86 80q-487 106 -515 131q-84 65 -84 151z" />
<glyph unicode="&#x160;" horiz-adv-x="923" d="M35 219q8 45 47 45q29 0 86 -71q106 -72 188 -72h35q168 0 268 186q16 66 17 94v37q0 168 -187 269l-194 55q-205 119 -205 305v27q0 184 201 288q76 29 137 29q175 0 289 -154l2 -8v-18q0 -27 -51 -37q-14 0 -84 76q-72 47 -144 47h-22q-143 0 -213 -148 q-18 -37 -19 -75v-31q0 -162 197 -236q119 0 260 -112q131 -133 131 -295q0 -199 -168 -324q-106 -72 -229 -71q-203 0 -336 174zM236 1739v8q12 49 47 49h12q33 0 115 -119h30q82 119 115 119h10q49 -10 49 -47v-10q0 -25 -90 -125q-53 -78 -86 -78h-26q-33 0 -113 115 q-63 61 -63 88z" />
<glyph unicode="&#x161;" horiz-adv-x="976" d="M51 688q0 125 191 248q104 55 209 55q243 0 380 -215l3 -22v-2q0 -37 -52 -45q-33 0 -77 75q-115 109 -254 109q-184 0 -293 -178l-4 -27q0 -74 131 -86q406 -96 458 -115q94 -63 95 -155v-4q0 -139 -213 -260q-94 -41 -197 -41q-209 0 -360 200q-10 16 -11 27v22 q0 31 60 37q23 0 80 -84q106 -100 247 -100q168 0 281 162l10 28v9q0 70 -88 80q-487 106 -514 131q-82 63 -82 151zM268 1360v8q10 51 47 51h13q31 0 114 -121h29q84 121 117 121h8q49 -10 49 -47v-12q0 -27 -90 -123q-51 -80 -84 -80h-29q-33 0 -112 115q-62 61 -62 88z " />
<glyph unicode="&#x162;" horiz-adv-x="1218" d="M43 1362q12 49 41 49h930q45 -8 45 -43v-14q0 -33 -60 -39h-399v-1247q0 -34 -49 -43q-37 0 -47 53v1237h-408q-53 12 -53 47zM457 -362v-13q59 84 59 152v8q0 49 -47 96v-2q10 23 39 23h29q61 0 86 -121v-8q0 -63 -129 -127q-18 -8 -31 -8q-9 3 -6 0z" />
<glyph unicode="&#x163;" horiz-adv-x="729" d="M35 930q10 47 65 47h13h116v332q6 57 37 57h13q43 -10 43 -35v-354h178l32 4q31 0 43 -53q0 -29 -40 -45l-52 4h-161v-563q0 -158 112 -199l88 -6h41q27 0 37 -47q-10 -47 -45 -47h-76q-160 0 -237 176q-12 43 -13 100v586h-100l-53 -4q-41 16 -41 47zM315 -338v-10 q61 86 62 151v7q0 49 -49 98v-2q10 23 39 22h28q61 0 86 -121v-10q0 -63 -129 -127q-18 -8 -30 -8q-10 3 -7 0z" />
<glyph unicode="&#x164;" horiz-adv-x="1222" d="M53 1362q12 49 39 49h932q43 -8 43 -43v-14q0 -33 -57 -39h-402v-1247q0 -34 -49 -43q-37 0 -47 53v1237h-406q-53 12 -53 47zM375 1751v10q10 49 47 49h10q35 0 117 -118h29q82 119 114 118h10q49 -8 50 -47v-12q0 -27 -90 -123q-51 -80 -84 -80h-29q-33 0 -113 115 q-61 61 -61 88z" />
<glyph unicode="&#x165;" horiz-adv-x="755" d="M61 930q10 47 66 47h12h117v332q6 57 39 57h10q43 -10 43 -35v-354h178l33 4q31 0 43 -53q0 -29 -41 -45l-49 4h-164v-563q0 -158 113 -199l88 -6h43q27 0 37 -47q-10 -47 -45 -47h-78q-160 0 -238 176q-12 43 -12 100v586h-98l-56 -4q-41 16 -41 47zM123 1716v8 q10 51 47 52h12q31 0 115 -121h31q84 121 114 121h9q51 -10 51 -47v-13q0 -27 -92 -125q-51 -78 -84 -78h-27q-35 0 -115 115q-61 61 -61 88z" />
<glyph unicode="&#x166;" horiz-adv-x="1196" d="M47 1362q12 49 39 49h932q45 -8 45 -43v-14q0 -33 -59 -39h-400v-547h293l37 4q37 0 49 -57q0 -35 -43 -53l-61 4h-275v-598q0 -34 -49 -43q-37 0 -47 53v588h-311l-60 -4q-47 18 -47 53q10 53 72 53h14h332v547h-408q-53 12 -53 47z" />
<glyph unicode="&#x167;" horiz-adv-x="747" d="M47 930q10 47 68 47h10h117v332q6 57 39 57h10q45 -10 45 -35v-354h176l35 4q29 0 41 -53q0 -29 -41 -45l-49 4h-162v-293h174l33 4q29 0 45 -59q0 -33 -43 -52l-51 5h-158v-168q0 -160 110 -199l89 -6h43q27 0 36 -47q-10 -47 -45 -47h-77q-158 0 -236 176 q-14 49 -14 100v191h-92l-56 -5q-43 16 -43 54q10 53 70 53h10h111v293h-99l-55 -4q-41 16 -41 47z" />
<glyph unicode="&#x168;" horiz-adv-x="1218" d="M66 537v813q6 59 38 59h13q47 -10 47 -37v-805q0 -274 158 -368q96 -76 223 -76q236 0 354 242q27 84 27 157v838q9 49 43 49h8q45 -8 45 -43v-883q0 -213 -207 -372q-129 -86 -260 -86h-27q-221 0 -387 221q-75 121 -75 291zM317 1620v10q0 35 64 49q31 10 55 11h19 q61 0 151 -62l37 -8h25l71 20q47 -8 47 -47q0 -52 -116 -67h-25q-59 0 -151 61l-35 8h-27l-70 -16h-2q-43 10 -43 41z" />
<glyph unicode="&#x169;" horiz-adv-x="1130" d="M43 518v397q6 61 45 62q49 -12 49 -39v-389q0 -266 154 -359q92 -72 215 -71q230 0 344 233q25 78 24 152v422q8 51 46 51q47 -12 47 -45v-871q0 -27 -47 -36q-45 8 -46 45v94h-38q-156 -139 -320 -139h-24q-215 0 -375 213q-74 114 -74 280zM279 1219v10q0 37 63 51 q25 8 53 8h21q66 0 151 -59l35 -10h27l69 20q49 -10 50 -47q0 -52 -117 -68h-25q-59 0 -151 62l-37 8h-25l-69 -16h-2q-43 10 -43 41z" />
<glyph unicode="&#x16a;" horiz-adv-x="1134" d="M35 537v813q6 59 39 59h12q45 -8 45 -37v-805q0 -273 160 -368q96 -76 221 -76q238 0 356 242q27 84 27 157v838q9 49 43 49h8q45 -8 45 -43v-883q0 -213 -207 -372q-129 -86 -260 -86h-26q-221 0 -387 221q-76 121 -76 291zM147 1630q10 53 62 53h4h610l31 5 q29 0 37 -58q0 -35 -35 -53l-49 4h-576l-49 -4q-35 14 -35 53z" />
<glyph unicode="&#x16b;" horiz-adv-x="1134" d="M35 518v397q6 61 45 62q47 -12 47 -39v-389q0 -266 154 -359q92 -72 215 -71q233 0 346 233q23 70 22 152v422q8 51 45 51q47 -12 47 -45v-871q0 -27 -47 -36h2q-47 10 -47 45v94h-39q-156 -139 -317 -139h-27q-213 0 -372 213q-74 114 -74 280zM168 1229q8 45 59 45 l518 2q57 -8 58 -47v-10q-6 -47 -51 -48h-539q-39 1 -45 58z" />
<glyph unicode="&#x16c;" horiz-adv-x="1148" d="M35 537v813q6 59 39 59h12q45 -8 45 -37v-805q0 -273 160 -368q96 -76 221 -76q238 0 356 242q27 84 27 157v838q9 49 43 49h8q45 -8 45 -43v-883q0 -213 -207 -372q-129 -86 -260 -86h-26q-221 0 -387 221q-76 121 -76 291zM268 1708v16q10 51 47 52h13q33 0 61 -72 q68 -74 143 -74q119 0 168 123q23 23 39 23h6q53 -10 54 -52v-4q0 -70 -144 -170q-68 -25 -118 -24h-9q-178 0 -260 182z" />
<glyph unicode="&#x16d;" horiz-adv-x="1169" d="M61 518v397q6 61 45 62q49 -12 50 -39v-389q0 -268 151 -359q92 -72 215 -71q231 0 346 233q25 78 25 152v422q8 51 45 51q45 -12 45 -45v-871q0 -29 -45 -36q-45 8 -45 45v94h-39q-156 -139 -319 -139h-25q-215 0 -375 213q-74 114 -74 280zM256 1305v16q10 49 47 49h12 q33 0 62 -72q66 -72 141 -71q121 0 170 123q20 20 39 20h6q53 -10 53 -49v-4q0 -70 -143 -170q-74 -27 -121 -27h-8q-175 1 -258 185z" />
<glyph unicode="&#x16e;" horiz-adv-x="1126" d="M31 537v813q6 59 39 59h12q45 -8 45 -37v-805q0 -273 160 -368q96 -76 223 -76q236 0 354 242q27 84 27 157v838q9 49 43 49h8q45 -8 45 -43v-883q0 -213 -207 -372q-129 -86 -260 -86h-26q-221 0 -388 221q-75 121 -75 291zM356 1647q0 111 129 155l33 4h14 q104 0 150 -127l2 -32v-11q0 -100 -121 -149l-41 -8q-94 0 -149 100q-17 39 -17 68zM424 1642q18 -96 98 -96q96 16 96 94v13q-16 88 -90 88h-12q-77 -1 -92 -99z" />
<glyph unicode="&#x16f;" horiz-adv-x="1179" d="M61 518v397q6 61 45 62q49 -12 50 -39v-389q0 -268 151 -359q92 -72 215 -71q231 0 346 233q25 78 25 152v422q8 51 45 51q45 -12 45 -45v-871q0 -29 -45 -36q-45 8 -45 45v94h-39q-156 -139 -319 -139h-25q-215 0 -375 213q-74 114 -74 280zM362 1221q0 111 130 155 l30 4h15q102 0 149 -129l4 -32v-11q0 -100 -123 -149l-39 -6q-96 0 -149 98q-17 39 -17 70zM428 1217q18 -96 100 -97q94 14 95 92v15q-16 86 -88 86h-13q-80 0 -94 -96z" />
<glyph unicode="&#x170;" horiz-adv-x="1173" d="M57 537v813q6 59 39 59h13q45 -8 45 -37v-805q0 -273 159 -368q96 -76 222 -76q238 0 356 242q25 78 24 157v838q9 49 43 49h11q45 -8 45 -43v-883q0 -213 -207 -372q-129 -86 -260 -86h-27q-223 0 -389 221q-74 117 -74 291zM379 1530q102 254 119 268q14 10 32 10h2 q53 -10 54 -47v-18q0 -14 -162 -225q-8 -10 -18 -11h-9q-12 0 -18 23zM623 1518q0 6 108 254q25 25 45 24q57 -12 58 -53q0 -25 -105 -154q-61 -94 -76 -94h-12q-12 0 -18 23z" />
<glyph unicode="&#x171;" horiz-adv-x="1142" d="M43 518v397q6 61 45 62q49 -12 49 -39v-389q0 -266 154 -359q92 -72 215 -71q230 0 344 233q25 78 24 152v422q8 51 46 51q47 -12 47 -45v-871q0 -27 -47 -36q-45 8 -46 45v94h-38q-156 -139 -320 -139h-24q-215 0 -375 213q-74 114 -74 280zM340 1098q104 258 117 268 q18 12 32 12h3q53 -10 53 -47v-20q0 -12 -162 -224q-10 -12 -16 -12h-9q-12 0 -18 23zM584 1085q0 12 106 256q25 25 45 25q57 -12 58 -55q0 -27 -103 -154q-59 -92 -76 -92h-12q-12 0 -18 20z" />
<glyph unicode="&#x172;" horiz-adv-x="1200" d="M61 537v813q6 59 39 59h13q47 -10 47 -37v-805q0 -274 157 -368q96 -76 224 -76q238 0 356 242q25 78 25 157v838q9 49 43 49h8q45 -8 45 -43v-883q0 -213 -207 -372q-98 -66 -225 -84v-117q0 -37 -66 -47q-41 -29 -41 -70q0 -78 92 -78h107l10 2q45 -8 45 -41v-6 q0 -31 -35 -43l-67 4h-39l-55 -4q-57 0 -123 82q-20 39 -21 70v28q0 82 107 140v20l-6 58q-207 25 -357 221q-76 121 -76 291z" />
<glyph unicode="&#x173;" horiz-adv-x="1210" d="M53 518v397q6 61 45 62q47 -12 47 -39v-389q0 -266 154 -359q92 -72 215 -71q230 0 344 233q25 78 25 152v422q8 51 45 51q47 -12 47 -45v-866l4 -13v-100q0 -35 -68 -45q-39 -27 -39 -72q0 -78 93 -78h104l12 4q45 -8 45 -41v-8q0 -29 -34 -41l-70 4h-39l-55 -4 q-55 0 -121 80q-23 41 -23 72v26q0 84 107 142v18l-2 37q-6 12 -6 23v94h-39q-156 -139 -320 -139h-24q-213 0 -373 213q-74 114 -74 280z" />
<glyph unicode="&#x174;" horiz-adv-x="1777" d="M47 1364q10 47 39 47h16q45 0 60 -94l284 -993h46q293 1038 313 1071q14 16 33 16h10q45 0 63 -117q27 -74 283 -975h41l311 1072q14 20 31 20h12q45 -8 45 -35v-14l-381 -1319q-18 -18 -36 -18h-5q-47 0 -65 120q-264 901 -283 979h-41l-311 -1079q-18 -20 -39 -20h-14 q-41 0 -60 125q-334 1132 -352 1214zM659 1599v13q0 27 115 153q31 49 62 50h26q37 0 119 -119q57 -57 57 -84v-8q-10 -51 -47 -52h-12q-31 0 -115 121h-30q-84 -121 -115 -121h-8q-52 10 -52 47z" />
<glyph unicode="&#x175;" horiz-adv-x="1421" d="M43 936q8 47 49 47q47 0 72 -129l186 -573h39q213 674 221 686q16 12 39 16q45 0 64 -102l192 -600h41q201 641 219 682q20 20 35 20q51 -8 51 -45l-286 -895q-18 -18 -37 -18h-4q-47 0 -72 125q-176 539 -176 571h-49l-219 -676q-14 -20 -37 -20h-2q-37 0 -52 49z M467 1128v13q0 27 115 153q31 49 59 49h29q35 0 116 -118q57 -57 58 -84v-8q-10 -51 -47 -52h-13q-31 0 -114 121h-31q-84 -121 -115 -121h-8q-49 8 -49 47z" />
<glyph unicode="&#x176;" horiz-adv-x="1165" d="M41 1360q12 49 39 49h14q33 0 58 -59l354 -531h31q383 578 387 580q16 10 20 10h23q27 0 39 -51q0 -23 -125 -193l-312 -463v-618q-6 -59 -39 -59h-16q-31 0 -43 41v616q0 20 -164 264l-264 402zM336 1552v13q0 25 115 151q33 51 61 51h27q35 0 116 -118q59 -59 60 -84 v-11q-12 -49 -47 -49h-13q-33 0 -114 119h-31q-82 -119 -115 -119h-10q-49 10 -49 47z" />
<glyph unicode="&#x177;" horiz-adv-x="962" d="M61 936q10 47 45 47q39 0 76 -123q229 -541 240 -581h39q281 684 291 694q16 14 28 14q47 -10 47 -41v-4q-2 -20 -344 -831q-156 -389 -176 -416q-16 -12 -26 -14q-45 10 -45 34v17q0 6 157 387v12l-332 809v-4zM274 1155v12q0 27 115 154q31 49 62 49h26q37 0 119 -119 q57 -57 57 -84v-10q-10 -49 -47 -49h-12q-31 0 -115 121h-30q-84 -121 -115 -121h-8q-52 10 -52 47z" />
<glyph unicode="&#x178;" horiz-adv-x="1148" d="M41 1360q12 49 39 49h14q33 0 58 -59l354 -531h31q383 578 387 580q16 10 20 10h23q27 0 39 -51q0 -23 -125 -193l-312 -463v-618q-6 -59 -39 -59h-16q-31 0 -43 41v616q0 20 -164 264l-264 402zM332 1614q12 49 39 49h12q45 -8 45 -37v-18q0 -33 -47 -43q-49 8 -49 49z M616 1612v10q0 33 46 41h6q47 -10 47 -41v-10q0 -37 -51 -47q-48 10 -48 47z" />
<glyph unicode="&#x179;" horiz-adv-x="1271" d="M31 82q0 16 178 237l770 996h-895q-53 12 -53 47q12 49 39 49h1022q35 0 43 -47v-2q0 -20 -78 -111l-875 -1128h903q49 -6 50 -47v-2q-8 -49 -48 -49h-1009q-39 0 -47 57zM514 1589v4q0 25 109 146q31 43 51 43q51 -12 51 -45v-6q0 -18 -78 -107q-55 -82 -92 -82h-4 q-29 0 -37 47z" />
<glyph unicode="&#x17a;" horiz-adv-x="972" d="M43 80q0 16 145 184l500 629h-549l-53 -4q-43 16 -43 47q10 47 68 47h10h641l31 4q43 -16 43 -39v-20q0 -16 -78 -101l-565 -708h600q43 -8 43 -41v-12q0 -31 -48 -41h-700q-35 0 -45 55zM381 1171v5q0 25 108 145q31 43 52 43q51 -12 51 -45v-6q0 -18 -78 -107 q-55 -82 -92 -82h-4q-29 0 -37 47z" />
<glyph unicode="&#x17b;" horiz-adv-x="1323" d="M43 82q0 16 178 237l770 996h-895q-53 12 -53 47q12 49 41 49h1020q35 0 43 -47v-2q0 -20 -78 -111l-872 -1128h901q49 -6 49 -47v-2q-8 -49 -47 -49h-1010q-39 0 -47 57zM520 1683q0 55 72 84q12 4 22 5q72 0 93 -84v-19q0 -47 -68 -78q-8 -4 -25 -4h-2q-76 0 -92 96z " />
<glyph unicode="&#x17c;" horiz-adv-x="1003" d="M41 80q0 20 143 184l500 629h-549l-53 -4q-41 16 -41 47q10 47 65 47h11h641l30 4q43 -16 43 -39v-20q0 -16 -77 -101l-566 -708h600q43 -8 43 -41v-12q0 -31 -47 -41h-698q-37 0 -45 55zM362 1243q0 55 72 84q12 4 23 4q72 0 92 -84v-18q0 -47 -70 -78q-8 -4 -22 -4h-2 q-77 0 -93 96z" />
<glyph unicode="&#x17d;" horiz-adv-x="1292" d="M47 82q0 16 178 237l770 996h-895q-53 12 -53 47q12 49 39 49h1022q35 0 43 -47v-2q0 -20 -78 -111l-872 -1128h901q49 -6 49 -47v-2q-8 -49 -47 -49h-1010q-39 0 -47 57zM422 1751v10q8 49 47 49h12q33 0 115 -118h31q82 119 114 118h9q51 -10 51 -47v-12 q0 -25 -92 -123q-53 -80 -84 -80h-27q-35 0 -115 115q-61 61 -61 88z" />
<glyph unicode="&#x17e;" horiz-adv-x="976" d="M41 80q0 20 143 184l500 629h-549l-53 -4q-41 16 -41 47q10 47 65 47h11h641l30 4q43 -16 43 -39v-20q0 -16 -77 -101l-566 -708h600q43 -8 43 -41v-12q0 -31 -47 -41h-698q-37 0 -45 55zM276 1374v8q10 51 48 52h12q31 0 115 -121h30q84 121 115 121h8q51 -10 51 -48 v-12q0 -27 -92 -125q-51 -78 -84 -78h-26q-33 0 -113 115q-64 63 -64 88z" />
<glyph unicode="&#x17f;" horiz-adv-x="614" d="M74 68l4 41v751l-4 146v67q0 238 205 324l83 14h89q31 0 38 -55q0 -29 -53 -41h-53q-160 0 -209 -174l-2 -82v-53v-146v-751l2 -41q0 -31 -51 -43q-33 0 -49 43z" />
<glyph unicode="&#x192;" horiz-adv-x="972" d="M43 -281q10 55 51 56h53q151 0 215 135q18 45 19 145v787h-234q-35 0 -43 59q0 25 43 45l74 -4h156v98q0 252 217 344l88 15h92q34 0 43 -62q0 -33 -57 -45h-58q-166 0 -217 -180l-4 -88v-82h199l63 4q31 0 43 -53v-8q0 -31 -51 -43h-254v-787l4 -94q-16 -100 -73 -176 q-113 -117 -238 -117h-84q-39 0 -47 51z" />
<glyph unicode="&#x1fa;" horiz-adv-x="1265" d="M43 68l127 327q309 762 371 938q-59 31 -84 80q-12 31 -13 57q0 74 99 132q-2 0 -4 2t-4 2q143 -2 182 -109l4 -29v-8q0 -74 -109 -129q31 -53 43 -102q458 -1134 461 -1155v-8q0 -35 -49 -41h-2q-45 0 -70 104l-178 440h-475l-213 -530q-23 -14 -31 -14h-6q-49 9 -49 43 zM383 662h385v32l-170 426h-37zM494 1661v2q0 25 96 129q29 39 43 39q45 -10 45 -39v-4q0 -14 -70 -94q-18 -28 -73 -86q-35 24 -41 53zM496 1466q16 -86 88 -86q86 16 86 84v13q-12 78 -80 77h-10q-72 0 -84 -88zM535 1606v2v-2z" />
<glyph unicode="&#x1fb;" horiz-adv-x="1169" d="M41 506q0 268 260 422q109 51 215 51q274 0 430 -264q47 -102 47 -223v-426q0 -31 -47 -41q-29 0 -45 34v-2l4 93v63q-199 -188 -373 -188h-30q-244 0 -404 243q-57 115 -57 238zM133 498q0 -231 236 -353q72 -27 133 -26h30q197 0 322 194q47 94 47 179v14 q0 225 -223 344q-76 37 -162 37h-4q-233 0 -354 -248q-25 -78 -25 -129v-12zM373 1262v10q0 104 131 147l28 2q90 0 144 -96q14 -31 14 -65q0 -102 -125 -150l-30 -4h-15q-100 0 -143 125zM436 1249q23 -80 84 -80h15q80 0 92 95q-16 96 -97 96q-94 -16 -94 -92v-19z M451 1581v4q0 25 108 146q31 43 51 43q51 -12 52 -45v-9q0 -20 -76 -104q-55 -82 -94 -82h-5q-28 0 -36 47z" />
<glyph unicode="&#x1fc;" horiz-adv-x="1613" d="M57 82q0 14 240 432l489 883q14 12 25 12h596q27 0 39 -47q-8 -49 -51 -49h-525v-619h412q47 -10 47 -35v-20q0 -33 -49 -41h-410v-475h529q37 0 47 -53q0 -33 -53 -45h-574q-37 0 -47 53v520h-313q-27 -33 -176 -309l-142 -250q-14 -14 -32 -14h-5q-39 0 -47 57z M508 694h264v473zM842 1614v4q0 23 108 143q31 43 51 43q51 -12 52 -45v-6q0 -23 -76 -106q-55 -82 -94 -82h-4q-28 0 -37 49z" />
<glyph unicode="&#x1fd;" horiz-adv-x="2041" d="M43 508q0 266 262 420q109 51 213 51q252 0 420 -246h31q92 160 268 221q76 20 143 21q268 0 420 -256q51 -104 51 -201v-45q-10 -47 -43 -47h-792v-33q39 -131 149 -207q102 -66 211 -65q94 0 205 55l10 2q49 -12 49 -47q0 -72 -219 -102l-49 -4q-180 0 -379 182v-137 q0 -39 -51 -45h-4q-22 0 -37 36l4 84v70q-195 -186 -370 -186h-29q-244 0 -404 243q-59 119 -59 236zM135 500q0 -229 236 -350q80 -29 135 -29h29q193 0 319 194q47 94 47 179v14q0 224 -221 344q-72 35 -162 35h-2q-237 0 -356 -246q-25 -77 -25 -129v-12zM895 1147v4 q0 23 109 143q31 43 51 43q51 -12 51 -45v-6q0 -18 -78 -106q-55 -82 -92 -82h-4q-28 0 -37 49zM1006 518h747v31q0 106 -125 237q-120 92 -252 93q-201 0 -323 -187q-47 -86 -47 -174z" />
<glyph unicode="&#x1fe;" horiz-adv-x="1654" d="M61 82q0 18 121 121q4 10 56 47q-176 225 -177 467q0 326 291 555q190 129 398 129q258 0 493 -207q160 162 178 162h6q49 -12 50 -45v-8q0 -31 -99 -105l-73 -76q133 -203 133 -413q0 -340 -312 -572q-182 -113 -368 -112h-15q-225 0 -428 153h-20q-152 -150 -168 -149 l-18 -4q-38 0 -48 57zM158 707q0 -203 151 -385l848 796v29q-190 158 -407 158q-295 0 -486 -254q-106 -151 -106 -344zM373 252q186 -131 370 -131h19q279 0 471 248q109 154 108 344q0 160 -96 329h-28zM688 1608v4q0 25 109 145q31 43 51 43q51 -12 51 -45v-6 q0 -23 -76 -107q-55 -82 -94 -81h-4q-29 0 -37 47z" />
<glyph unicode="&#x1ff;" horiz-adv-x="1187" d="M47 82q0 18 107 119q-106 145 -107 299q0 229 207 387q129 86 268 86q135 0 289 -101q92 115 125 115h4q35 0 43 -53q0 -15 -111 -123q123 -152 123 -311q0 -268 -254 -420q-108 -55 -209 -55h-28q-131 0 -291 110q-88 -106 -115 -106h-12q-29 0 -39 53zM143 492 q0 -96 62 -207h28l504 520q-102 72 -219 72q-244 0 -354 -252q-20 -61 -21 -115v-18zM281 199q127 -78 231 -78h20q223 0 340 229q27 72 27 142v18q0 117 -92 233zM463 1194v4q0 25 108 145q31 43 52 43q51 -12 51 -45v-6q0 -23 -76 -106q-55 -82 -94 -82h-4q-29 0 -37 47z " />
<glyph unicode="&#x2c6;" horiz-adv-x="1024" d="M313 1192v10q0 27 115 154q33 51 59 51h29q33 0 117 -121q57 -57 57 -84v-8q-10 -49 -47 -49h-10q-35 0 -117 119h-29q-82 -119 -114 -119h-11q-49 10 -49 47z" />
<glyph unicode="&#x2c7;" horiz-adv-x="1024" d="M287 1346v10q8 49 47 49h10q33 0 117 -121h28q84 121 115 121h10q49 -8 50 -47v-12q0 -27 -91 -123q-53 -80 -84 -80h-28q-33 0 -113 114q-61 62 -61 89z" />
<glyph unicode="&#x2c9;" horiz-adv-x="1058" d="M238 1239q10 53 71 53v2l15 -2h401l37 4q35 0 49 -57q0 -33 -47 -51l-55 4h-367l-57 -4q-47 18 -47 51z" />
<glyph unicode="&#x2d8;" horiz-adv-x="1024" d="M229 1274v16q8 49 47 49h13q33 0 61 -71q66 -72 142 -72q121 0 170 123q20 20 38 20h7q53 -10 53 -51v-4q0 -70 -144 -170q-68 -25 -120 -24h-9q-175 0 -258 184z" />
<glyph unicode="&#x2d9;" horiz-adv-x="1024" d="M420 1247q0 57 72 86q12 4 22 4q68 0 90 -86v-16q0 -49 -67 -80q-8 -4 -23 -4h-2q-76 0 -92 96z" />
<glyph unicode="&#x2da;" horiz-adv-x="1024" d="M334 1262v10q0 104 131 147l29 2q88 0 141 -96q14 -31 14 -65q0 -104 -123 -150l-32 -4h-13q-100 0 -143 125zM397 1249q20 -80 84 -80h15q78 0 90 95q-16 96 -97 96q-92 -16 -92 -92v-19z" />
<glyph unicode="&#x2db;" horiz-adv-x="1024" d="M332 -227q0 82 104 139v20l-4 52q16 39 43 39h6q33 0 43 -48v-102q0 -35 -65 -45q-41 -29 -41 -70q0 -78 92 -77h104l13 2q45 -8 45 -41v-7q0 -31 -35 -43l-70 5h-37l-57 -5q-55 0 -121 82q-20 39 -20 70v29z" />
<glyph unicode="&#x2dc;" horiz-adv-x="1024" d="M299 1597v9q0 49 117 61l12 2q72 0 178 -70l45 -4l78 23q49 -8 49 -47v-4q0 -51 -100 -66l-37 -4q-70 0 -172 72l-41 6l-82 -23q-47 8 -47 45z" />
<glyph unicode="&#x2dd;" horiz-adv-x="1024" d="M264 1124q102 254 119 269q18 12 33 12h2q51 -8 51 -47v-21q0 -14 -162 -225q-8 -10 -16 -10h-8q-13 -1 -19 22zM508 1112q0 6 108 254q27 27 46 27q57 -12 57 -56q0 -25 -105 -153q-61 -94 -75 -94h-13q-12 -1 -18 22z" />
<glyph unicode="&#x384;" horiz-adv-x="391" d="M94 1208v4q0 25 109 146q31 43 51 43q49 -12 49 -45v-8q0 -23 -76 -107q-55 -82 -92 -82h-4q-28 0 -37 49z" />
<glyph unicode="&#x385;" horiz-adv-x="796" d="M102 1227q14 57 52 57q59 -16 59 -53q-12 -57 -53 -57q-58 12 -58 53zM287 1174v4q0 25 108 145q31 43 51 43q51 -12 52 -45v-8q0 -23 -76 -107q-55 -82 -94 -82h-4q-28 1 -37 50zM555 1227q14 57 51 57q57 -14 58 -53q-12 -57 -54 -57q-55 12 -55 53z" />
<glyph unicode="&#x386;" horiz-adv-x="1253" d="M35 72l127 340q340 887 362 964q23 27 41 27q49 0 78 -121q457 -1184 459 -1204v-10q0 -34 -49 -43h-2q-45 0 -70 110l-176 457h-473l-211 -553q-16 -14 -33 -14h-4q-49 8 -49 47zM182 1305v4q0 23 109 143q31 43 51 43q49 -12 49 -45v-6q0 -23 -76 -107q-55 -82 -92 -82 h-4q-28 1 -37 50zM373 688h383v35l-168 444h-39z" />
<glyph unicode="&#x387;" horiz-adv-x="403" d="M86 889q0 57 70 84q12 4 22 4q72 0 92 -84v-19q0 -47 -67 -77q-8 -4 -25 -4h-2q-74 0 -90 96z" />
<glyph unicode="&#x388;" horiz-adv-x="1345" d="M33 1243v4q0 27 106 146q31 43 51 43q51 -12 52 -45v-9q0 -20 -76 -104q-55 -84 -92 -84h-4q-28 0 -37 49zM322 72v1286q6 49 71 49v-2l-8 2h745l15 4q41 0 49 -57q-10 -43 -59 -43h-717v-561h479l53 4q31 0 43 -54q0 -31 -41 -49l-69 4h-465v-532h735q33 0 39 -53 q-12 -45 -41 -45h-780q-49 8 -49 47z" />
<glyph unicode="&#x389;" horiz-adv-x="1464" d="M41 1208v4q0 25 109 146q31 43 51 43q51 -12 51 -45v-8q0 -18 -78 -107q-55 -82 -92 -82h-4q-28 0 -37 49zM326 82v1272q6 57 39 57h12q47 -10 47 -35v-622h762v610q8 47 43 47h8q45 -8 45 -43v-1300q0 -31 -49 -39q-47 8 -47 47v586h-762v-590q0 -34 -49 -43h-2 q-37 0 -47 53z" />
<glyph unicode="&#x38a;" horiz-adv-x="747" d="M23 1235v4q0 25 108 145q31 43 51 43q51 -12 51 -45v-8q0 -20 -75 -104q-55 -82 -95 -82h-4q-28 0 -36 47zM319 72v2q8 51 41 51h48v1196h-41q-41 0 -48 55v4q0 25 50 41l16 -2h145l13 2q51 -8 51 -47q-10 -53 -47 -53h-41v-1196h49q31 0 39 -51q-8 -49 -47 -49h-178 q-50 8 -50 47z" />
<glyph unicode="&#x38c;" horiz-adv-x="1732" d="M33 1231v4q0 27 106 145q31 43 51 43q51 -12 52 -45v-8q0 -20 -76 -104q-55 -82 -92 -82h-4q-29 0 -37 47zM195 721q0 332 290 559q186 129 402 129q350 0 586 -324q106 -182 106 -370q0 -347 -313 -578q-176 -113 -371 -112h-16q-352 0 -582 333q-102 168 -102 363z M291 711q0 -289 252 -482q156 -106 336 -106h18q281 0 473 248q113 162 113 348q0 323 -295 510q-150 84 -301 84q-295 0 -490 -256q-106 -151 -106 -346z" />
<glyph unicode="&#x38e;" horiz-adv-x="1456" d="M49 1227v4q0 23 109 143q31 43 51 43q51 -12 51 -45v-6q0 -23 -76 -106q-55 -82 -94 -82h-4q-28 0 -37 49zM375 1360q12 49 39 49h16q33 0 57 -59l355 -531h28q381 573 390 580q14 10 20 10h23q27 0 38 -51q0 -18 -124 -193l-312 -463v-618q-6 -59 -39 -59h-16 q-31 0 -43 41v616q0 20 -164 264l-264 402z" />
<glyph unicode="&#x38f;" horiz-adv-x="1644" d="M16 1223v4q0 23 109 143q31 43 51 43q51 -12 51 -45v-6q0 -23 -75 -107q-55 -82 -95 -81h-4q-28 0 -37 49zM57 725q0 324 299 557q190 129 400 129q356 0 592 -328q106 -188 106 -358q0 -330 -246 -545h-20v-53h186q51 -10 51 -39v-12q-10 -47 -45 -47h-491q-35 0 -45 53 q12 45 43 45q115 0 307 164q166 197 166 426q0 283 -254 487q-170 109 -336 109h-29q-285 0 -481 -258q-109 -168 -108 -338q0 -346 317 -537q53 -33 180 -63q29 -12 29 -43q-14 -49 -47 -49h-484q-53 12 -53 49q12 51 49 51h185v39q-102 78 -168 180q-103 178 -103 381z " />
<glyph unicode="&#x390;" horiz-adv-x="739" d="M45 1614q14 57 51 57q59 -16 60 -53q-12 -57 -54 -57q-57 12 -57 53zM197 72v2q8 51 41 51h47v1196h-41q-41 0 -47 55v4q0 25 49 41l14 -2h148l12 2q51 -8 51 -47q-10 -53 -47 -53h-41v-1196h47q33 0 41 -51q-8 -49 -47 -49h-178q-49 8 -49 47zM229 1561v4q0 23 109 143 q31 43 51 43q51 -12 51 -45v-6q0 -23 -75 -107q-55 -82 -95 -82h-4q-28 1 -37 50zM498 1614q14 57 51 57q57 -14 57 -53q-12 -57 -51 -57q-57 12 -57 53z" />
<glyph unicode="&#x391;" horiz-adv-x="1245" d="M35 72l127 340q340 887 362 964q23 27 41 27q49 0 78 -121q457 -1184 459 -1204v-10q0 -34 -49 -43h-2q-45 0 -70 110l-176 457h-473l-211 -553q-16 -14 -33 -14h-4q-49 8 -49 47zM373 688h383v35l-168 444h-39z" />
<glyph unicode="&#x392;" horiz-adv-x="989" d="M53 72v1284q6 49 72 49v-2l-8 2h233l15 2q158 0 272 -152q55 -84 55 -182v-10q0 -123 -114 -252q258 -143 258 -385q0 -244 -252 -373q-82 -29 -146 -28h-336q-49 8 -49 47zM150 123h221q233 0 311 133q53 76 53 170v6q0 221 -241 297l-111 8h-233v-614zM150 834h163 q203 0 262 147q16 39 17 86v10q0 164 -191 226l-82 4h-169v-473z" />
<glyph unicode="&#x393;" horiz-adv-x="1028" d="M57 78v1272q6 59 39 59h727q45 -8 45 -37v-18q0 -34 -49 -43h-665v-1243q0 -35 -48 -43h-2q-37 0 -47 53z" />
<glyph unicode="&#x394;" horiz-adv-x="1241" d="M41 74l496 1315q18 18 32 18h13q39 0 63 -98q461 -1201 467 -1235v-2q0 -31 -37 -47l-78 4h-843l-74 -4q-39 14 -39 49zM160 127h831q-389 1038 -432 1051z" />
<glyph unicode="&#x395;" horiz-adv-x="1107" d="M57 72v1286q6 49 72 49v-2l-8 2h745l15 4q41 0 49 -57q-8 -43 -60 -43h-716v-561h481l51 4q31 0 43 -54q0 -31 -41 -49l-70 4h-464v-532h737q31 0 37 -53q-12 -45 -41 -45h-781q-49 8 -49 47z" />
<glyph unicode="&#x396;" horiz-adv-x="1341" d="M84 82q0 18 176 237l770 996h-895q-51 12 -51 47q12 49 39 49h1020q35 0 43 -47v-2q0 -23 -76 -111l-874 -1128h901q49 -6 49 -47v-2q-10 -49 -47 -49h-1010q-37 0 -45 57z" />
<glyph unicode="&#x397;" horiz-adv-x="1222" d="M76 82v1272q6 57 39 57h12q45 -8 45 -35v-622h762v610q8 47 43 47h8q45 -8 45 -43v-1300q0 -31 -49 -39q-47 8 -47 47v586h-762v-590q0 -35 -47 -43h-2q-37 0 -47 53z" />
<glyph unicode="&#x398;" horiz-adv-x="1609" d="M70 719q0 330 290 557q188 131 402 131q344 0 584 -326q104 -184 104 -368q0 -346 -311 -576q-176 -113 -371 -112h-14q-356 0 -584 331q-100 164 -100 363zM168 709q0 -287 250 -480q156 -106 336 -106h18q276 0 471 246q111 160 111 348q0 324 -293 510 q-143 82 -299 82q-297 0 -488 -254q-106 -151 -106 -346zM356 709v14q0 31 50 39h710q49 -8 49 -45v-2q-10 -49 -47 -49h-717q-45 8 -45 43z" />
<glyph unicode="&#x399;" horiz-adv-x="579" d="M109 72v2q8 51 41 51h47v1196h-41q-41 0 -47 55v4q0 25 49 41l14 -2h147l13 2q51 -8 51 -47q-10 -53 -47 -53h-41v-1196h47q33 0 41 -51q-10 -49 -47 -49h-178q-49 8 -49 47z" />
<glyph unicode="&#x39a;" horiz-adv-x="1116" d="M45 78v1280q8 51 47 51h2q49 -9 49 -43v-713l734 733l26 5h2q45 -8 45 -43v-13q0 -25 -69 -82l-484 -485l543 -672l2 -14v-10q0 -35 -47 -43h-2q-31 0 -105 106l-462 563l-183 -186v-444q0 -34 -49 -43h-2q-37 0 -47 53z" />
<glyph unicode="&#x39b;" horiz-adv-x="1230" d="M35 78l497 1317q18 18 35 18h11q41 0 63 -98q461 -1196 469 -1241q-8 -49 -45 -49h-4q-35 0 -53 53q-412 1102 -453 1102l-430 -1137q-23 -18 -39 -18h-4q-37 0 -47 53z" />
<glyph unicode="&#x39c;" horiz-adv-x="1478" d="M59 78v1270q6 59 39 59h17q35 0 57 -82l498 -1110q47 57 366 784l185 396q12 12 26 12h17q33 0 39 -59v-1270q-10 -53 -48 -53h-2q-49 9 -49 43v966h-45q-432 -979 -440 -991q-23 -18 -37 -18q-49 0 -94 143l-385 862h-45v-962q0 -34 -49 -43h-3q-37 0 -47 53z" />
<glyph unicode="&#x39d;" horiz-adv-x="1327" d="M66 82v1266q6 59 38 59h17q31 0 61 -66q70 -76 830 -1060q-4 0 -4 6l16 -23h41v1098q8 45 43 45h10q34 0 43 -49v-1282q0 -43 -55 -51q-28 0 -111 122l-831 1061v-1136q0 -34 -49 -43h-2q-37 0 -47 53z" />
<glyph unicode="&#x39e;" horiz-adv-x="1157" d="M43 1358q12 49 41 49h872q45 -8 45 -43v-14q0 -33 -59 -39h-846q-53 12 -53 47zM45 76q12 47 45 47h862q49 -9 49 -43v-10q-8 -45 -43 -45h-868q-35 0 -45 51zM160 729q12 49 45 49h635q49 -8 49 -47v-2q-8 -47 -47 -47h-637q-37 0 -45 47z" />
<glyph unicode="&#x39f;" horiz-adv-x="1619" d="M76 721q0 332 291 559q186 129 401 129q350 0 586 -324q106 -182 106 -370q0 -347 -313 -578q-176 -113 -373 -112h-14q-354 0 -584 333q-100 164 -100 363zM172 711q0 -289 252 -482q156 -106 336 -106h18q281 0 473 248q113 162 113 348q0 322 -297 510 q-150 84 -299 84q-295 0 -489 -256q-107 -151 -107 -346z" />
<glyph unicode="&#x3a0;" horiz-adv-x="1183" d="M66 78v1268q6 61 38 61h871q45 -8 45 -43v-1301q0 -31 -49 -38h2q-49 8 -49 47v1237h-760v-1241q0 -34 -49 -43h-2q-37 0 -47 53z" />
<glyph unicode="&#x3a1;" horiz-adv-x="944" d="M57 78v1276q6 59 39 59h346q188 0 324 -196q49 -102 49 -181v-26q0 -176 -162 -308q-109 -74 -211 -73h-286v-561q0 -34 -50 -43h-2q-37 0 -47 53zM156 725h260q207 0 284 199q16 39 17 100q0 184 -187 270q-43 20 -106 21h-268v-590z" />
<glyph unicode="&#x3a3;" horiz-adv-x="1122" d="M72 72q0 16 69 78l437 503l-500 576q-6 8 -6 16q10 45 34 45h801q39 -8 39 -39v-14q0 -27 -51 -33h-684q438 -502 463 -534l2 -15v-8q0 -25 -70 -88l-354 -412v-36h651q43 -8 43 -37v-8q-10 -41 -37 -41h-796q-31 0 -41 47z" />
<glyph unicode="&#x3a4;" horiz-adv-x="1261" d="M66 1362q12 49 38 49h930q45 -8 45 -43v-14q0 -33 -57 -39h-401v-1247q0 -34 -50 -43q-37 0 -47 53v1237h-405q-53 12 -53 47z" />
<glyph unicode="&#x3a5;" horiz-adv-x="1236" d="M78 1360q12 49 39 49h16q31 0 55 -59l355 -531h30q381 573 390 580q16 10 18 10h25q27 0 38 -51q0 -23 -124 -193l-312 -463v-618q-6 -59 -39 -59h-16q-31 0 -43 41v616q0 20 -164 264l-266 402z" />
<glyph unicode="&#x3a6;" horiz-adv-x="1628" d="M59 723q0 250 267 430q113 82 379 121v92q8 47 43 47h10q45 -8 45 -43v-98q199 -14 389 -121q260 -184 260 -432q0 -233 -242 -414q-117 -88 -325 -129q-82 -2 -82 -35v-75q0 -33 -49 -41q-49 8 -49 47v100h-29q-135 0 -334 104q-283 183 -283 447zM158 723 q0 -279 329 -434q129 -43 218 -43v954q-221 -25 -375 -141q-172 -154 -172 -336zM803 246h28q156 0 355 137q164 152 164 319v35q0 224 -258 381q-94 57 -289 84v-956z" />
<glyph unicode="&#x3a7;" horiz-adv-x="1337" d="M68 72v12q0 14 157 207l334 434q-477 602 -489 627l-2 14q12 45 38 45h17q28 0 49 -43l446 -571l476 610q6 4 20 4h12q35 0 43 -47v-2q0 -23 -96 -135l-395 -510l485 -623l6 -20q-10 -49 -47 -49h-4q-34 0 -61 61l-439 557l-477 -610q-8 -8 -22 -8h-2q-49 8 -49 47z" />
<glyph unicode="&#x3a8;" horiz-adv-x="1341" d="M59 1055v299q6 57 39 57h13q47 -10 47 -35v-315q12 -147 43 -215q92 -175 258 -234l100 -26v766q6 59 39 59h12q47 -10 47 -35v-782h29q115 6 260 139q119 141 119 350v283q8 45 43 45h10q35 0 43 -47v-334q0 -311 -307 -491q-129 -51 -197 -52v-419q0 -34 -49 -43h-2 q-35 0 -47 53v407q-100 8 -244 82q-256 177 -256 488z" />
<glyph unicode="&#x3a9;" horiz-adv-x="1656" d="M57 725q0 324 299 557q190 129 400 129q356 0 592 -328q106 -188 106 -358q0 -330 -246 -545h-20v-53h186q51 -10 51 -39v-12q-10 -47 -45 -47h-491q-35 0 -45 53q12 45 43 45q115 0 307 164q166 197 166 426q0 283 -254 487q-170 109 -336 109h-29q-285 0 -481 -258 q-109 -168 -108 -338q0 -346 317 -537q53 -33 180 -63q29 -12 29 -43q-14 -49 -47 -49h-484q-53 12 -53 49q12 51 49 51h185v39q-102 78 -168 180q-103 178 -103 381z" />
<glyph unicode="&#x3aa;" horiz-adv-x="647" d="M80 1610q12 49 39 49h12q45 -8 45 -37v-18q0 -33 -47 -43q-49 8 -49 49zM139 72q10 51 39 51h49v1182h-41q-41 0 -47 55v4q0 25 49 41l15 -2h145l12 2q49 -8 50 -47q-10 -53 -45 -53h-41v-1182h47q31 0 39 -49q-8 -49 -45 -49h-177q-49 8 -49 47zM367 1608v12q0 31 45 39 h6q45 -8 45 -39v-12q0 -39 -49 -47q-47 10 -47 47z" />
<glyph unicode="&#x3ab;" horiz-adv-x="1214" d="M57 1360q12 49 39 49h17q31 0 55 -59l354 -531h31q383 578 387 580q16 10 21 10h22q29 0 41 -51q0 -18 -127 -193l-309 -463v-618q-6 -59 -39 -59h-17q-31 0 -43 41v616q0 20 -163 264l-267 402zM348 1614q12 49 39 49h12q45 -8 45 -37v-18q0 -33 -47 -43q-49 8 -49 49z M635 1612v10q0 33 45 41h4q47 -10 47 -41v-10q0 -39 -49 -47q-47 10 -47 47z" />
<glyph unicode="&#x3ac;" horiz-adv-x="1413" d="M63 508q0 258 250 422q119 59 236 59q246 0 405 -227l50 -98q33 53 126 303q16 23 39 22q51 -8 52 -47q-2 -14 -160 -434q160 -422 160 -430q-12 -53 -50 -53q-49 0 -84 141l-57 156h-43q-53 -129 -164 -205q-117 -92 -280 -92h-17q-190 0 -360 184q-103 145 -103 299z M158 508q0 -233 233 -356q84 -31 162 -31q223 0 348 231l55 156q-68 236 -186 313q-102 72 -213 72h-18q-211 0 -334 -203q-47 -98 -47 -182zM485 1202v4q0 25 109 146q31 43 51 43q51 -12 51 -45v-7q0 -23 -75 -106q-55 -82 -95 -82h-4q-29 0 -37 47z" />
<glyph unicode="&#x3ad;" horiz-adv-x="899" d="M63 729q0 172 222 256l63 6h37q150 0 299 -155q18 -20 18 -37v-8q0 -39 -63 -48q-31 0 -90 78q-106 72 -176 72h-23q-109 0 -166 -131v-55q0 -88 123 -138q25 -10 58 -10h65q59 -10 59 -47v-6q0 -45 -88 -45q-141 0 -194 -109l-14 -59q31 -168 184 -168h4q121 0 240 137 q20 10 34 10q53 0 62 -57v2q-25 -72 -168 -149q-82 -43 -168 -43h-16q-172 0 -271 170q-18 55 -18 100q0 102 117 211q-130 110 -130 223zM326 1198v4q0 25 108 146q31 43 51 43q51 -12 52 -45v-7q0 -23 -76 -106q-55 -82 -94 -82h-5q-28 0 -36 47z" />
<glyph unicode="&#x3ae;" horiz-adv-x="1189" d="M59 70v845q6 59 45 60q47 -12 48 -37v-137q193 174 374 174q195 0 348 -164q111 -138 111 -289v-880q0 -29 -49 -35q-43 12 -43 43v825q0 292 -258 387q-66 16 -109 17h-12q-213 0 -330 -220q-33 -76 -32 -213v-385q0 -31 -48 -41q-35 1 -45 50zM440 1182v4q0 25 109 145 q31 43 49 43q51 -12 51 -45v-6q0 -23 -76 -106q-55 -82 -92 -82h-4q-29 0 -37 47z" />
<glyph unicode="&#x3af;" horiz-adv-x="466" d="M90 1174v4q0 25 109 145q31 43 51 43q49 -12 49 -45v-6q0 -23 -76 -107q-55 -82 -92 -82h-4q-29 1 -37 48zM129 76v846q6 61 45 61q49 -12 49 -39v-878q0 -31 -47 -41h-2q-37 0 -45 51z" />
<glyph unicode="&#x3b0;" horiz-adv-x="1202" d="M84 520v400q6 59 45 59q47 -12 47 -37v-391q0 -264 156 -358q95 -74 215 -74q229 0 346 235q23 70 22 152v424q10 49 46 49q49 -12 49 -45v-465q0 -207 -199 -360q-127 -84 -254 -84h-25q-215 0 -374 213q-74 113 -74 282zM266 1227q14 57 51 57q59 -16 60 -53 q-12 -57 -53 -57q-58 12 -58 53zM451 1174v4q0 25 108 145q31 43 51 43q51 -12 52 -45v-8q0 -23 -76 -107q-55 -82 -94 -82h-5q-27 1 -36 50zM719 1227q14 57 51 57q57 -14 57 -53q-12 -57 -53 -57q-55 12 -55 53z" />
<glyph unicode="&#x3b1;" horiz-adv-x="1413" d="M76 508q0 258 250 422q119 59 235 59q246 0 406 -227l49 -98q39 61 129 303q16 23 39 22q51 -8 51 -47q0 -4 -162 -434q162 -426 162 -430q-12 -53 -49 -53q-51 0 -84 141l-60 156h-41q-51 -127 -165 -205q-117 -92 -281 -92h-14q-194 0 -363 184q-102 145 -102 299z M170 508q0 -233 233 -356q84 -31 162 -31q225 0 350 231l56 156q-68 236 -187 313q-102 72 -215 72h-18q-211 0 -334 -203q-47 -98 -47 -182z" />
<glyph unicode="&#x3b2;" horiz-adv-x="997" d="M68 -281v629v131v592q0 176 194 299q88 39 164 39h4q221 0 334 -223q25 -63 24 -127v-15q0 -147 -137 -276v-29q190 -126 191 -331q0 -215 -224 -345q-86 -35 -169 -34q-119 0 -281 112v-487q0 -53 -47 -53t-53 41v77zM168 401q0 -131 121 -221q74 -51 164 -51 q205 0 276 213l10 57v17q0 201 -223 274l-57 4h-129q-51 10 -51 47v17q0 27 47 39h61q215 0 281 159q16 47 16 88v19q0 174 -203 242l-55 4q-184 0 -252 -199l-6 -111v-598z" />
<glyph unicode="&#x3b3;" horiz-adv-x="1056" d="M92 932q8 51 51 51q47 0 80 -125l250 -618h41q283 715 295 727q27 16 35 16q51 -8 51 -49q0 -16 -346 -862l-8 -35v-404q0 -35 -52 -45q-45 8 -45 45v412q0 25 -348 868z" />
<glyph unicode="&#x3b4;" horiz-adv-x="1232" d="M63 518q0 264 250 426q115 57 238 57l-434 328q-12 14 -13 29q10 49 68 49v2l12 -2h707q51 -8 51 -47v-6q-8 -45 -68 -45h-569l574 -420q170 -164 170 -371q0 -276 -265 -436q-113 -57 -217 -57h-30q-197 0 -369 188q-105 147 -105 305zM164 510q0 -221 213 -342 q82 -41 168 -41h22q229 0 351 238q29 76 28 145v18q0 186 -168 312q-104 70 -225 69q-254 0 -369 -262q-20 -61 -20 -119v-18z" />
<glyph unicode="&#x3b5;" horiz-adv-x="894" d="M63 729q0 172 222 256l63 6h37q150 0 299 -155q18 -20 18 -37v-8q0 -39 -63 -48q-31 0 -90 78q-106 72 -176 72h-23q-109 0 -166 -131v-55q0 -88 123 -138q25 -10 58 -10h65q59 -10 59 -47v-6q0 -45 -88 -45q-141 0 -194 -109l-14 -59q31 -168 184 -168h4q121 0 240 137 q20 10 34 10q53 0 62 -57v2q-25 -72 -168 -149q-82 -43 -168 -43h-16q-172 0 -271 170q-18 55 -18 100q0 102 117 211q-130 110 -130 223z" />
<glyph unicode="&#x3b6;" horiz-adv-x="1050" d="M127 547v41q0 252 264 461l297 264h-430q-51 8 -51 47v2q8 47 43 47h581q47 -10 48 -35v-18q0 -29 -62 -60q-432 -383 -495 -448q-98 -129 -99 -283q0 -248 234 -389q94 -57 254 -57q111 -27 163 -96q57 -76 58 -160v-4q0 -184 -205 -252q-49 8 -49 39v14q0 37 76 57 q84 55 84 146q0 100 -105 149l-45 13l-35 -5q-219 0 -407 203q-119 162 -119 324z" />
<glyph unicode="&#x3b7;" horiz-adv-x="1177" d="M59 70v845q6 59 45 60q47 -12 48 -37v-137q193 174 374 174q195 0 348 -164q111 -138 111 -289v-880q0 -29 -49 -35q-43 12 -43 43v825q0 292 -258 387q-66 16 -109 17h-12q-213 0 -330 -220q-33 -76 -32 -213v-385q0 -31 -48 -41q-35 1 -45 50z" />
<glyph unicode="&#x3b8;" horiz-adv-x="1157" d="M115 711v12q0 270 94 483q133 199 323 199q229 0 355 -248q70 -211 69 -397v-86q0 -223 -92 -451q-131 -199 -323 -198h-13q-211 0 -333 227q-80 207 -80 459zM195 766h675q0 195 -82 397q-106 150 -251 150q-170 0 -265 -174q-61 -170 -65 -289zM199 670q6 -188 73 -387 q100 -164 254 -164h11q262 0 315 362q18 109 18 189h-671z" />
<glyph unicode="&#x3b9;" horiz-adv-x="440" d="M117 76v846q6 61 47 61q47 -12 47 -39v-878q0 -31 -47 -41h-2q-37 0 -45 51z" />
<glyph unicode="&#x3ba;" horiz-adv-x="1085" d="M74 72v921q10 47 45 56h14q35 -10 37 -58v-409q565 375 657 426h13q37 0 47 -56q0 -29 -111 -88q-285 -193 -317 -200v-33l424 -541l4 -12q-10 -49 -47 -49h-9q-29 0 -112 118l-348 435h-23l-178 -113v-401q0 -35 -47 -43h-2q-35 0 -47 47z" />
<glyph unicode="&#x3bb;" horiz-adv-x="1118" d="M51 133l236 498l145 305l-174 375q-20 76 29 88q51 12 69 -41l600 -1258q10 -72 -34.5 -73.5t-69.5 41.5l-338 700h-37q-313 -674 -352 -727q-29 -35 -70 -14.5t-4 106.5z" />
<glyph unicode="&#x3bc;" horiz-adv-x="1198" d="M72 -338v1258q6 59 45 59q47 -12 47 -37v-393q0 -266 153 -359q96 -74 218 -73q229 0 346 235q23 70 22 154v424q10 49 45 49q49 -12 49 -45v-873q0 -27 -47 -36q-47 10 -47 43v96h-39q-156 -139 -319 -139h-27q-162 0 -354 174v-553q0 -25 -51 -37q-29 0 -41 53z" />
<glyph unicode="&#x3bd;" horiz-adv-x="1218" d="M88 946v12q8 45 43 46h6q43 0 80 -109l344 -709q373 788 389 805q18 12 31 13q51 -8 51 -46v-4q0 -14 -162 -350l-274 -565q-16 -14 -35 -14h-2q-47 0 -90 129q-367 751 -381 792z" />
<glyph unicode="&#x3be;" horiz-adv-x="950" d="M84 1116q0 172 178 268q53 25 121 25h178q51 -10 51 -47v-2q-10 -51 -49 -51h-166q-160 0 -207 -148l-10 -47q29 -201 203 -201h4l88 19q49 -12 49 -39v-25q0 -37 -98 -51q-225 -115 -225 -323v-27q0 -205 209 -315q37 -23 221 -41q190 -74 190 -250v-4q0 -180 -205 -252 q-51 8 -51 39v14q0 35 78 57q82 55 82 148q-28 160 -166 160l-10 -5q-221 0 -381 222q-70 129 -70 237q0 186 166 361q-180 106 -180 278z" />
<glyph unicode="&#x3bf;" horiz-adv-x="1243" d="M84 502q0 233 207 391q132 86 270 86q186 0 334 -139q143 -150 143 -338q0 -266 -254 -420q-115 -57 -213 -57h-28q-193 0 -359 182q-100 139 -100 295zM180 496q0 -213 207 -334q76 -39 164 -39h20q223 0 342 229q27 72 27 144v16q0 180 -162 303q-98 68 -221 68 q-246 0 -356 -254q-20 -61 -21 -117v-16z" />
<glyph unicode="&#x3c0;" horiz-adv-x="1163" d="M68 934q10 47 65 47h10h772l37 2q45 -16 45 -41v-10q0 -29 -41 -45l-55 4h-45v-825q0 -33 -45 -41h-2q-37 0 -45 51v815h-463v-828q0 -29 -47 -38q-47 10 -47 45v821h-43l-55 -4q-41 16 -41 47z" />
<glyph unicode="&#x3c1;" horiz-adv-x="1185" d="M59 -340v819q0 371 347 496q39 10 137 20q186 0 336 -141q145 -152 145 -342q0 -272 -258 -426q-111 -55 -213 -55h-31q-168 0 -368 182v-565q0 -27 -54 -39q-29 0 -41 51zM158 506q0 -215 209 -336q78 -41 163 -41h23q225 0 344 233q29 76 29 144v18q0 182 -166 305 q-98 68 -223 68q-246 0 -359 -258q-20 -61 -20 -115v-18z" />
<glyph unicode="&#x3c2;" horiz-adv-x="995" d="M80 481v45q0 242 248 406q127 61 231 61q147 0 148 -59v-16q-12 -43 -48 -44h-10l-84 13q-242 0 -356 -244q-18 -41 -27 -135q0 -242 252 -358q72 -16 203 -29q201 -78 201 -262v-4q0 -195 -215 -269h-2q-53 12 -54 43v17q0 39 82 61q86 59 86 152q0 119 -131 164l-31 6 l-14 -6q-268 0 -426 264q-53 106 -53 194z" />
<glyph unicode="&#x3c3;" horiz-adv-x="1353" d="M55 487v33q0 217 217 383q143 78 242 78l80 -4h520l31 4q43 -14 43 -39v-20q0 -20 -39 -37l-57 4h-269q188 -201 189 -385q0 -242 -221 -402q-127 -78 -246 -77h-31q-201 0 -360 188q-99 135 -99 274zM147 504q0 -236 240 -359q70 -23 127 -22h35q190 0 313 186 q51 88 51 201q0 209 -202 332q-86 43 -185 43q-209 0 -331 -201q-48 -98 -48 -180z" />
<glyph unicode="&#x3c4;" horiz-adv-x="1185" d="M80 936q10 47 65 47h13h782l29 4q43 -12 43 -45v-8q0 -29 -37 -45l-57 4h-322v-817q-8 -51 -45 -51h-2q-47 10 -47 41v827h-326l-53 -4q-43 16 -43 47z" />
<glyph unicode="&#x3c5;" horiz-adv-x="1214" d="M84 520v400q6 59 45 59q47 -12 47 -37v-391q0 -264 156 -358q95 -74 215 -74q229 0 346 235q23 70 22 152v424q10 49 46 49q49 -12 49 -45v-465q0 -207 -199 -360q-127 -84 -254 -84h-25q-215 0 -374 213q-74 113 -74 282z" />
<glyph unicode="&#x3c6;" horiz-adv-x="1212" d="M35 541q0 236 217 403q16 10 29 10h8q47 -10 47 -43v-16q0 -18 -68 -66q-129 -135 -129 -274v-41q0 -209 213 -340l121 -43v649q0 127 150 195l57 10h27q135 0 268 -207q66 -121 65 -241q0 -293 -278 -455q-119 -47 -187 -47v-387q0 -41 -55 -51q-47 12 -47 43v395 q-123 16 -248 102q-190 166 -190 404zM575 137h29q102 10 234 125q100 127 100 252v41q0 182 -195 322l-45 10q-86 0 -120 -90l-3 -39v-621z" />
<glyph unicode="&#x3c7;" horiz-adv-x="1236" d="M113 -352v-2q10 39 278 440q23 43 127 197l-405 643v6q8 51 49 51q39 0 90 -106l305 -478h35q319 510 369 572q12 9 24 12q51 -10 51 -49q0 -25 -178 -287l-219 -348q0 -27 324 -526q74 -111 73 -129q-12 -51 -47 -52q-41 0 -92 107q-47 66 -305 475h-35 q-342 -547 -367 -569q-12 -10 -32 -13q-33 1 -45 56z" />
<glyph unicode="&#x3c8;" horiz-adv-x="1374" d="M84 600v334q8 59 51 59h2q49 -6 49 -47v-303q0 -272 140 -387q74 -86 215 -117l49 -10v801q6 59 41 59h12q47 -10 47 -35v-819h29q113 6 250 129q127 131 127 348v332q9 49 49 49h4q49 0 49 -86v-325q0 -336 -332 -514q-111 -39 -176 -39v-344q0 -33 -51 -43 q-41 0 -49 53v332q-111 8 -260 90q-246 184 -246 483z" />
<glyph unicode="&#x3c9;" horiz-adv-x="1320" d="M63 313q0 348 183 662q16 16 30 16h7q45 -8 45 -45v-4q0 -4 -82 -174q-88 -227 -88 -426v-29q0 -135 149 -186l43 -6q152 0 201 164l4 90v319l-4 37q14 43 41 43h10q37 0 43 -59v-373l2 -29l-2 -10q0 -109 137 -178l60 -8q145 0 196 155l4 41v29q0 274 -170 590v8 q10 47 43 47h5q39 0 81 -108q135 -281 136 -566q0 -176 -185 -268q-47 -20 -98 -20h-20q-121 0 -240 129q-109 -125 -232 -125h-14q-180 0 -268 192q-17 59 -17 92z" />
<glyph unicode="&#x3ca;" horiz-adv-x="587" d="M74 1161q12 49 39 49h12q45 -8 45 -34v-19q0 -35 -45 -43q-51 10 -51 47zM221 76v846q6 61 47 61q47 -12 47 -39v-878q0 -31 -47 -41h-2q-37 0 -45 51zM360 1161v10q0 31 46 39h6q45 -8 45 -39v-10q0 -39 -49 -47q-48 10 -48 47z" />
<glyph unicode="&#x3cb;" horiz-adv-x="1206" d="M84 520v400q6 59 45 59q47 -12 47 -37v-391q0 -264 156 -358q95 -74 215 -74q229 0 346 235q23 70 22 152v424q10 49 46 49q49 -12 49 -45v-465q0 -207 -199 -360q-127 -84 -254 -84h-25q-215 0 -374 213q-74 113 -74 282zM342 1196q12 49 41 49h10q47 -10 47 -35v-18 q0 -33 -47 -43q-51 10 -51 47zM629 1196v10q0 29 47 39h4q45 -8 45 -39v-10q0 -37 -49 -47q-47 10 -47 47z" />
<glyph unicode="&#x3cc;" horiz-adv-x="1228" d="M84 502q0 233 207 391q132 86 270 86q186 0 334 -139q143 -150 143 -338q0 -266 -254 -420q-115 -57 -213 -57h-28q-193 0 -359 182q-100 139 -100 295zM180 496q0 -213 207 -334q76 -39 164 -39h20q223 0 342 229q27 72 27 144v16q0 180 -162 303q-98 68 -221 68 q-246 0 -356 -254q-20 -61 -21 -117v-16zM434 1169v5q0 25 109 145q31 43 51 43q49 -12 49 -45v-6q0 -23 -76 -107q-55 -82 -92 -82h-4q-29 0 -37 47z" />
<glyph unicode="&#x3cd;" horiz-adv-x="1177" d="M84 520v400q6 59 45 59q47 -12 47 -37v-391q0 -264 156 -358q95 -74 215 -74q229 0 346 235q23 70 22 152v424q10 49 46 49q49 -12 49 -45v-465q0 -207 -199 -360q-127 -84 -254 -84h-25q-215 0 -374 213q-74 113 -74 282zM438 1196v4q0 25 109 146q31 43 51 43 q51 -12 51 -46v-8q0 -20 -76 -104q-55 -82 -94 -82h-4q-29 0 -37 47z" />
<glyph unicode="&#x3ce;" horiz-adv-x="1308" d="M63 313q0 348 183 662q16 16 30 16h7q45 -8 45 -45v-4q0 -4 -82 -174q-88 -227 -88 -426v-29q0 -135 149 -186l43 -6q152 0 201 164l4 90v319l-4 37q14 43 41 43h10q37 0 43 -59v-373l2 -29l-2 -10q0 -109 137 -178l60 -8q145 0 196 155l4 41v29q0 274 -170 590v8 q10 47 43 47h5q39 0 81 -108q135 -281 136 -566q0 -176 -185 -268q-47 -20 -98 -20h-20q-121 0 -240 129q-109 -125 -232 -125h-14q-180 0 -268 192q-17 59 -17 92zM518 1184v4q0 23 109 143q31 43 51 43q51 -12 51 -45v-6q0 -23 -76 -106q-55 -82 -94 -82h-4q-28 0 -37 49z " />
<glyph unicode="&#x2000;" horiz-adv-x="917" />
<glyph unicode="&#x2001;" horiz-adv-x="1837" />
<glyph unicode="&#x2002;" horiz-adv-x="917" />
<glyph unicode="&#x2003;" horiz-adv-x="1837" />
<glyph unicode="&#x2004;" horiz-adv-x="610" />
<glyph unicode="&#x2005;" horiz-adv-x="458" />
<glyph unicode="&#x2006;" horiz-adv-x="305" />
<glyph unicode="&#x2007;" horiz-adv-x="305" />
<glyph unicode="&#x2008;" horiz-adv-x="227" />
<glyph unicode="&#x2009;" horiz-adv-x="366" />
<glyph unicode="&#x200a;" horiz-adv-x="100" />
<glyph unicode="&#x2010;" horiz-adv-x="669" d="M68 573q14 49 51 50h399q39 0 51 -56q-12 -51 -51 -51h-399q-45 0 -51 57z" />
<glyph unicode="&#x2011;" horiz-adv-x="669" d="M68 573q14 49 51 50h399q39 0 51 -56q-12 -51 -51 -51h-399q-45 0 -51 57z" />
<glyph unicode="&#x2012;" horiz-adv-x="669" d="M68 573q14 49 51 50h399q39 0 51 -56q-12 -51 -51 -51h-399q-45 0 -51 57z" />
<glyph unicode="&#x2013;" horiz-adv-x="1107" d="M84 430q10 53 72 53h14h723l35 4q39 0 51 -59q0 -33 -45 -51l-62 4h-682l-59 -4q-47 18 -47 53z" />
<glyph unicode="&#x2014;" horiz-adv-x="2048" d="M0 498q10 53 72 53v2l14 -2h1827l35 4q39 0 51 -57q0 -35 -45 -54l-62 5h-1786l-59 -5q-47 19 -47 54z" />
<glyph unicode="&#x2015;" horiz-adv-x="2004" d="M92 537q10 53 74 53v2l12 -2h1604l33 4q49 -16 49 -51v-8q0 -33 -43 -52l-64 4h-1558l-60 -4q-47 19 -47 54z" />
<glyph unicode="&#x2017;" horiz-adv-x="950" d="M-2 -100q12 47 47 47h883q53 -10 53 -45v-11q-10 -47 -45 -47h-891q-41 1 -47 56z" />
<glyph unicode="&#x2018;" horiz-adv-x="555" d="M176 1296q0 123 131 234l33 10q2 0 2 -4v-4q-59 -143 -59 -250q0 -66 49 -147l2 -15q0 -41 -62 -53q-71 0 -96 229z" />
<glyph unicode="&#x2019;" horiz-adv-x="555" d="M184 1069q61 143 62 242v12q0 66 -49 150v10q10 51 39 51h28q61 0 86 -213v-18q0 -117 -133 -228q-22 -12 -24 -12q-5 2 -9 6z" />
<glyph unicode="&#x201a;" horiz-adv-x="555" d="M180 -268q59 139 60 239v13q0 72 -47 151v10q8 49 38 50h27q63 0 88 -213v-19q0 -115 -133 -225q-22 -12 -25 -12q-4 2 -8 6z" />
<glyph unicode="&#x201b;" horiz-adv-x="448" d="M106 1292v19q25 213 89 213h28q29 0 39 -51v-11q-49 -82 -49 -149v-13q0 -96 61 -241q-4 -4 -8 -6q-3 0 -24 12q-136 110 -136 227z" />
<glyph unicode="&#x201c;" horiz-adv-x="909" d="M223 1317q0 123 133 233l31 13q2 0 2 -7v-4q-59 -143 -59 -247q0 -68 49 -150l4 -12q0 -41 -61 -53q-74 0 -99 227zM512 1266v65q0 98 127 209q20 14 31 14q8 -2 8 -6q-63 -139 -64 -248q0 -70 52 -159v-2q-10 -53 -48 -54h-16q-59 1 -90 181z" />
<glyph unicode="&#x201d;" horiz-adv-x="909" d="M219 1092q61 145 62 241v13q0 68 -50 149v10q10 51 39 51h29q61 0 86 -213v-18q0 -117 -131 -227q-20 -12 -27 -13q-4 3 -8 7zM516 1096q59 137 59 254q0 72 -47 145v23q12 43 47 43h13q72 0 94 -222v-6q0 -119 -131 -229l-33 -14q-2 0 -2 8v-2z" />
<glyph unicode="&#x201e;" horiz-adv-x="909" d="M203 -254q59 139 59 242v12q0 66 -49 150v10q10 51 41 51h27q63 0 88 -213v-18q0 -117 -133 -228q-22 -12 -25 -12q-4 2 -8 6zM498 -250q59 137 59 252q0 74 -47 148v22q12 41 47 41h12q74 0 95 -219v-6q0 -121 -132 -232l-32 -12q-2 0 -2 6z" />
<glyph unicode="&#x2020;" d="M133 999q10 53 72 54h14h217v313q10 49 47 49h13q39 0 47 -51v-311h219l35 4q35 0 51 -60q0 -33 -47 -51l-56 4h-202v-1249q0 -45 -58 -53q-49 12 -49 45v1257h-196l-60 -4q-47 18 -47 53z" />
<glyph unicode="&#x2021;" d="M135 61q12 55 43 56h262v833h-198l-60 -4q-47 18 -47 53q10 53 74 54h12h219v313q10 49 47 49h13q39 0 47 -51v-311h217l37 4q33 0 49 -60q0 -33 -47 -51l-55 4h-201v-833h260q31 0 43 -54q-8 -53 -55 -53h-248v-309q0 -43 -60 -53q-47 12 -47 45v317h-247q-58 12 -58 51 z" />
<glyph unicode="&#x2022;" horiz-adv-x="1024" d="M215 719q0 111 80 190q78 78 192.5 78t192.5 -78t78 -190.5t-80 -192.5t-193 -80q-111 0 -190.5 80t-79.5 193z" />
<glyph unicode="&#x2026;" horiz-adv-x="2048" d="M129 141q0 68 86 103q10 6 29 6q86 0 110 -105v-20q0 -57 -82 -94q-10 -6 -28 -6h-4q-93 -1 -111 116zM803 137q0 68 86 103q8 6 29 6q84 0 108 -105v-20q0 -57 -82 -94q-10 -6 -26 -7h-5q-92 0 -110 117zM1493 141q0 68 86 103q10 6 29 6q86 0 110 -105v-20 q0 -57 -82 -94q-10 -6 -28 -6h-4q-93 -1 -111 116z" />
<glyph unicode="&#x202f;" horiz-adv-x="366" />
<glyph unicode="&#x2030;" horiz-adv-x="2492" d="M147 1075q0 219 234 322q43 14 92 14h21q158 0 264 -141q61 -88 61 -191q0 -215 -225 -319q-66 -18 -105 -19h-8q-195 0 -299 191q-35 73 -35 143zM246 1071q0 -168 184 -229l43 -2h21q164 0 225 188l4 47q0 172 -182 234l-54 8q-168 0 -233 -178l-8 -58v-10zM291 63v17 q0 25 100 143l893 1180q10 8 25 8h8q45 -8 45 -45v-14q0 -14 -135 -187l-856 -1130q-20 -10 -29 -10q-51 9 -51 38zM836 348v23q0 178 178 284q86 43 157 43q195 0 310 -204q25 -74 24 -129v-13q0 -197 -207 -303q-66 -25 -127 -24h-8q-170 0 -280 165q-47 82 -47 158z M930 365q0 -168 176 -234l55 -8h19q160 0 225 182l4 39v27q0 168 -195 227l-43 2q-180 0 -237 -197zM1628 352v25q0 176 178 285q82 41 158 40q195 0 309 -202q27 -80 27 -131v-13q0 -193 -209 -301q-63 -25 -127 -24h-6q-172 0 -283 166q-47 81 -47 155zM1722 371 q0 -170 176 -236l58 -8h16q160 0 226 182l4 39v29q0 166 -195 225l-43 4q-178 0 -238 -198z" />
<glyph unicode="&#x2032;" horiz-adv-x="454" d="M100 1124q104 258 117 269q18 12 35 12h2q51 -8 51 -47v-21q0 -14 -162 -225q-8 -10 -16 -10h-8q-13 -1 -19 22z" />
<glyph unicode="&#x2033;" horiz-adv-x="671" d="M109 1124q104 258 116 269q18 12 33 12h2q53 -10 53 -47v-21q0 -14 -161 -225q-8 -10 -17 -10h-8q-12 -1 -18 22zM352 1112q0 6 109 254q27 27 45 27q55 -12 55 -56q0 -27 -102 -153q-61 -94 -76 -94h-12q-13 -1 -19 22z" />
<glyph unicode="&#x2039;" horiz-adv-x="630" d="M168 451v41q0 25 139 124q35 41 64 41h6q53 -10 53 -51v-4q0 -39 -106 -108l-15 -13v-26q121 -84 121 -119v-2q-10 -53 -47 -53h-21q-25 0 -190 151z" />
<glyph unicode="&#x203a;" horiz-adv-x="630" d="M92 324v4q0 37 105 104l24 37q-129 92 -129 127v2q12 55 55 55q25 0 152 -114q55 -34 55 -56v-37q0 -35 -102 -104q-72 -70 -105 -70h-2q-53 11 -53 52z" />
<glyph unicode="&#x203c;" horiz-adv-x="849" d="M111 102q16 78 69 78h6q80 -12 80 -65v-23q0 -52 -73 -67h-9q-57 -1 -73 77zM141 416v958q10 43 47 43h13q39 0 49 -47v-948q-12 -51 -51 -51q-58 8 -58 45zM514 102q16 78 70 78h6q80 -12 80 -65v-23q0 -53 -72 -67h-10q-58 -1 -74 77zM545 416v958q9 43 49 43h10 q39 0 49 -47v-948q-12 -51 -51 -51q-57 8 -57 45z" />
<glyph unicode="&#x203e;" horiz-adv-x="835" d="M115 1280q10 53 71 53h15h401l37 4q35 0 49 -57q0 -35 -47 -53l-55 4h-367l-57 -4q-47 18 -47 53z" />
<glyph unicode="&#x2044;" horiz-adv-x="460" d="M-502 4q0 25 111 158l975 1257q10 8 26 8h13q37 0 47 -53v-2q0 -20 -113 -155q-967 -1255 -975 -1260l-24 -10h-13q-35 0 -47 43v14z" />
<glyph unicode="&#x2215;" horiz-adv-x="460" d="M-502 4q0 25 111 158l975 1257q10 8 26 8h13q37 0 47 -53v-2q0 -20 -113 -155q-967 -1255 -975 -1260l-24 -10h-13q-35 0 -47 43v14z" />
<glyph unicode="&#x205f;" horiz-adv-x="458" />
<glyph unicode="&#x207f;" horiz-adv-x="786" d="M78 506v508q2 27 16 26q20 -6 21 -14v-104q135 119 233 118q113 0 203 -96q63 -78 63 -166v-280q0 -9 -18 -13h2q-18 2 -18 17v248q0 180 -162 241q-45 10 -70 10h-6q-135 0 -209 -137q-18 -37 -18 -133v-231q0 -10 -21 -15q-14 1 -16 21z" />
<glyph unicode="&#x20a3;" horiz-adv-x="1126" d="M-41 299v6q0 31 41 47l33 -4h147v1012q6 49 70 49v-2l-10 2h725l16 2q35 0 43 -55q-10 -45 -55 -45h-697v-561h467l52 4q27 0 38 -54q0 -29 -36 -47l-68 4h-453v-309h150l33 4q31 0 43 -53q0 -29 -39 -47l-58 4h-129v-164l4 -18q-12 -49 -45 -49h-4q-47 10 -47 47v184 h-125l-55 -4q-41 12 -41 47z" />
<glyph unicode="&#x20a4;" horiz-adv-x="944" d="M41 510v10q0 35 47 43h182l-18 107h-164q-47 8 -47 45q8 51 49 51h111q-109 193 -109 293q0 211 221 323q63 20 101 21h39q162 0 276 -152l2 -14q-12 -51 -49 -51q-25 0 -82 63q-76 57 -147 58h-25q-168 0 -235 -197l-3 -53q0 -63 78 -213l35 -78h270q53 -12 54 -47 q-12 -49 -39 -49h-238l17 -107h206q49 -10 50 -47v-2q-8 -47 -48 -47h-188q-23 0 -45 -90l-113 -254h418q25 0 64 88q20 20 37 20q53 -10 53 -51q0 -22 -68 -141q-14 -14 -33 -14h-553q-39 0 -47 51q0 10 142 317l22 74h-178q-45 8 -45 43z" />
<glyph unicode="&#x20a7;" horiz-adv-x="2027" d="M0 78v1276q6 59 39 59h346q188 0 324 -196q49 -102 49 -181v-59h139v332q6 57 39 57h10q45 -10 45 -35v-354h178l33 4q29 0 51 -90q53 39 70 49q106 55 211 55q240 0 379 -215l2 -22v-2q0 -37 -51 -45q-33 0 -78 75q-115 109 -252 109q-186 0 -295 -178l-4 -27 q0 -74 131 -86q414 -98 461 -115q92 -61 92 -155v-4q0 -139 -213 -260q-94 -41 -195 -41q-111 0 -235 71q-14 -76 -51 -75h-76q-160 0 -238 176q-14 49 -14 100v586h-160q-47 -111 -139 -185q-106 -74 -213 -73h-287v-561q0 -34 -49 -43h-2q-37 0 -47 53zM98 725h260 q207 0 285 199q16 39 16 100q0 184 -186 270q-43 20 -106 21h-269v-590zM991 324q0 -158 113 -199l153 -12q-76 76 -106 116q-10 16 -10 27v23q0 31 57 36q23 0 80 -84q106 -100 248 -100q170 0 282 162l9 29v8q0 71 -86 80q-487 106 -514 131q-84 66 -84 151q0 77 104 191 l-84 4h-162v-563z" />
<glyph unicode="&#x20ac;" horiz-adv-x="1191" d="M0 729q0 367 334 596q176 106 366 107q219 0 404 -129q8 -16 8 -29v-8q0 -41 -57 -47h4l-131 65q-145 45 -228 45q-279 0 -481 -244q-41 -59 -90 -178h780q49 -9 49 -49v-2q-8 -49 -47 -49h-802l-7 -78l7 -84h800q49 -10 49 -47v-2q-8 -49 -47 -49h-782 q106 -262 328 -367q125 -53 235 -53h13q174 0 348 109h12q47 -10 47 -43v-13q0 -61 -240 -133q-80 -23 -161 -22h-19q-348 0 -581 323q-111 187 -111 381z" />
<glyph unicode="&#x2105;" horiz-adv-x="1767" d="M51 1071q0 164 146 275q90 59 188 59q129 0 231 -94q4 -8 5 -13q-6 -27 -25 -26h-4q-8 0 -72 47q-63 33 -127 33h-14q-168 0 -254 -176q-20 -55 -21 -107q0 -170 175 -258q49 -20 112 -20q100 0 189 73l14 4h4q16 0 23 -26q0 -35 -152 -94q-57 -10 -76 -11h-20 q-133 0 -250 127q-72 103 -72 207zM289 63v23q0 16 137 186q813 1061 868 1125q10 8 25 8h12q34 0 43 -49q0 -25 -121 -164q-84 -117 -891 -1157q-16 -10 -28 -10q-45 11 -45 38zM965 358q0 158 141 267q90 59 184 59q123 0 230 -96q98 -100 98 -230q0 -184 -174 -288 q-78 -39 -146 -39h-20q-133 0 -246 125q-67 98 -67 202zM1018 352q0 -156 147 -239q57 -29 117 -29h16q160 0 246 166q20 61 21 102v13q0 131 -117 219q-68 47 -160 47q-178 0 -258 -182q-12 -37 -12 -84v-13z" />
<glyph unicode="&#x2113;" horiz-adv-x="845" d="M96 344q0 15 185 277l12 20v526q0 178 174 234l45 6q152 0 213 -166l8 -47v-18q0 -84 -119 -230l-225 -336v-368q0 -115 90 -115h25q61 25 74 25q29 0 40 -50q-18 -78 -139 -77.5t-180 139.5l-6 67v238q-113 -180 -141 -180h-9q-37 0 -47 55zM389 793q244 340 244 374v35 q0 80 -117 105h-6q-102 0 -121 -129v-385z" />
<glyph unicode="&#x2116;" horiz-adv-x="2269" d="M0 82v1266q6 59 39 59h14q33 0 64 -66q70 -76 829 -1060q-6 0 -6 6l16 -23h41v1098q8 45 43 45h13q34 0 43 -49v-1282q0 -41 -58 -51q-27 0 -108 122l-834 1061v-1136q0 -34 -49 -43q-37 0 -47 53zM1214 338q8 51 72 51v2l14 -2h723l35 4q39 0 51 -57q0 -33 -45 -51 l-61 4h-682l-59 -4q-48 18 -48 53zM1286 881q0 180 160 303q102 68 211 67q141 0 260 -108q111 -117 111 -262q0 -209 -197 -328q-86 -43 -166 -43h-23q-152 0 -278 139q-78 113 -78 232zM1352 874q0 -174 166 -268q61 -31 131 -31h16q178 0 274 185q23 63 23 114v15 q0 143 -131 241q-78 55 -176 56q-197 0 -287 -205q-16 -55 -16 -92v-15z" />
<glyph unicode="&#x2122;" horiz-adv-x="1495" d="M154 1405q2 10 6 10h432q8 -2 8 -6v-6q0 -4 -14 -6h-199v-594q0 -4 -10 -6q-4 0 -8 12v588h-203q-12 4 -12 8zM762 801v600q2 14 4 14h8q8 0 14 -29l246 -548q39 49 189 393l86 182q0 2 2 2h8q2 0 4 -14v-600q-4 -14 -8 -15q-12 4 -12 9v471h-43q-206 -467 -209 -473 q-6 -6 -9 -7q-14 0 -32 60l-187 418h-43v-469q0 -6 -10 -9q-4 1 -8 15z" />
<glyph unicode="&#x2126;" horiz-adv-x="1708" d="M94 725q0 324 299 557q190 129 402 129q356 0 591 -328q106 -188 107 -358q0 -328 -248 -545h-18v-53h186q49 -8 49 -39v-12q-10 -47 -43 -47h-491q-37 0 -47 53q12 45 43 45q115 0 307 164q168 199 168 426q0 283 -254 487q-170 109 -336 109h-31q-283 0 -479 -258 q-109 -168 -109 -338q0 -346 318 -537q55 -33 178 -63q31 -14 31 -43q-15 -49 -49 -49h-482q-53 12 -53 49q12 51 47 51h187v39q-102 78 -168 180q-105 181 -105 381z" />
<glyph unicode="&#x212e;" horiz-adv-x="1173" d="M68 502q0 260 247 418q123 59 226 59q276 0 430 -262q51 -100 51 -221v-19q-10 -49 -45 -49h-807q59 -188 211 -270q92 -35 168 -35q94 0 201 53h14q43 -8 43 -41v-10q0 -70 -242 -100h-24q-254 0 -410 241q-63 113 -63 236zM166 520h756q0 111 -95 238 q-127 121 -256 121h-41q-190 0 -311 -185q-41 -70 -53 -174z" />
<glyph unicode="&#x215b;" horiz-adv-x="1497" d="M127 66v22q0 12 141 184q838 1094 875 1137q10 8 24 8h13q34 0 43 -49v-2q0 -27 -119 -164q-51 -72 -899 -1167q-16 -10 -31 -10q-47 12 -47 41zM170 1354q0 27 111 45q0 4 22 10q10 0 19 -14l-5 -52v-655l5 -31q-6 -18 -21 -18q-10 0 -16 10v711l-95 -23h-10 q-10 7 -10 17zM909 240q0 111 135 209q-66 51 -81 110q-4 10 -5 37v10q0 90 91 150q45 25 88 24q86 0 143 -75q33 -45 33 -99v-10q0 -76 -92 -158q127 -92 127 -198q0 -109 -101 -183q-55 -37 -117 -37h-10q-104 0 -180 105q-31 60 -31 115zM942 244q0 -133 133 -183 q18 -8 55 -8q123 0 177 137l6 35v25q0 104 -121 164q-29 10 -64 10q-131 0 -180 -137zM991 598q0 -98 117 -139l27 -2q102 0 139 108l6 33q0 109 -115 145l-30 2q-100 0 -140 -106z" />
<glyph unicode="&#x215c;" horiz-adv-x="1521" d="M70 948q0 6 12 13h12q18 0 21 -64q51 -135 172 -135h12q127 0 174 151l4 33q0 131 -149 182q-47 0 -47 21q6 18 36 18q96 0 127 129v29q0 88 -120 131h-25q-104 0 -143 -119v-32q-4 -10 -13 -11h-10q-14 2 -14 13v8q0 125 141 174l43 4q104 0 164 -115q12 -31 12 -53v-22 q0 -72 -88 -158q123 -86 123 -201q0 -158 -176 -217l-49 -2h-6q-147 0 -209 174zM170 66v22q0 14 139 184q823 1075 877 1137q10 8 24 8h13q34 0 43 -49v-2q0 -25 -121 -164q-51 -72 -899 -1167q-16 -10 -31 -10q-45 12 -45 41zM950 240q0 109 137 209q-66 51 -81 110 q-6 15 -7 37v10q0 90 91 150q45 25 88 24q86 0 143 -75q35 -47 35 -99v-10q0 -76 -92 -158q125 -92 125 -198q0 -109 -101 -183q-55 -37 -114 -37h-13q-100 0 -178 105q-33 62 -33 115zM983 244q0 -133 133 -183q18 -8 58 -8q123 0 176 137l4 35v25q0 104 -121 164 q-29 10 -62 10q-131 0 -180 -137zM1032 598q0 -98 117 -139l29 -2q102 0 139 108l6 33q0 109 -115 145l-32 2q-100 0 -140 -106z" />
<glyph unicode="&#x215d;" horiz-adv-x="1568" d="M53 881q6 18 21 18q20 0 20 -51q31 -94 101 -129q47 -20 84 -21q125 0 178 127q10 23 10 64q0 135 -145 184l-56 4h-147q-12 0 -15 15v309q0 4 17 10l16 -2h324q14 0 16 -20q0 -8 -22 -15h-316v-262h146q127 0 196 -131q25 -63 25 -92q0 -117 -113 -195q-55 -31 -110 -30 h-7q-129 0 -204 137q-19 51 -19 80zM229 66v22q0 14 140 184q838 1094 874 1137q10 8 27 8h10q34 0 43 -49v-2q0 -27 -119 -164q-51 -72 -899 -1167q-16 -10 -31 -10q-45 12 -45 41zM1010 240q0 109 137 209q-66 51 -82 110q-6 15 -6 37v10q0 90 90 150q47 25 88 24 q86 0 143 -75q33 -45 33 -99v-10q0 -76 -90 -158q125 -92 125 -198q0 -109 -100 -183q-55 -37 -115 -37h-12q-102 0 -179 105q-32 62 -32 115zM1042 244q0 -133 134 -183q18 -8 57 -8q123 0 176 137l4 35v25q0 104 -121 164q-29 10 -61 10q-131 0 -180 -137zM1092 598 q0 -98 116 -139l29 -2q100 0 137 108l6 33q0 109 -112 145l-33 2q-100 0 -139 -106z" />
<glyph unicode="&#x215e;" horiz-adv-x="1492" d="M100 655v4q2 8 373 664l19 47h-365q-20 2 -21 14q4 20 13 21h409q18 -4 19 -10v-11q0 -3 -19 -30l-401 -711l-8 -4q-19 4 -19 16zM121 66v22q0 14 139 184q838 1094 875 1137q10 8 24 8h12q34 0 43 -49v-2q0 -27 -118 -164q-51 -72 -899 -1167q-16 -10 -31 -10 q-45 12 -45 41zM901 240q0 111 135 209q-66 51 -82 110q-4 10 -4 37v10q0 90 90 150q45 25 88 24q86 0 144 -75q33 -45 33 -99v-10q0 -76 -93 -158q127 -92 127 -198q0 -109 -100 -183q-55 -37 -117 -37h-10q-100 0 -178 105q-33 62 -33 115zM934 244q0 -133 133 -183 q18 -8 55 -8q123 0 176 137l7 35v25q0 104 -121 164q-29 10 -64 10q-131 0 -180 -137zM983 598q0 -98 117 -139l26 -2q102 0 140 108l6 33q0 109 -115 145l-31 2q-100 0 -139 -106z" />
<glyph unicode="&#x2190;" horiz-adv-x="1921" d="M84 678q0 39 106 88q334 217 355 217h6q43 -8 43 -41v-6q0 -35 -131 -102l-113 -68l-65 -43h1470q45 -8 45 -41q-8 -45 -43 -45h-1466l295 -191q8 -14 8 -26v-4q-10 -41 -39 -41h-14q-25 6 -412 256q-45 14 -45 47z" />
<glyph unicode="&#x2191;" horiz-adv-x="831" d="M88 936v16q0 20 90 158l178 287q12 12 35 16q33 0 84 -106q219 -336 219 -355v-6q-10 -41 -39 -41h-16q-25 0 -74 96l-131 211v-1468q0 -31 -43 -39q-43 8 -43 41v1468l-45 -67q-135 -240 -151 -240l-17 -2h-12q-35 13 -35 31z" />
<glyph unicode="&#x2192;" horiz-adv-x="1908" d="M68 684q12 39 36 39h1475l-63 43q-217 127 -240 149l-4 23v10q0 25 45 35q22 0 282 -172q147 -84 175 -111l6 -16v-16q0 -25 -62 -50q-383 -244 -393 -243h-12q-41 10 -41 39v14q0 29 153 109l156 100h-1472q-35 0 -41 47z" />
<glyph unicode="&#x2193;" horiz-adv-x="806" d="M76 172v16q0 29 43 39h2q35 0 72 -86l141 -215v1399l-2 57q0 25 47 37q25 0 41 -39l-2 -55v-1403l190 297q10 8 25 8h2q43 -9 43 -43v-6q0 -14 -90 -153l-178 -289q-18 -14 -31 -15h-4q-33 0 -82 103q-215 330 -217 348z" />
<glyph unicode="&#x2194;" horiz-adv-x="1959" d="M88 670v2q0 31 59 55q362 233 400 246q47 -6 47 -41v-8q0 -33 -92 -76l-142 -78l-90 -53h1352q-276 168 -303 190l-6 19v12q0 29 43 39h2q23 0 260 -158q180 -109 192 -121l9 -28q0 -31 -58 -54q-371 -236 -397 -243h-16q-35 12 -35 30v17q0 31 121 92q8 14 118 76l78 43 h-1360l76 -43q205 -121 244 -156q4 -6 4 -18v-8q0 -31 -47 -41q-14 0 -303 186q-151 86 -154 98z" />
<glyph unicode="&#x2195;" horiz-adv-x="823" d="M76 954q14 43 252 412q18 41 45 41h6q33 0 53 -57q242 -383 244 -394v-2q-10 -47 -45 -47q-37 0 -78 92l-129 215v-1318l176 292q16 14 31 15q47 -10 47 -43q0 -27 -137 -234q-127 -207 -140 -217l-20 -4h-8q-31 0 -62 76q-231 352 -231 375q10 47 43 47q37 0 82 -94 l92 -148l41 -63v1329l-41 -70q-121 -205 -154 -242l-26 -8q-35 0 -41 51v-4z" />
<glyph unicode="&#x21a8;" horiz-adv-x="878" d="M104 954q14 43 252 412q18 41 45 41h7q35 0 55 -57q240 -379 242 -394v-2q-10 -47 -46 -47q-37 0 -77 92l-129 207v-1298l178 280q16 14 28 15q47 -10 48 -43q0 -27 -138 -234q-127 -207 -139 -217l-20 -4h-9q-31 0 -61 76q-231 352 -231 375q10 47 43 47q37 0 81 -94 l93 -148l41 -67v1329l-41 -66q-121 -205 -154 -242l-27 -8q-35 0 -41 51v-4z" />
<glyph unicode="&#x2202;" horiz-adv-x="1130" d="M41 500q0 250 240 407q117 63 233 64q113 0 264 -78v51q-135 233 -432 334q-127 33 -213 33l-45 -4q-29 0 -41 47v8q8 45 45 45q530 0 791 -457q102 -164 102 -485q0 -152 -147 -311q-147 -129 -316 -129h-22q-225 0 -389 225q-70 125 -70 250zM133 500q0 -231 227 -348 q74 -33 154 -33q227 0 344 223q35 80 35 162q0 224 -234 344q-92 29 -145 29q-223 0 -344 -220q-37 -85 -37 -157z" />
<glyph unicode="&#x2206;" horiz-adv-x="1142" d="M0 78l504 1321q18 18 35 18h12q41 0 59 -96q475 -1223 475 -1239v-12q0 -35 -51 -45h-987q-37 0 -47 53zM127 125h836l-400 1049h-39z" />
<glyph unicode="&#x220f;" horiz-adv-x="1376" d="M76 -344q0 33 53 45h90v1620h-104q-31 0 -39 55q0 29 53 41h995q53 -10 54 -47q-10 -49 -39 -49h-105v-1620h90q53 -12 54 -49q-9 -49 -68 -49h-106l-17 -4l-20 4h-107l-22 -4q-33 0 -45 57q0 33 53 45h90v1620h-619v-1620h91q53 -12 53 -49q-10 -49 -68 -49h-106l-17 -4 l-20 4h-107l-22 -4q-33 0 -45 57z" />
<glyph unicode="&#x2211;" horiz-adv-x="1204" d="M70 1356v8q0 31 45 39h848q45 -8 45 -37v-18q0 -33 -47 -41h-738l647 -789l2 -18v-8q0 -16 -153 -193l-483 -592h731q53 -10 53 -39v-22q0 -20 -45 -37l-23 2h-800l-21 -2q-45 12 -45 37v22q0 20 154 195l512 622v23l-676 825z" />
<glyph unicode="&#x2212;" horiz-adv-x="1091" d="M90 688q10 53 72 53v2l14 -2h721l37 4q37 0 49 -57q0 -33 -43 -51l-61 2h-682l-60 -2q-47 18 -47 51z" />
<glyph unicode="&#x221a;" horiz-adv-x="1126" d="M0 360v7q0 31 55 43q35 0 72 -93l55 -104h35q647 1309 662 1325l30 14l33 -2h94l31 2q45 -12 45 -47v-6q0 -35 -43 -47l-55 4h-47q-23 0 -715 -1397q-16 -35 -45 -34h-4q-43 0 -84 110q-119 194 -119 225z" />
<glyph unicode="&#x221e;" horiz-adv-x="1312" d="M63 645q0 205 230 301l92 12q123 0 250 -122q129 123 258 122q195 0 299 -219l12 -98v-2q0 -223 -243 -307l-72 -8q-127 0 -254 120q-125 -121 -256 -120q-207 0 -303 229zM143 623q0 -132 172 -197h72q113 0 180 147l13 68q0 150 -172 213h-72q-135 0 -193 -180v-51z M688 627q0 -133 170 -197h74q113 0 180 148l10 67q0 150 -170 213h-71q-135 0 -193 -180v-51z" />
<glyph unicode="&#x221f;" horiz-adv-x="1429" d="M84 76v1089q6 59 45 60q47 -12 47 -37v-1069h1063q39 0 45 -51q-12 -43 -45 -43h-1112q-33 0 -43 51z" />
<glyph unicode="&#x2229;" horiz-adv-x="1220" d="M76 72v872q0 238 229 399q125 68 250 68q274 0 430 -268q47 -111 47 -199v-881q0 -29 -51 -38h2q-47 8 -47 38v799q0 242 -113 332q-106 117 -268 117q-244 0 -352 -242q-31 -49 -31 -207v-794q0 -35 -47 -43q-49 8 -49 47z" />
<glyph unicode="&#x222b;" horiz-adv-x="919" d="M18 -68v-2q8 45 35 45h19q29 0 53 -67q45 -35 78 -35h10q102 0 102 162l177 1466q61 131 178 131h14q117 0 172 -129q-6 -47 -41 -47h-6q-33 0 -59 57q-29 23 -70 31q-111 0 -111 -149l-180 -1483q-66 -127 -174 -127h-16q-128 0 -181 147z" />
<glyph unicode="&#x2248;" d="M104 887v10q0 41 142 96l55 8h2q45 0 350 -83h31q55 0 125 65l18 4q43 -8 43 -33v-16q0 -41 -120 -96l-72 -11h-6q-41 0 -348 84h-27q-59 0 -121 -61q-16 -10 -26 -10q-46 8 -46 43zM121 578v16q0 31 63 63q65 43 135 43q37 0 351 -84h35q49 0 126 70l13 2q43 -9 43 -43 v-6q0 -45 -133 -100l-56 -9h-26q-23 0 -336 84h-12q-72 0 -134 -61q-14 -10 -22 -10q-47 10 -47 35z" />
<glyph unicode="&#x2260;" horiz-adv-x="1026" d="M135 430q0 33 60 45h249v227h-258q-43 0 -51 58q16 49 51 49h258v143q0 29 43 35q43 -6 43 -39v-139h269q39 0 51 -55q-12 -51 -51 -52h-269v-227h263q57 -12 57 -51q-12 -53 -51 -53h-269v-142q-6 -47 -41 -47h-6q-39 6 -39 43v146h-266q-35 0 -43 59z" />
<glyph unicode="&#x2261;" horiz-adv-x="1159" d="M80 199q10 53 72 53v2l14 -2h721l37 4q37 0 49 -57q0 -35 -43 -54l-64 5h-682l-57 -5q-47 19 -47 54zM84 590q10 53 72 53h14h723l35 4q39 0 51 -57q0 -35 -45 -53l-62 4h-682l-59 -4q-47 18 -47 53zM84 979q8 51 72 51v2l14 -2h723l35 4q39 0 51 -57q0 -33 -45 -51 l-62 4h-682l-59 -4q-47 18 -47 53z" />
<glyph unicode="&#x2264;" d="M96 80q8 51 35 51h670q33 0 39 -49v-8q-8 -49 -35 -49h-666q-37 0 -43 55zM96 680q0 45 135 111q530 340 545 339h8q55 -12 56 -51v-8q0 -37 -84 -78l-500 -309l571 -362q12 -12 13 -29v-12q0 -39 -58 -48q-20 0 -129 72l-544 342q-13 19 -13 33z" />
<glyph unicode="&#x2265;" d="M111 86q8 49 34 49h668q31 0 39 -45v-10q-8 -49 -35 -49h-672q-26 0 -34 55zM111 289v4q0 43 122 102l437 277v30q-513 313 -547 345q-12 15 -12 43q0 33 57 47q25 0 301 -185q350 -211 377 -237q6 -12 6 -27v-14q0 -31 -107 -82q-549 -350 -559 -350l-24 -4 q-51 8 -51 51z" />
<glyph unicode="&#xe000;" horiz-adv-x="980" d="M0 980h980v-980h-980v980z" />
<glyph unicode="&#xf001;" horiz-adv-x="1019" d="M0 938q0 20 41 43l70 -4h145v96q0 229 199 313q34 18 110 25q170 0 275 -174l14 -45q0 -33 -53 -45q-35 0 -72 84q-78 80 -168 80q-133 0 -194 -148l-13 -92v-94h189l59 4q27 0 39 -51v-8q0 -27 -45 -39h-242v-774l4 -41q0 -31 -53 -43q-35 0 -49 43l4 41v774h-221 q-31 0 -39 55zM760 68v897q10 49 45 49q51 -12 51 -49v-887q-8 -49 -45 -49h-2q-49 8 -49 39z" />
<glyph unicode="&#xfb01;" horiz-adv-x="1019" d="M0 938q0 20 41 43l70 -4h145v96q0 229 199 313q34 18 110 25q170 0 275 -174l14 -45q0 -33 -53 -45q-35 0 -72 84q-78 80 -168 80q-133 0 -194 -148l-13 -92v-94h189l59 4q27 0 39 -51v-8q0 -27 -45 -39h-242v-774l4 -41q0 -31 -53 -43q-35 0 -49 43l4 41v774h-221 q-31 0 -39 55zM760 68v897q10 49 45 49q51 -12 51 -49v-887q-8 -49 -45 -49h-2q-49 8 -49 39z" />
<glyph unicode="&#xf002;" horiz-adv-x="1079" d="M0 944q0 18 41 41l70 -4h147v96q0 231 199 316q34 18 110 24q172 0 277 -176l14 -35l-4 -39v-1040h104q29 0 39 -49q-10 -49 -47 -49h-147q-37 0 -47 53v1104q-39 115 -191 131q-132 0 -196 -148l-13 -92v-96h191l59 4q27 0 39 -49v-10q0 -27 -47 -39h-242v-778l4 -41 q0 -31 -55 -43q-31 0 -47 43l4 41v778h-221q-33 0 -41 57z" />
<glyph unicode="&#xfb02;" horiz-adv-x="1079" d="M0 944q0 18 41 41l70 -4h147v96q0 231 199 316q34 18 110 24q172 0 277 -176l14 -35l-4 -39v-1040h104q29 0 39 -49q-10 -49 -47 -49h-147q-37 0 -47 53v1104q-39 115 -191 131q-132 0 -196 -148l-13 -92v-96h191l59 4q27 0 39 -49v-10q0 -27 -47 -39h-242v-778l4 -41 q0 -31 -55 -43q-31 0 -47 43l4 41v778h-221q-33 0 -41 57z" />
<glyph horiz-adv-x="0" />
</font>
</defs>
</svg>
